SplineFontDB: 3.0
FontName: Coustard-Black
FullName: Coustard-Black
FamilyName: Coustard
Weight: Black
Copyright: Copyright (c) 2011 by vernon adams. All rights reserved. with\nReserved Font Names "Coustard" and "Coustard Black". This\nFont Software is licensed under the SIL Open Font License, Version\n1.1. This license is available with a FAQ at:\nhttp://scripts.sil.org/OFL
Version: 1.000;
ItalicAngle: 0
UnderlinePosition: 0
UnderlineWidth: 0
Ascent: 1638
Descent: 410
sfntRevision: 0x00010000
LayerCount: 2
Layer: 0 1 "Back"  1
Layer: 1 1 "Fore"  0
XUID: [1021 14 500265001 603119]
FSType: 0
OS2Version: 3
OS2_WeightWidthSlopeOnly: 0
OS2_UseTypoMetrics: 1
CreationTime: 1309244640
ModificationTime: 1312536544
PfmFamily: 17
TTFWeight: 900
TTFWidth: 5
LineGap: 0
VLineGap: 0
Panose: 2 11 8 3 5 3 2 2 2 4
OS2TypoAscent: 457
OS2TypoAOffset: 1
OS2TypoDescent: -371
OS2TypoDOffset: 1
OS2TypoLinegap: 0
OS2WinAscent: 0
OS2WinAOffset: 1
OS2WinDescent: 0
OS2WinDOffset: 1
HheadAscent: 0
HheadAOffset: 1
HheadDescent: 0
HheadDOffset: 1
OS2SubXSize: 1331
OS2SubYSize: 1228
OS2SubXOff: 0
OS2SubYOff: 153
OS2SupXSize: 1331
OS2SupYSize: 1228
OS2SupXOff: 0
OS2SupYOff: 716
OS2StrikeYSize: 0
OS2StrikeYPos: 674
OS2Vendor: 'newt'
OS2CodePages: 00000001.00000000
OS2UnicodeRanges: 00000007.00000000.00000000.00000000
Lookup: 4 0 1 "'liga' Standard Ligatures in Latin lookup 0"  {"'liga' Standard Ligatures in Latin lookup 0 subtable"  } ['liga' ('DFLT' <'dflt' > 'latn' <'dflt' > ) ]
Lookup: 258 0 0 "'kern' Horizontal Kerning in Latin lookup 0"  {"'kern' Horizontal Kerning in Latin lookup 0 subtable"  } ['kern' ('DFLT' <'dflt' > 'latn' <'dflt' > ) ]
MarkAttachClasses: 1
DEI: 91125
KernClass2: 3 2 "'kern' Horizontal Kerning in Latin lookup 0 subtable" 
 5 V W Y
 3 F T

StartChar: .notdef
Encoding: 65536 -1 0
Width: 748
Flags: W
LayerCount: 2
Fore
SplineSet
68 0 m 1,0,-1
 68 1365 l 1,1,-1
 612 1365 l 1,2,-1
 612 0 l 1,3,-1
 68 0 l 1,0,-1
136 68 m 1,4,-1
 544 68 l 1,5,-1
 544 1297 l 1,6,-1
 136 1297 l 1,7,-1
 136 68 l 1,4,-1
EndSplineSet
EndChar

StartChar: exclam
Encoding: 33 33 4
Width: 670
GlyphClass: 2
Flags: W
LayerCount: 2
Fore
SplineSet
349 -29 m 128,-1,1
 313 -29 313 -29 273.5 -22 c 128,-1,2
 234 -15 234 -15 189.5 2 c 128,-1,3
 145 19 145 19 116 55 c 128,-1,4
 87 91 87 91 87 140 c 0,5,6
 87 316 87 316 342 316 c 0,7,8
 416 316 416 316 468 299 c 128,-1,9
 520 282 520 282 544 253.5 c 128,-1,10
 568 225 568 225 578 197 c 128,-1,11
 588 169 588 169 588 137 c 0,12,13
 588 90 588 90 563 55.5 c 128,-1,14
 538 21 538 21 499 4 c 128,-1,15
 460 -13 460 -13 422.5 -21 c 128,-1,0
 385 -29 385 -29 349 -29 c 128,-1,1
340 416 m 0,16,17
 299 416 299 416 277 417 c 128,-1,18
 255 418 255 418 237.5 423.5 c 128,-1,19
 220 429 220 429 214 434.5 c 128,-1,20
 208 440 208 440 204 456 c 128,-1,21
 200 472 200 472 200 486.5 c 128,-1,22
 200 501 200 501 198 532 c 128,-1,23
 196 563 196 563 192 592 c 0,24,25
 175 709 175 709 139 915.5 c 128,-1,26
 103 1122 103 1122 77 1270.5 c 128,-1,27
 51 1419 51 1419 51 1438 c 0,28,29
 51 1480 51 1480 72.5 1498 c 128,-1,30
 94 1516 94 1516 141 1516 c 2,31,-1
 537 1516 l 2,32,33
 584 1516 584 1516 605.5 1498 c 128,-1,34
 627 1480 627 1480 627 1438 c 0,35,36
 627 1419 627 1419 600.5 1270 c 128,-1,37
 574 1121 574 1121 538 915.5 c 128,-1,38
 502 710 502 710 486 592 c 0,39,40
 482 563 482 563 479.5 532.5 c 128,-1,41
 477 502 477 502 477.5 487 c 128,-1,42
 478 472 478 472 473.5 456 c 128,-1,43
 469 440 469 440 463.5 434.5 c 128,-1,44
 458 429 458 429 441 423.5 c 128,-1,45
 424 418 424 418 402 417 c 128,-1,46
 380 416 380 416 340 416 c 0,16,17
EndSplineSet
EndChar

StartChar: quotedbl
Encoding: 34 34 5
Width: 1161
GlyphClass: 2
Flags: W
LayerCount: 2
Fore
SplineSet
113 978 m 0,0,1
 113 992 113 992 131 1014 c 128,-1,2
 149 1036 149 1036 170.5 1055.5 c 128,-1,3
 192 1075 192 1075 210 1100 c 128,-1,4
 228 1125 228 1125 228 1145 c 0,5,6
 228 1156 228 1156 202 1167 c 128,-1,7
 176 1178 176 1178 145.5 1191.5 c 128,-1,8
 115 1205 115 1205 89 1245.5 c 128,-1,9
 63 1286 63 1286 63 1347 c 0,10,11
 63 1449 63 1449 131 1512 c 128,-1,12
 199 1575 199 1575 309 1575 c 0,13,14
 413 1575 413 1575 485.5 1506 c 128,-1,15
 558 1437 558 1437 558 1337 c 0,16,17
 558 1277 558 1277 527 1204.5 c 128,-1,18
 496 1132 496 1132 446.5 1069.5 c 128,-1,19
 397 1007 397 1007 329 965 c 128,-1,20
 261 923 261 923 195 923 c 0,21,22
 158 923 158 923 135.5 940 c 128,-1,23
 113 957 113 957 113 978 c 0,0,1
662 978 m 0,24,25
 662 996 662 996 691 1025.5 c 128,-1,26
 720 1055 720 1055 748.5 1087.5 c 128,-1,27
 777 1120 777 1120 777 1145 c 0,28,29
 777 1156 777 1156 751 1167 c 128,-1,30
 725 1178 725 1178 694.5 1191.5 c 128,-1,31
 664 1205 664 1205 638 1245.5 c 128,-1,32
 612 1286 612 1286 612 1347 c 0,33,34
 612 1449 612 1449 680 1512 c 128,-1,35
 748 1575 748 1575 858 1575 c 0,36,37
 962 1575 962 1575 1034.5 1506 c 128,-1,38
 1107 1437 1107 1437 1107 1337 c 0,39,40
 1107 1277 1107 1277 1076 1204.5 c 128,-1,41
 1045 1132 1045 1132 995.5 1069.5 c 128,-1,42
 946 1007 946 1007 878 965 c 128,-1,43
 810 923 810 923 744 923 c 0,44,45
 707 923 707 923 684.5 940 c 128,-1,46
 662 957 662 957 662 978 c 0,24,25
EndSplineSet
EndChar

StartChar: numbersign
Encoding: 35 35 6
Width: 1112
GlyphClass: 2
Flags: W
LayerCount: 2
Fore
SplineSet
535 536 m 0,0,1
 547 603 547 603 586 735 c 1,2,-1
 386 735 l 1,3,4
 370 681 370 681 329 533 c 0,5,6
 321 504 321 504 316 491.5 c 128,-1,7
 311 479 311 479 299.5 463 c 128,-1,8
 288 447 288 447 269 441.5 c 128,-1,9
 250 436 250 436 220 436 c 0,10,11
 203 436 203 436 183.5 442 c 128,-1,12
 164 448 164 448 144.5 467.5 c 128,-1,13
 125 487 125 487 125 518 c 0,14,15
 125 531 125 531 127.5 548 c 128,-1,16
 130 565 130 565 136 588.5 c 128,-1,17
 142 612 142 612 147 630 c 128,-1,18
 152 648 152 648 161.5 681 c 128,-1,19
 171 714 171 714 176 731 c 1,20,21
 166 731 166 731 147.5 730.5 c 128,-1,22
 129 730 129 730 120 730 c 2,23,-1
 104 730 l 2,24,25
 71 730 71 730 55.5 739 c 128,-1,26
 40 748 40 748 40 778 c 0,27,28
 40 812 40 812 59.5 846 c 128,-1,29
 79 880 79 880 124 893 c 1,30,31
 163 899 163 899 225 901 c 1,32,33
 236 936 236 936 255.5 1000.5 c 128,-1,34
 275 1065 275 1065 283 1091 c 1,35,36
 271 1091 271 1091 247 1090.5 c 128,-1,37
 223 1090 223 1090 212 1090 c 2,38,-1
 196 1090 l 2,39,40
 163 1090 163 1090 147.5 1099 c 128,-1,41
 132 1108 132 1108 132 1138 c 0,42,43
 132 1172 132 1172 151.5 1206 c 128,-1,44
 171 1240 171 1240 216 1253 c 1,45,46
 230 1255 230 1255 335 1262 c 1,47,48
 375 1394 375 1394 387 1444 c 0,49,50
 400 1496 400 1496 486 1496 c 0,51,52
 587 1496 587 1496 587 1434 c 0,53,54
 587 1420 587 1420 579.5 1393.5 c 128,-1,55
 572 1367 572 1367 558 1326.5 c 128,-1,56
 544 1286 544 1286 538 1265 c 1,57,-1
 744 1265 l 1,58,59
 778 1378 778 1378 795 1444 c 0,60,61
 808 1496 808 1496 894 1496 c 0,62,63
 995 1496 995 1496 995 1434 c 0,64,65
 995 1423 995 1423 979 1371 c 2,66,-1
 946 1268 l 1,67,-1
 1046 1268 l 2,68,69
 1083 1268 1083 1268 1083 1223 c 2,70,-1
 1083 1217 l 2,71,72
 1083 1203 1083 1203 1080 1187 c 128,-1,73
 1077 1171 1077 1171 1068.5 1149.5 c 128,-1,74
 1060 1128 1060 1128 1039 1114 c 128,-1,75
 1018 1100 1018 1100 987 1100 c 2,76,-1
 897 1100 l 1,77,-1
 842 908 l 1,78,-1
 954 908 l 2,79,80
 991 908 991 908 991 863 c 2,81,-1
 991 857 l 2,82,83
 991 843 991 843 988 827 c 128,-1,84
 985 811 985 811 976.5 789.5 c 128,-1,85
 968 768 968 768 947 754 c 128,-1,86
 926 740 926 740 895 740 c 2,87,-1
 795 740 l 1,88,-1
 737 533 l 2,89,90
 729 504 729 504 724 491.5 c 128,-1,91
 719 479 719 479 707.5 463 c 128,-1,92
 696 447 696 447 677 441.5 c 128,-1,93
 658 436 658 436 628 436 c 0,94,95
 611 436 611 436 591.5 442 c 128,-1,96
 572 448 572 448 552.5 467.5 c 128,-1,97
 533 487 533 487 533 518 c 0,98,99
 533 529 533 529 535 536 c 0,0,1
488 1095 m 1,100,-1
 434 905 l 1,101,-1
 634 905 l 1,102,-1
 693 1095 l 1,103,-1
 488 1095 l 1,100,-1
EndSplineSet
EndChar

StartChar: dollar
Encoding: 36 36 7
Width: 1145
GlyphClass: 2
Flags: W
LayerCount: 2
Fore
SplineSet
438 238 m 1,0,-1
 554 240 l 1,1,2
 552 210 552 210 551.5 159 c 128,-1,3
 551 108 551 108 549.5 82.5 c 128,-1,4
 548 57 548 57 542.5 27.5 c 128,-1,5
 537 -2 537 -2 524 -14.5 c 128,-1,6
 511 -27 511 -27 490 -27 c 128,-1,7
 469 -27 469 -27 453.5 -7.5 c 128,-1,8
 438 12 438 12 438 48 c 2,9,-1
 438 238 l 1,0,-1
651 239 m 1,10,-1
 767 239 l 1,11,-1
 767 48 l 2,12,13
 767 13 767 13 750 -7 c 128,-1,14
 733 -27 733 -27 710 -27 c 0,15,16
 691 -27 691 -27 679 -15 c 128,-1,17
 667 -3 667 -3 662.5 26 c 128,-1,18
 658 55 658 55 656.5 80 c 128,-1,19
 655 105 655 105 654 156.5 c 128,-1,20
 653 208 653 208 651 239 c 1,10,-1
536 1249 m 1,21,-1
 420 1251 l 1,22,-1
 420 1441 l 2,23,24
 420 1477 420 1477 435.5 1496.5 c 128,-1,25
 451 1516 451 1516 472 1516 c 128,-1,26
 493 1516 493 1516 506 1503.5 c 128,-1,27
 519 1491 519 1491 524.5 1461.5 c 128,-1,28
 530 1432 530 1432 531.5 1406 c 128,-1,29
 533 1380 533 1380 533.5 1329.5 c 128,-1,30
 534 1279 534 1279 536 1249 c 1,21,-1
749 1250 m 1,31,-1
 633 1250 l 1,32,33
 634 1276 634 1276 635 1310 c 128,-1,34
 636 1344 636 1344 636.5 1367 c 128,-1,35
 637 1390 637 1390 638.5 1415.5 c 128,-1,36
 640 1441 640 1441 643.5 1457.5 c 128,-1,37
 647 1474 647 1474 652.5 1488.5 c 128,-1,38
 658 1503 658 1503 668 1509.5 c 128,-1,39
 678 1516 678 1516 692 1516 c 0,40,41
 715 1516 715 1516 732 1496 c 128,-1,42
 749 1476 749 1476 749 1441 c 2,43,-1
 749 1250 l 1,31,-1
1108 544 m 0,44,45
 1108 453 1108 453 1067 384 c 128,-1,46
 1026 315 1026 315 951 273.5 c 128,-1,47
 876 232 876 232 777 212 c 128,-1,48
 678 192 678 192 555 192 c 0,49,50
 426 192 426 192 310.5 227 c 128,-1,51
 195 262 195 262 119.5 331.5 c 128,-1,52
 44 401 44 401 44 488 c 0,53,54
 44 572 44 572 177 572 c 0,55,56
 206 572 206 572 238.5 572.5 c 128,-1,57
 271 573 271 573 275 573 c 0,58,59
 339 573 339 573 363.5 550 c 128,-1,60
 388 527 388 527 406 470 c 1,61,62
 413 437 413 437 442 420 c 128,-1,63
 471 403 471 403 509 403 c 0,64,65
 555 403 555 403 591 421 c 128,-1,66
 627 439 627 439 627 468 c 0,67,68
 627 495 627 495 601 520 c 128,-1,69
 575 545 575 545 532.5 565 c 128,-1,70
 490 585 490 585 447.5 600.5 c 128,-1,71
 405 616 405 616 359.5 631.5 c 128,-1,72
 314 647 314 647 295 656 c 0,73,74
 173 714 173 714 108 794 c 128,-1,75
 43 874 43 874 43 987 c 0,76,77
 43 1067 43 1067 91 1131 c 128,-1,78
 139 1195 139 1195 219 1234 c 128,-1,79
 299 1273 299 1273 395.5 1293.5 c 128,-1,80
 492 1314 492 1314 595 1314 c 0,81,82
 1061 1314 1061 1314 1061 1051 c 0,83,84
 1061 1039 1061 1039 1057 1027.5 c 128,-1,85
 1053 1016 1053 1016 1041 1001.5 c 128,-1,86
 1029 987 1029 987 1000 978 c 128,-1,87
 971 969 971 969 928 969 c 0,88,89
 902 969 902 969 873 968.5 c 128,-1,90
 844 968 844 968 840 968 c 0,91,92
 807 968 807 968 784 976 c 128,-1,93
 761 984 761 984 746.5 1004.5 c 128,-1,94
 732 1025 732 1025 725.5 1038.5 c 128,-1,95
 719 1052 719 1052 708 1084 c 0,96,97
 701 1103 701 1103 671 1113.5 c 128,-1,98
 641 1124 641 1124 601 1124 c 0,99,100
 562 1124 562 1124 533 1108.5 c 128,-1,101
 504 1093 504 1093 504 1065 c 0,102,103
 504 1034 504 1034 550.5 1000 c 128,-1,104
 597 966 597 966 673 945 c 0,105,106
 724 931 724 931 758.5 920.5 c 128,-1,107
 793 910 793 910 842.5 890.5 c 128,-1,108
 892 871 892 871 925.5 851 c 128,-1,109
 959 831 959 831 996.5 800 c 128,-1,110
 1034 769 1034 769 1056 733.5 c 128,-1,111
 1078 698 1078 698 1093 649.5 c 128,-1,112
 1108 601 1108 601 1108 544 c 0,44,45
EndSplineSet
EndChar

StartChar: percent
Encoding: 37 37 8
Width: 1533
GlyphClass: 2
Flags: W
LayerCount: 2
Fore
SplineSet
40 1103 m 0,0,1
 40 1271 40 1271 148 1381.5 c 128,-1,2
 256 1492 256 1492 413 1492 c 0,3,4
 556 1492 556 1492 645 1401.5 c 128,-1,5
 734 1311 734 1311 734 1162 c 0,6,7
 734 993 734 993 632.5 880.5 c 128,-1,8
 531 768 531 768 370 768 c 0,9,10
 224 768 224 768 132 862 c 128,-1,11
 40 956 40 956 40 1103 c 0,0,1
375 1380 m 0,12,13
 337 1380 337 1380 317 1308.5 c 128,-1,14
 297 1237 297 1237 297 1140 c 0,15,16
 297 1036 297 1036 319.5 962.5 c 128,-1,17
 342 889 342 889 374 889 c 0,18,19
 411 889 411 889 430.5 958 c 128,-1,20
 450 1027 450 1027 450 1122 c 0,21,22
 450 1233 450 1233 429 1306.5 c 128,-1,23
 408 1380 408 1380 375 1380 c 0,12,13
801 358 m 0,24,25
 801 528 801 528 907.5 639 c 128,-1,26
 1014 750 1014 750 1173 750 c 0,27,28
 1316 750 1316 750 1405 659 c 128,-1,29
 1494 568 1494 568 1494 420 c 0,30,31
 1494 254 1494 254 1392.5 140 c 128,-1,32
 1291 26 1291 26 1134 26 c 0,33,34
 986 26 986 26 893.5 118.5 c 128,-1,35
 801 211 801 211 801 358 c 0,24,25
1135 638 m 0,36,37
 1097 638 1097 638 1077 565 c 128,-1,38
 1057 492 1057 492 1057 395 c 0,39,40
 1057 292 1057 292 1080 219.5 c 128,-1,41
 1103 147 1103 147 1135 147 c 0,42,43
 1172 147 1172 147 1191 213.5 c 128,-1,44
 1210 280 1210 280 1210 376 c 0,45,46
 1210 489 1210 489 1189 563.5 c 128,-1,47
 1168 638 1168 638 1135 638 c 0,36,37
888 1187 m 0,48,49
 987 1369 987 1369 1001 1439 c 0,50,51
 1007 1471 1007 1471 1042 1486.5 c 128,-1,52
 1077 1502 1077 1502 1125 1502 c 0,53,54
 1185 1502 1185 1502 1244 1483 c 128,-1,55
 1303 1464 1303 1464 1303 1434 c 0,56,57
 1303 1413 1303 1413 1289 1395 c 0,58,59
 762 678 762 678 586 210 c 0,60,61
 569 166 569 166 560 135 c 0,62,63
 535 48 535 48 417 48 c 0,64,65
 356 48 356 48 294 70 c 128,-1,66
 232 92 232 92 232 111 c 0,67,68
 232 112 232 112 234 116 c 0,69,70
 302 199 302 199 521 557.5 c 128,-1,71
 740 916 740 916 888 1187 c 0,48,49
EndSplineSet
EndChar

StartChar: ampersand
Encoding: 38 38 9
Width: 1727
GlyphClass: 2
Flags: W
LayerCount: 2
Fore
SplineSet
1503 543 m 1,0,1
 1436 391 1436 391 1362 285 c 1,2,3
 1364 282 1364 282 1370 278 c 1,4,5
 1408 233 1408 233 1513 233 c 0,6,7
 1551 233 1551 233 1591.5 239.5 c 128,-1,8
 1632 246 1632 246 1653.5 252 c 128,-1,9
 1675 258 1675 258 1679 260 c 0,10,11
 1681 261 1681 261 1683.5 243.5 c 128,-1,12
 1686 226 1686 226 1688 197.5 c 128,-1,13
 1690 169 1690 169 1690 142 c 0,14,15
 1690 14 1690 14 1670 10 c 1,16,17
 1532 -26 1532 -26 1403 -26 c 0,18,19
 1292 -26 1292 -26 1232.5 -7.5 c 128,-1,20
 1173 11 1173 11 1115 63 c 1,21,22
 942 -27 942 -27 667 -27 c 0,23,24
 537 -27 537 -27 423 1 c 128,-1,25
 309 29 309 29 222 81.5 c 128,-1,26
 135 134 135 134 85 216 c 128,-1,27
 35 298 35 298 35 399 c 0,28,29
 35 465 35 465 52.5 522.5 c 128,-1,30
 70 580 70 580 98.5 623 c 128,-1,31
 127 666 127 666 170 704 c 128,-1,32
 213 742 213 742 257.5 769.5 c 128,-1,33
 302 797 302 797 358 823 c 1,34,35
 214 1019 214 1019 214 1150 c 0,36,37
 214 1160 214 1160 216 1180 c 0,38,39
 225 1242 225 1242 254 1293.5 c 128,-1,40
 283 1345 283 1345 322 1379 c 128,-1,41
 361 1413 361 1413 411 1439 c 128,-1,42
 461 1465 461 1465 507.5 1479 c 128,-1,43
 554 1493 554 1493 602 1502 c 128,-1,44
 650 1511 650 1511 681 1513.5 c 128,-1,45
 712 1516 712 1516 736 1516 c 0,46,47
 872 1516 872 1516 986.5 1478.5 c 128,-1,48
 1101 1441 1101 1441 1176 1360.5 c 128,-1,49
 1251 1280 1251 1280 1251 1170 c 0,50,51
 1251 1102 1251 1102 1224 1038.5 c 128,-1,52
 1197 975 1197 975 1146 920 c 128,-1,53
 1095 865 1095 865 1041 822 c 128,-1,54
 987 779 987 779 914 732 c 1,55,56
 1035 601 1035 601 1187 452 c 1,57,58
 1239 508 1239 508 1252 554 c 1,59,60
 1247 555 1247 555 1226.5 558.5 c 128,-1,61
 1206 562 1206 562 1200.5 564 c 128,-1,62
 1195 566 1195 566 1181.5 574 c 128,-1,63
 1168 582 1168 582 1163.5 593 c 128,-1,64
 1159 604 1159 604 1154.5 624 c 128,-1,65
 1150 644 1150 644 1150 672 c 0,66,67
 1150 737 1150 737 1158 809 c 1,68,-1
 1170 814 l 1,69,70
 1523 821 1523 821 1636 821 c 0,71,72
 1654 821 1654 821 1664.5 779.5 c 128,-1,73
 1675 738 1675 738 1675 691 c 0,74,75
 1675 630 1675 630 1663 584 c 1,76,77
 1580 570 1580 570 1503 543 c 1,0,1
632 1150 m 0,78,79
 632 1091 632 1091 716 971 c 1,80,81
 798 1011 798 1011 842.5 1059 c 128,-1,82
 887 1107 887 1107 887 1173 c 0,83,84
 887 1223 887 1223 852.5 1247.5 c 128,-1,85
 818 1272 818 1272 763 1272 c 0,86,87
 709 1272 709 1272 670.5 1237 c 128,-1,88
 632 1202 632 1202 632 1150 c 0,78,79
756 264 m 0,89,90
 820 264 820 264 885 280 c 1,91,92
 703 444 703 444 607 540 c 1,93,94
 530 481 530 481 530 435 c 0,95,96
 530 346 530 346 591.5 305 c 128,-1,97
 653 264 653 264 756 264 c 0,89,90
EndSplineSet
EndChar

StartChar: quotesingle
Encoding: 39 39 10
Width: 612
GlyphClass: 2
Flags: W
LayerCount: 2
Fore
SplineSet
113 978 m 0,0,1
 113 992 113 992 131 1014 c 128,-1,2
 149 1036 149 1036 170.5 1055.5 c 128,-1,3
 192 1075 192 1075 210 1100 c 128,-1,4
 228 1125 228 1125 228 1145 c 0,5,6
 228 1156 228 1156 202 1167 c 128,-1,7
 176 1178 176 1178 145.5 1191.5 c 128,-1,8
 115 1205 115 1205 89 1245.5 c 128,-1,9
 63 1286 63 1286 63 1347 c 0,10,11
 63 1449 63 1449 131 1512 c 128,-1,12
 199 1575 199 1575 309 1575 c 0,13,14
 413 1575 413 1575 485.5 1506 c 128,-1,15
 558 1437 558 1437 558 1337 c 0,16,17
 558 1277 558 1277 527 1204.5 c 128,-1,18
 496 1132 496 1132 446.5 1069.5 c 128,-1,19
 397 1007 397 1007 329 965 c 128,-1,20
 261 923 261 923 195 923 c 0,21,22
 158 923 158 923 135.5 940 c 128,-1,23
 113 957 113 957 113 978 c 0,0,1
EndSplineSet
EndChar

StartChar: parenleft
Encoding: 40 40 11
Width: 710
GlyphClass: 2
Flags: W
LayerCount: 2
Fore
SplineSet
435 771 m 0,0,1
 435 535 435 535 492 373 c 128,-1,2
 549 211 549 211 669 88 c 1,3,4
 670 83 670 83 670 73 c 0,5,6
 670 14 670 14 609 -47 c 128,-1,7
 548 -108 548 -108 470 -138 c 1,8,9
 340 -69 340 -69 244.5 74.5 c 128,-1,10
 149 218 149 218 101.5 396 c 128,-1,11
 54 574 54 574 54 765 c 128,-1,12
 54 956 54 956 101.5 1134 c 128,-1,13
 149 1312 149 1312 244.5 1455.5 c 128,-1,14
 340 1599 340 1599 470 1668 c 1,15,16
 548 1638 548 1638 609 1577 c 128,-1,17
 670 1516 670 1516 670 1457 c 0,18,19
 670 1447 670 1447 669 1442 c 1,20,21
 550 1320 550 1320 492.5 1160.5 c 128,-1,22
 435 1001 435 1001 435 771 c 0,0,1
EndSplineSet
EndChar

StartChar: parenright
Encoding: 41 41 12
Width: 719
GlyphClass: 2
Flags: W
LayerCount: 2
Fore
SplineSet
282 771 m 0,0,1
 282 1001 282 1001 224.5 1160.5 c 128,-1,2
 167 1320 167 1320 48 1442 c 1,3,4
 47 1447 47 1447 47 1457 c 0,5,6
 47 1516 47 1516 108 1577 c 128,-1,7
 169 1638 169 1638 247 1668 c 1,8,9
 377 1599 377 1599 472.5 1455.5 c 128,-1,10
 568 1312 568 1312 615.5 1134 c 128,-1,11
 663 956 663 956 663 765 c 128,-1,12
 663 574 663 574 615.5 396 c 128,-1,13
 568 218 568 218 472.5 74.5 c 128,-1,14
 377 -69 377 -69 247 -138 c 1,15,16
 169 -108 169 -108 108 -47 c 128,-1,17
 47 14 47 14 47 73 c 0,18,19
 47 82 47 82 48 88 c 1,20,21
 168 211 168 211 225 373 c 128,-1,22
 282 535 282 535 282 771 c 0,0,1
EndSplineSet
EndChar

StartChar: asterisk
Encoding: 42 42 13
Width: 1178
GlyphClass: 2
Flags: W
LayerCount: 2
Fore
SplineSet
267 1063 m 1,0,-1
 459 949 l 1,1,-1
 404 1164 l 2,2,3
 402 1172 402 1172 402 1188 c 0,4,5
 402 1252 402 1252 458 1298.5 c 128,-1,6
 514 1345 514 1345 585 1345 c 128,-1,7
 656 1345 656 1345 712 1298.5 c 128,-1,8
 768 1252 768 1252 768 1188 c 0,9,10
 768 1180 768 1180 766 1164 c 1,11,-1
 711 949 l 1,12,-1
 903 1063 l 1,13,14
 937 1080 937 1080 966 1080 c 0,15,16
 1032 1080 1032 1080 1082.5 1025 c 128,-1,17
 1133 970 1133 970 1133 898 c 0,18,19
 1133 840 1133 840 1100 794 c 128,-1,20
 1067 748 1067 748 1012 741 c 1,21,-1
 780 722 l 1,22,-1
 966 584 l 1,23,-1
 983 567 l 1,24,25
 1014 529 1014 529 1014 476 c 0,26,27
 1014 399 1014 399 956 341 c 128,-1,28
 898 283 898 283 817 283 c 0,29,30
 777 283 777 283 741.5 300 c 128,-1,31
 706 317 706 317 690 350 c 2,32,-1
 584 576 l 1,33,-1
 478 350 l 2,34,35
 463 319 463 319 426 301 c 128,-1,36
 389 283 389 283 351 283 c 0,37,38
 270 283 270 283 212 340.5 c 128,-1,39
 154 398 154 398 154 476 c 0,40,41
 154 529 154 529 185 567 c 1,42,-1
 202 584 l 1,43,-1
 388 722 l 1,44,-1
 158 741 l 1,45,46
 102 749 102 749 69 794.5 c 128,-1,47
 36 840 36 840 36 898 c 0,48,49
 36 970 36 970 87 1025 c 128,-1,50
 138 1080 138 1080 204 1080 c 0,51,52
 236 1080 236 1080 267 1063 c 1,0,-1
EndSplineSet
EndChar

StartChar: plus
Encoding: 43 43 14
Width: 942
GlyphClass: 2
Flags: W
LayerCount: 2
Fore
SplineSet
721 831 m 0,0,1
 825 831 825 831 864 834 c 1,2,3
 900 820 900 820 900 749 c 0,4,5
 900 644 900 644 845 644 c 1,6,7
 839 646 839 646 772.5 647.5 c 128,-1,8
 706 649 706 649 642 650 c 1,9,-1
 578 650 l 1,10,-1
 565 650 l 1,11,12
 566 576 566 576 566 416 c 0,13,14
 566 379 566 379 569 347 c 1,15,16
 553 310 553 310 484 310 c 0,17,18
 379 310 379 310 379 365 c 1,19,20
 381 371 381 371 382.5 438 c 128,-1,21
 384 505 384 505 384 568 c 2,22,-1
 385 632 l 1,23,-1
 385 648 l 1,24,-1
 367 648 l 1,25,26
 113 647 113 647 100 642 c 1,27,28
 45 642 45 642 45 747 c 0,29,30
 45 818 45 818 81 832 c 1,31,32
 120 829 120 829 224 829 c 2,33,-1
 383 829 l 1,34,-1
 383 843 l 1,35,36
 382 1097 382 1097 377 1110 c 1,37,38
 377 1135 377 1135 403.5 1150.5 c 128,-1,39
 430 1166 430 1166 482 1166 c 0,40,41
 551 1166 551 1166 567 1129 c 1,42,43
 564 1090 564 1090 564 986 c 2,44,-1
 564 830 l 1,45,46
 648 831 648 831 721 831 c 0,0,1
EndSplineSet
EndChar

StartChar: comma
Encoding: 44 44 15
Width: 611
GlyphClass: 2
Flags: W
LayerCount: 2
Fore
SplineSet
108 -155 m 0,0,1
 108 -137 108 -137 137 -107.5 c 128,-1,2
 166 -78 166 -78 194.5 -45.5 c 128,-1,3
 223 -13 223 -13 223 12 c 0,4,5
 223 21 223 21 206 29 c 128,-1,6
 189 37 189 37 164.5 47.5 c 128,-1,7
 140 58 140 58 116 75 c 128,-1,8
 92 92 92 92 75 128 c 128,-1,9
 58 164 58 164 58 214 c 0,10,11
 58 316 58 316 126 379 c 128,-1,12
 194 442 194 442 304 442 c 0,13,14
 408 442 408 442 480.5 373 c 128,-1,15
 553 304 553 304 553 204 c 0,16,17
 553 144 553 144 522 71.5 c 128,-1,18
 491 -1 491 -1 441.5 -63.5 c 128,-1,19
 392 -126 392 -126 324 -168 c 128,-1,20
 256 -210 256 -210 190 -210 c 0,21,22
 153 -210 153 -210 130.5 -193 c 128,-1,23
 108 -176 108 -176 108 -155 c 0,0,1
EndSplineSet
EndChar

StartChar: hyphen
Encoding: 45 45 16
Width: 963
GlyphClass: 2
Flags: W
LayerCount: 2
Fore
SplineSet
136 567 m 1,0,1
 68 567 68 567 68 679 c 0,2,3
 68 804 68 804 120 876.5 c 128,-1,4
 172 949 172 949 284 949 c 0,5,6
 326 949 326 949 426.5 938.5 c 128,-1,7
 527 928 527 928 585 928 c 0,8,9
 633 928 633 928 717 937 c 128,-1,10
 801 946 801 946 821 946 c 0,11,12
 858 946 858 946 873.5 936.5 c 128,-1,13
 889 927 889 927 889 901 c 0,14,15
 889 857 889 857 886.5 822 c 128,-1,16
 884 787 884 787 877 747 c 128,-1,17
 870 707 870 707 856 677 c 128,-1,18
 842 647 842 647 821 622 c 128,-1,19
 800 597 800 597 767 584 c 128,-1,20
 734 571 734 571 692 571 c 0,21,22
 642 571 642 571 533 578 c 128,-1,23
 424 585 424 585 373 585 c 0,24,25
 226 585 226 585 136 567 c 1,0,1
EndSplineSet
EndChar

StartChar: period
Encoding: 46 46 17
Width: 637
GlyphClass: 2
Flags: W
LayerCount: 2
Fore
SplineSet
62 209 m 0,0,1
 62 308 62 308 128.5 376 c 128,-1,2
 195 444 195 444 323 444 c 0,3,4
 388 444 388 444 438.5 424 c 128,-1,5
 489 404 489 404 518 370 c 128,-1,6
 547 336 547 336 561.5 295.5 c 128,-1,7
 576 255 576 255 576 209 c 0,8,9
 576 112 576 112 512.5 43 c 128,-1,10
 449 -26 449 -26 323 -26 c 0,11,12
 195 -26 195 -26 128.5 42.5 c 128,-1,13
 62 111 62 111 62 209 c 0,0,1
EndSplineSet
EndChar

StartChar: slash
Encoding: 47 47 18
Width: 1011
GlyphClass: 2
Flags: W
LayerCount: 2
Fore
SplineSet
43 153 m 0,0,1
 97 285 97 285 330 822 c 128,-1,2
 563 1359 563 1359 622 1510 c 0,3,4
 652 1587 652 1587 768 1587 c 0,5,6
 882 1587 882 1587 931.5 1567 c 128,-1,7
 981 1547 981 1547 981 1506 c 0,8,9
 981 1493 981 1493 976.5 1479 c 128,-1,10
 972 1465 972 1465 960 1437.5 c 128,-1,11
 948 1410 948 1410 944 1400 c 0,12,13
 735 867 735 867 430 139 c 0,14,15
 416 107 416 107 409 92.5 c 128,-1,16
 402 78 402 78 387.5 56.5 c 128,-1,17
 373 35 373 35 357 26 c 128,-1,18
 341 17 341 17 315 10 c 128,-1,19
 289 3 289 3 254 3 c 0,20,21
 221 3 221 3 186.5 8.5 c 128,-1,22
 152 14 152 14 116.5 25.5 c 128,-1,23
 81 37 81 37 58.5 61 c 128,-1,24
 36 85 36 85 36 117 c 0,25,26
 36 135 36 135 43 153 c 0,0,1
EndSplineSet
EndChar

StartChar: zero
Encoding: 48 48 19
Width: 1827
GlyphClass: 2
Flags: W
LayerCount: 2
Fore
SplineSet
927 -29 m 0,0,1
 792 -29 792 -29 665 3.5 c 128,-1,2
 538 36 538 36 429 102 c 128,-1,3
 320 168 320 168 238.5 259.5 c 128,-1,4
 157 351 157 351 110.5 477 c 128,-1,5
 64 603 64 603 64 748 c 0,6,7
 64 925 64 925 129 1070 c 128,-1,8
 194 1215 194 1215 310 1312 c 128,-1,9
 426 1409 426 1409 585.5 1462 c 128,-1,10
 745 1515 745 1515 934 1515 c 0,11,12
 1120 1515 1120 1515 1278.5 1457.5 c 128,-1,13
 1437 1400 1437 1400 1545.5 1299 c 128,-1,14
 1654 1198 1654 1198 1715 1058.5 c 128,-1,15
 1776 919 1776 919 1776 758 c 0,16,17
 1776 590 1776 590 1709.5 443 c 128,-1,18
 1643 296 1643 296 1529 193 c 128,-1,19
 1415 90 1415 90 1258.5 30.5 c 128,-1,20
 1102 -29 1102 -29 927 -29 c 0,0,1
914 199 m 0,21,22
 950 199 950 199 978 224 c 128,-1,23
 1006 249 1006 249 1024 294 c 128,-1,24
 1042 339 1042 339 1054.5 392 c 128,-1,25
 1067 445 1067 445 1073 511 c 128,-1,26
 1079 577 1079 577 1081.5 633 c 128,-1,27
 1084 689 1084 689 1084 750 c 0,28,29
 1084 1283 1084 1283 919 1283 c 0,30,31
 882 1283 882 1283 853 1260.5 c 128,-1,32
 824 1238 824 1238 806 1195.5 c 128,-1,33
 788 1153 788 1153 775.5 1104 c 128,-1,34
 763 1055 763 1055 757 990.5 c 128,-1,35
 751 926 751 926 749 871.5 c 128,-1,36
 747 817 747 817 747 751 c 0,37,38
 747 653 747 653 753.5 566.5 c 128,-1,39
 760 480 760 480 777 391.5 c 128,-1,40
 794 303 794 303 829 251 c 128,-1,41
 864 199 864 199 914 199 c 0,21,22
EndSplineSet
EndChar

StartChar: one
Encoding: 49 49 20
Width: 994
GlyphClass: 2
Flags: W
LayerCount: 2
Fore
SplineSet
236 555 m 2,0,-1
 236 1089 l 2,1,2
 236 1121 236 1121 214.5 1136 c 128,-1,3
 193 1151 193 1151 162.5 1154.5 c 128,-1,4
 132 1158 132 1158 101.5 1161.5 c 128,-1,5
 71 1165 71 1165 49.5 1182.5 c 128,-1,6
 28 1200 28 1200 28 1236 c 0,7,8
 28 1299 28 1299 55.5 1389.5 c 128,-1,9
 83 1480 83 1480 116 1502 c 1,10,11
 321 1489 321 1489 448 1489 c 0,12,13
 528 1489 528 1489 619.5 1501.5 c 128,-1,14
 711 1514 711 1514 732 1516 c 1,15,16
 801 1516 801 1516 801 1442 c 2,17,-1
 801 575 l 2,18,19
 801 520 801 520 803.5 481.5 c 128,-1,20
 806 443 806 443 813.5 396.5 c 128,-1,21
 821 350 821 350 839 323.5 c 128,-1,22
 857 297 857 297 885 294 c 1,23,24
 903 291 903 291 912.5 288.5 c 128,-1,25
 922 286 922 286 935.5 279 c 128,-1,26
 949 272 949 272 955 259 c 128,-1,27
 961 246 961 246 961 227 c 0,28,29
 961 152 961 152 940.5 72 c 128,-1,30
 920 -8 920 -8 883 -27 c 1,31,32
 738 0 738 0 564 0 c 0,33,34
 330 0 330 0 155 -27 c 1,35,36
 118 -8 118 -8 97.5 72 c 128,-1,37
 77 152 77 152 77 227 c 0,38,39
 77 246 77 246 83 259 c 128,-1,40
 89 272 89 272 102.5 279 c 128,-1,41
 116 286 116 286 125.5 288.5 c 128,-1,42
 135 291 135 291 153 294 c 0,43,44
 179 297 179 297 196.5 319.5 c 128,-1,45
 214 342 214 342 222 382.5 c 128,-1,46
 230 423 230 423 233 462 c 128,-1,47
 236 501 236 501 236 555 c 2,0,-1
EndSplineSet
EndChar

StartChar: two
Encoding: 50 50 21
Width: 1496
GlyphClass: 2
Flags: W
LayerCount: 2
Fore
SplineSet
181 1456 m 1,0,1
 277 1482 277 1482 445.5 1498 c 128,-1,2
 614 1514 614 1514 802 1514 c 0,3,4
 890 1514 890 1514 972.5 1503.5 c 128,-1,5
 1055 1493 1055 1493 1135 1467.5 c 128,-1,6
 1215 1442 1215 1442 1274 1404 c 128,-1,7
 1333 1366 1333 1366 1369.5 1305.5 c 128,-1,8
 1406 1245 1406 1245 1406 1170 c 0,9,10
 1406 1082 1406 1082 1374 998 c 128,-1,11
 1342 914 1342 914 1295.5 850.5 c 128,-1,12
 1249 787 1249 787 1178 718 c 128,-1,13
 1107 649 1107 649 1047 602.5 c 128,-1,14
 987 556 987 556 908 494.5 c 128,-1,15
 829 433 829 433 786 395 c 1,16,-1
 834 395 l 2,17,18
 873 395 873 395 900.5 396.5 c 128,-1,19
 928 398 928 398 976 408 c 128,-1,20
 1024 418 1024 418 1059.5 435.5 c 128,-1,21
 1095 453 1095 453 1132.5 489 c 128,-1,22
 1170 525 1170 525 1193 575 c 1,23,24
 1271 609 1271 609 1327 609 c 0,25,26
 1343 609 1343 609 1364.5 604 c 128,-1,27
 1386 599 1386 599 1409 589 c 128,-1,28
 1432 579 1432 579 1448 559 c 128,-1,29
 1464 539 1464 539 1464 513 c 0,30,31
 1464 440 1464 440 1408 285.5 c 128,-1,32
 1352 131 1352 131 1313 59 c 1,33,34
 1229 -2 1229 -2 530 -2 c 0,35,36
 448 -2 448 -2 321.5 -1 c 128,-1,37
 195 0 195 0 159 0 c 1,38,39
 125 12 125 12 89 66.5 c 128,-1,40
 53 121 53 121 49 173 c 1,41,42
 50 188 50 188 61.5 211 c 128,-1,43
 73 234 73 234 98 266.5 c 128,-1,44
 123 299 123 299 145.5 326.5 c 128,-1,45
 168 354 168 354 208 397.5 c 128,-1,46
 248 441 248 441 272 467.5 c 128,-1,47
 296 494 296 494 341.5 541.5 c 128,-1,48
 387 589 387 589 405 608 c 0,49,50
 542 753 542 753 635 898 c 128,-1,51
 728 1043 728 1043 728 1155 c 0,52,53
 728 1291 728 1291 642 1291 c 0,54,55
 596 1291 596 1291 528 1248 c 128,-1,56
 460 1205 460 1205 402.5 1149.5 c 128,-1,57
 345 1094 345 1094 303 1049 c 128,-1,58
 261 1004 261 1004 256 994 c 1,59,60
 196 994 196 994 116.5 1027 c 128,-1,61
 37 1060 37 1060 37 1095 c 0,62,63
 37 1214 37 1214 82 1317 c 128,-1,64
 127 1420 127 1420 181 1456 c 1,0,1
EndSplineSet
EndChar

StartChar: three
Encoding: 51 51 22
Width: 1552
GlyphClass: 2
Flags: W
LayerCount: 2
Fore
SplineSet
262 12 m 1,0,1
 191 47 191 47 118 139 c 128,-1,2
 45 231 45 231 45 304 c 0,3,4
 45 358 45 358 115.5 409 c 128,-1,5
 186 460 186 460 249 460 c 0,6,7
 255 460 255 460 284.5 437 c 128,-1,8
 314 414 314 414 353 387 c 128,-1,9
 392 360 392 360 465.5 337 c 128,-1,10
 539 314 539 314 622 314 c 0,11,12
 880 314 880 314 880 497 c 0,13,14
 880 577 880 577 829 631.5 c 128,-1,15
 778 686 778 686 709 691 c 0,16,17
 649 695 649 695 616 695 c 0,18,19
 582 695 582 695 521 692 c 128,-1,20
 460 689 460 689 440 689 c 1,21,22
 417 691 417 691 405.5 719.5 c 128,-1,23
 394 748 394 748 394 820 c 0,24,25
 394 925 394 925 449 950 c 1,26,27
 478 947 478 947 506 947 c 0,28,29
 675 948 675 948 753 995.5 c 128,-1,30
 831 1043 831 1043 831 1123 c 0,31,32
 831 1192 831 1192 788 1238.5 c 128,-1,33
 745 1285 745 1285 684 1285 c 128,-1,34
 623 1285 623 1285 570 1258 c 128,-1,35
 517 1231 517 1231 482 1192.5 c 128,-1,36
 447 1154 447 1154 418.5 1116 c 128,-1,37
 390 1078 390 1078 366 1051 c 128,-1,38
 342 1024 342 1024 323 1024 c 0,39,40
 235 1024 235 1024 169.5 1060 c 128,-1,41
 104 1096 104 1096 104 1125 c 0,42,43
 104 1268 104 1268 186 1380.5 c 128,-1,44
 268 1493 268 1493 366 1503 c 0,45,46
 483 1514 483 1514 820 1514 c 0,47,48
 928 1514 928 1514 1015 1495.5 c 128,-1,49
 1102 1477 1102 1477 1160 1445 c 128,-1,50
 1218 1413 1218 1413 1257 1370 c 128,-1,51
 1296 1327 1296 1327 1313 1280 c 128,-1,52
 1330 1233 1330 1233 1330 1181 c 0,53,54
 1330 1086 1330 1086 1268.5 1004 c 128,-1,55
 1207 922 1207 922 1110 895 c 1,56,57
 1219 886 1219 886 1312 823 c 128,-1,58
 1405 760 1405 760 1456.5 671.5 c 128,-1,59
 1508 583 1508 583 1508 494 c 0,60,61
 1508 365 1508 365 1449.5 264 c 128,-1,62
 1391 163 1391 163 1288.5 100.5 c 128,-1,63
 1186 38 1186 38 1052.5 5.5 c 128,-1,64
 919 -27 919 -27 763 -27 c 0,65,66
 533 -27 533 -27 262 12 c 1,0,1
EndSplineSet
EndChar

StartChar: four
Encoding: 52 52 23
Width: 1718
GlyphClass: 2
Flags: W
LayerCount: 2
Fore
SplineSet
721 835 m 1,0,1
 723 885 723 885 723 1055 c 2,2,-1
 723 1072 l 2,3,4
 723 1197 723 1197 725 1233 c 1,5,6
 717 1229 717 1229 704.5 1214.5 c 128,-1,7
 692 1200 692 1200 667.5 1170.5 c 128,-1,8
 643 1141 643 1141 627 1122 c 0,9,10
 532 1013 532 1013 463 884 c 0,11,12
 451 862 451 862 451 854 c 0,13,14
 451 840 451 840 487.5 836 c 128,-1,15
 524 832 524 832 605 832 c 0,16,17
 685 832 685 832 721 835 c 1,0,1
734 495 m 1,18,19
 704 495 704 495 614.5 494 c 128,-1,20
 525 493 525 493 496 493 c 2,21,-1
 468 493 l 2,22,23
 380 493 380 493 332.5 494 c 128,-1,24
 285 495 285 495 223.5 503.5 c 128,-1,25
 162 512 162 512 133 529 c 1,26,27
 93 568 93 568 69 649.5 c 128,-1,28
 45 731 45 731 45 765 c 0,29,30
 45 786 45 786 57 812 c 1,31,32
 97 882 97 882 147 950 c 128,-1,33
 197 1018 197 1018 257.5 1085 c 128,-1,34
 318 1152 318 1152 367 1202.5 c 128,-1,35
 416 1253 416 1253 491.5 1327.5 c 128,-1,36
 567 1402 567 1402 609 1445 c 1,37,38
 634 1466 634 1466 682 1476 c 128,-1,39
 730 1486 730 1486 765.5 1487 c 128,-1,40
 801 1488 801 1488 876 1488 c 2,41,-1
 1198 1489 l 2,42,43
 1319 1489 1319 1489 1319 1416 c 1,44,45
 1300 1144 1300 1144 1300 951 c 2,46,-1
 1300 859 l 2,47,48
 1300 839 1300 839 1318 839 c 2,49,-1
 1383 839 l 2,50,51
 1418 839 1418 839 1489.5 844 c 128,-1,52
 1561 849 1561 849 1591 849 c 0,53,54
 1634 849 1634 849 1652 825.5 c 128,-1,55
 1670 802 1670 802 1675 753 c 1,56,57
 1674 678 1674 678 1656.5 627 c 128,-1,58
 1639 576 1639 576 1590 542 c 1,59,60
 1522 520 1522 520 1471.5 514 c 128,-1,61
 1421 508 1421 508 1299 505 c 1,62,63
 1299 464 1299 464 1301.5 435 c 128,-1,64
 1304 406 1304 406 1311.5 371.5 c 128,-1,65
 1319 337 1319 337 1337 317 c 128,-1,66
 1355 297 1355 297 1383 294 c 1,67,68
 1401 291 1401 291 1410.5 288.5 c 128,-1,69
 1420 286 1420 286 1433.5 279 c 128,-1,70
 1447 272 1447 272 1453 259 c 128,-1,71
 1459 246 1459 246 1459 227 c 0,72,73
 1459 152 1459 152 1438.5 72 c 128,-1,74
 1418 -8 1418 -8 1381 -27 c 1,75,76
 1236 0 1236 0 1062 0 c 0,77,78
 828 0 828 0 653 -27 c 1,79,80
 616 -8 616 -8 595.5 72 c 128,-1,81
 575 152 575 152 575 227 c 0,82,83
 575 246 575 246 581 259 c 128,-1,84
 587 272 587 272 600.5 279 c 128,-1,85
 614 286 614 286 623.5 288.5 c 128,-1,86
 633 291 633 291 651 294 c 0,87,88
 677 297 677 297 694.5 315 c 128,-1,89
 712 333 712 333 720 364 c 128,-1,90
 728 395 728 395 731 424.5 c 128,-1,91
 734 454 734 454 734 495 c 1,18,19
EndSplineSet
EndChar

StartChar: five
Encoding: 53 53 24
Width: 1583
GlyphClass: 2
Flags: W
LayerCount: 2
Fore
SplineSet
327 3 m 1,0,1
 292 20 292 20 246.5 50 c 128,-1,2
 201 80 201 80 153.5 120.5 c 128,-1,3
 106 161 106 161 73.5 210.5 c 128,-1,4
 41 260 41 260 41 304 c 0,5,6
 41 362 41 362 113 411 c 128,-1,7
 185 460 185 460 247 460 c 1,8,9
 267 446 267 446 301 419 c 128,-1,10
 335 392 335 392 352 381.5 c 128,-1,11
 369 371 369 371 404 355 c 128,-1,12
 439 339 439 339 486 330 c 128,-1,13
 533 321 533 321 602 314 c 1,14,15
 915 314 915 314 915 499 c 0,16,17
 915 548 915 548 892.5 580.5 c 128,-1,18
 870 613 870 613 824 630 c 128,-1,19
 778 647 778 647 722 653.5 c 128,-1,20
 666 660 666 660 585 660 c 0,21,22
 528 660 528 660 428 634.5 c 128,-1,23
 328 609 328 609 275 609 c 0,24,25
 202 609 202 609 176 622 c 128,-1,26
 150 635 150 635 148 657 c 1,27,28
 148 725 148 725 153 875 c 128,-1,29
 158 1025 158 1025 158 1094 c 0,30,31
 158 1118 158 1118 157.5 1159 c 128,-1,32
 157 1200 157 1200 157 1217 c 0,33,34
 157 1271 157 1271 158 1303.5 c 128,-1,35
 159 1336 159 1336 164.5 1375 c 128,-1,36
 170 1414 170 1414 180.5 1436.5 c 128,-1,37
 191 1459 191 1459 210 1477.5 c 128,-1,38
 229 1496 229 1496 257 1503 c 1,39,40
 484 1489 484 1489 727 1489 c 0,41,42
 1224 1489 1224 1489 1342 1516 c 1,43,44
 1365 1482 1365 1482 1406.5 1338.5 c 128,-1,45
 1448 1195 1448 1195 1448 1107 c 0,46,47
 1448 1072 1448 1072 1418 1047.5 c 128,-1,48
 1388 1023 1388 1023 1347.5 1013 c 128,-1,49
 1307 1003 1307 1003 1262 1003 c 0,50,51
 1259 1003 1259 1003 1248 1024.5 c 128,-1,52
 1237 1046 1237 1046 1217.5 1076 c 128,-1,53
 1198 1106 1198 1106 1171.5 1136.5 c 128,-1,54
 1145 1167 1145 1167 1103.5 1188.5 c 128,-1,55
 1062 1210 1062 1210 1015 1210 c 0,56,57
 698 1210 698 1210 590 1201 c 1,58,59
 568 1133 568 1133 568 1020 c 0,60,61
 568 926 568 926 574 914 c 1,62,63
 714 971 714 971 935 971 c 0,64,65
 1219 971 1219 971 1377.5 833 c 128,-1,66
 1536 695 1536 695 1536 475 c 0,67,68
 1536 313 1536 313 1445.5 198.5 c 128,-1,69
 1355 84 1355 84 1200 29 c 128,-1,70
 1045 -26 1045 -26 840 -26 c 0,71,72
 653 -26 653 -26 559 -21 c 128,-1,73
 465 -16 465 -16 327 3 c 1,0,1
EndSplineSet
EndChar

StartChar: six
Encoding: 54 54 25
Width: 1739
GlyphClass: 2
Flags: W
LayerCount: 2
Fore
SplineSet
986 1303 m 128,-1,1
 924 1303 924 1303 877.5 1264 c 128,-1,2
 831 1225 831 1225 806 1159.5 c 128,-1,3
 781 1094 781 1094 769 1019.5 c 128,-1,4
 757 945 757 945 757 862 c 2,5,-1
 757 835 l 1,6,7
 908 927 908 927 1116 927 c 0,8,9
 1196 927 1196 927 1275 913 c 128,-1,10
 1354 899 1354 899 1430 867 c 128,-1,11
 1506 835 1506 835 1564 788 c 128,-1,12
 1622 741 1622 741 1657.5 670 c 128,-1,13
 1693 599 1693 599 1693 512 c 0,14,15
 1693 397 1693 397 1650 305 c 128,-1,16
 1607 213 1607 213 1533.5 152 c 128,-1,17
 1460 91 1460 91 1357.5 50 c 128,-1,18
 1255 9 1255 9 1141 -9 c 128,-1,19
 1027 -27 1027 -27 897 -27 c 1,20,21
 691 -24 691 -24 532 29 c 128,-1,22
 373 82 373 82 273.5 175.5 c 128,-1,23
 174 269 174 269 124 393 c 128,-1,24
 74 517 74 517 74 667 c 0,25,26
 74 847 74 847 132 1000 c 128,-1,27
 190 1153 190 1153 301 1268.5 c 128,-1,28
 412 1384 412 1384 588 1450 c 128,-1,29
 764 1516 764 1516 986 1516 c 0,30,31
 1307 1516 1307 1516 1392 1486 c 1,32,33
 1465 1451 1465 1451 1525.5 1348 c 128,-1,34
 1586 1245 1586 1245 1586 1125 c 0,35,36
 1586 1090 1586 1090 1507 1057 c 128,-1,37
 1428 1024 1428 1024 1367 1024 c 0,38,39
 1354 1024 1354 1024 1336 1044.5 c 128,-1,40
 1318 1065 1318 1065 1300 1096 c 128,-1,41
 1282 1127 1282 1127 1252 1163.5 c 128,-1,42
 1222 1200 1222 1200 1188 1231 c 128,-1,43
 1154 1262 1154 1262 1101 1282.5 c 128,-1,0
 1048 1303 1048 1303 986 1303 c 128,-1,1
918 692 m 0,44,45
 883 692 883 692 855.5 683 c 128,-1,46
 828 674 828 674 810.5 662 c 128,-1,47
 793 650 793 650 780.5 626 c 128,-1,48
 768 602 768 602 761.5 583.5 c 128,-1,49
 755 565 755 565 752 531.5 c 128,-1,50
 749 498 749 498 748.5 478 c 128,-1,51
 748 458 748 458 748 421 c 0,52,53
 748 294 748 294 795 234.5 c 128,-1,54
 842 175 842 175 910 175 c 0,55,56
 958 175 958 175 993.5 194.5 c 128,-1,57
 1029 214 1029 214 1047.5 241.5 c 128,-1,58
 1066 269 1066 269 1077 311.5 c 128,-1,59
 1088 354 1088 354 1090.5 388 c 128,-1,60
 1093 422 1093 422 1093 466 c 0,61,62
 1093 578 1093 578 1044 635 c 128,-1,63
 995 692 995 692 918 692 c 0,44,45
EndSplineSet
EndChar

StartChar: seven
Encoding: 55 55 26
Width: 1517
GlyphClass: 2
Flags: W
LayerCount: 2
Fore
SplineSet
1076 173 m 2,0,1
 1076 132 1076 132 1062.5 100 c 128,-1,2
 1049 68 1049 68 1030 47 c 128,-1,3
 1011 26 1011 26 976 11.5 c 128,-1,4
 941 -3 941 -3 912 -10.5 c 128,-1,5
 883 -18 883 -18 834.5 -22 c 128,-1,6
 786 -26 786 -26 755.5 -26.5 c 128,-1,7
 725 -27 725 -27 673 -27 c 0,8,9
 310 -27 310 -27 310 187 c 0,10,11
 310 295 310 295 351.5 420 c 128,-1,12
 393 545 393 545 457 656.5 c 128,-1,13
 521 768 521 768 600 874.5 c 128,-1,14
 679 981 679 981 752 1058.5 c 128,-1,15
 825 1136 825 1136 887 1186 c 1,16,-1
 543 1186 l 2,17,18
 489 1186 489 1186 438 1165 c 128,-1,19
 387 1144 387 1144 351 1114.5 c 128,-1,20
 315 1085 315 1085 285.5 1055 c 128,-1,21
 256 1025 256 1025 236 1004 c 128,-1,22
 216 983 216 983 207 983 c 0,23,24
 178 983 178 983 149 988 c 128,-1,25
 120 993 120 993 91.5 1004 c 128,-1,26
 63 1015 63 1015 45 1036.5 c 128,-1,27
 27 1058 27 1058 27 1086 c 0,28,29
 27 1297 27 1297 133 1516 c 1,30,31
 403 1488 403 1488 708 1488 c 0,32,33
 1060 1488 1060 1488 1435 1516 c 0,34,35
 1448 1516 1448 1516 1464 1502 c 128,-1,36
 1480 1488 1480 1488 1480 1474 c 2,37,-1
 1480 1338 l 2,38,39
 1480 1261 1480 1261 1439 1215 c 0,40,41
 985 713 985 713 985 359 c 0,42,43
 985 318 985 318 994.5 293 c 128,-1,44
 1004 268 1004 268 1017 260.5 c 128,-1,45
 1030 253 1030 253 1043.5 251.5 c 128,-1,46
 1057 250 1057 250 1066.5 248 c 128,-1,47
 1076 246 1076 246 1076 239 c 2,48,-1
 1076 173 l 2,0,1
EndSplineSet
EndChar

StartChar: eight
Encoding: 56 56 27
Width: 1744
GlyphClass: 2
Flags: W
LayerCount: 2
Fore
SplineSet
1587 1167 m 0,0,1
 1587 1103 1587 1103 1564.5 1047.5 c 128,-1,2
 1542 992 1542 992 1501.5 949.5 c 128,-1,3
 1461 907 1461 907 1416 875.5 c 128,-1,4
 1371 844 1371 844 1313 816 c 1,5,6
 1690 723 1690 723 1690 437 c 0,7,8
 1690 346 1690 346 1655.5 272 c 128,-1,9
 1621 198 1621 198 1559 148.5 c 128,-1,10
 1497 99 1497 99 1419 63.5 c 128,-1,11
 1341 28 1341 28 1244.5 8.5 c 128,-1,12
 1148 -11 1148 -11 1055.5 -19.5 c 128,-1,13
 963 -28 963 -28 862 -28 c 0,14,15
 788 -28 788 -28 720 -24 c 128,-1,16
 652 -20 652 -20 568.5 -8 c 128,-1,17
 485 4 485 4 415 24 c 128,-1,18
 345 44 345 44 276.5 79 c 128,-1,19
 208 114 208 114 160.5 160 c 128,-1,20
 113 206 113 206 83.5 273.5 c 128,-1,21
 54 341 54 341 54 424 c 0,22,23
 54 732 54 732 463 823 c 1,24,25
 142 908 142 908 142 1134 c 0,26,27
 142 1204 142 1204 169.5 1262 c 128,-1,28
 197 1320 197 1320 241 1358.5 c 128,-1,29
 285 1397 285 1397 348.5 1426.5 c 128,-1,30
 412 1456 412 1456 476 1472.5 c 128,-1,31
 540 1489 540 1489 616.5 1499.5 c 128,-1,32
 693 1510 693 1510 753 1513 c 128,-1,33
 813 1516 813 1516 878 1516 c 0,34,35
 935 1516 935 1516 990 1513.5 c 128,-1,36
 1045 1511 1045 1511 1118.5 1502 c 128,-1,37
 1192 1493 1192 1493 1254 1478 c 128,-1,38
 1316 1463 1316 1463 1379.5 1436.5 c 128,-1,39
 1443 1410 1443 1410 1487 1374.5 c 128,-1,40
 1531 1339 1531 1339 1559 1285.5 c 128,-1,41
 1587 1232 1587 1232 1587 1167 c 0,0,1
720 406 m 0,42,43
 720 328 720 328 774 277.5 c 128,-1,44
 828 227 828 227 902 227 c 0,45,46
 968 227 968 227 1007 280.5 c 128,-1,47
 1046 334 1046 334 1046 404 c 0,48,49
 1046 454 1046 454 1026.5 503.5 c 128,-1,50
 1007 553 1007 553 978.5 588 c 128,-1,51
 950 623 950 623 922 650.5 c 128,-1,52
 894 678 894 678 874 692 c 2,53,-1
 855 705 l 1,54,55
 850 702 850 702 840.5 695.5 c 128,-1,56
 831 689 831 689 808 663.5 c 128,-1,57
 785 638 785 638 767 607 c 128,-1,58
 749 576 749 576 734.5 522 c 128,-1,59
 720 468 720 468 720 406 c 0,42,43
708 1176 m 0,60,61
 708 1133 708 1133 727 1089.5 c 128,-1,62
 746 1046 746 1046 773 1014 c 128,-1,63
 800 982 800 982 827 957 c 128,-1,64
 854 932 854 932 873 919 c 2,65,-1
 892 906 l 1,66,67
 897 912 897 912 904.5 922 c 128,-1,68
 912 932 912 932 932 963 c 128,-1,69
 952 994 952 994 967 1025.5 c 128,-1,70
 982 1057 982 1057 994.5 1101.5 c 128,-1,71
 1007 1146 1007 1146 1007 1186 c 0,72,73
 1007 1242 1007 1242 964 1276.5 c 128,-1,74
 921 1311 921 1311 854 1311 c 0,75,76
 791 1311 791 1311 749.5 1273.5 c 128,-1,77
 708 1236 708 1236 708 1176 c 0,60,61
EndSplineSet
EndChar

StartChar: nine
Encoding: 57 57 28
Width: 1704
GlyphClass: 2
Flags: W
LayerCount: 2
Fore
SplineSet
739 184 m 0,0,1
 801 184 801 184 847.5 223 c 128,-1,2
 894 262 894 262 919 327.5 c 128,-1,3
 944 393 944 393 956 467 c 128,-1,4
 968 541 968 541 968 624 c 2,5,-1
 968 652 l 1,6,7
 817 560 817 560 609 560 c 0,8,9
 529 560 529 560 450 574 c 128,-1,10
 371 588 371 588 295 620 c 128,-1,11
 219 652 219 652 161 699 c 128,-1,12
 103 746 103 746 67.5 817 c 128,-1,13
 32 888 32 888 32 975 c 0,14,15
 32 1090 32 1090 76 1182 c 128,-1,16
 120 1274 120 1274 195.5 1335.5 c 128,-1,17
 271 1397 271 1397 376 1438.5 c 128,-1,18
 481 1480 481 1480 598 1498 c 128,-1,19
 715 1516 715 1516 848 1516 c 1,20,21
 1049 1513 1049 1513 1204 1460 c 128,-1,22
 1359 1407 1359 1407 1456 1313 c 128,-1,23
 1553 1219 1553 1219 1602 1094.5 c 128,-1,24
 1651 970 1651 970 1651 820 c 0,25,26
 1651 640 1651 640 1593 487.5 c 128,-1,27
 1535 335 1535 335 1424 219.5 c 128,-1,28
 1313 104 1313 104 1137 38.5 c 128,-1,29
 961 -27 961 -27 739 -27 c 0,30,31
 458 -27 458 -27 353 1 c 1,32,33
 269 13 269 13 194 125 c 128,-1,34
 119 237 119 237 119 362 c 0,35,36
 119 397 119 397 213 430 c 128,-1,37
 307 463 307 463 378 463 c 0,38,39
 391 463 391 463 407.5 442.5 c 128,-1,40
 424 422 424 422 441 391 c 128,-1,41
 458 360 458 360 486.5 323.5 c 128,-1,42
 515 287 515 287 547.5 256 c 128,-1,43
 580 225 580 225 630.5 204.5 c 128,-1,44
 681 184 681 184 739 184 c 0,0,1
807 795 m 0,45,46
 842 795 842 795 869.5 804 c 128,-1,47
 897 813 897 813 914.5 825 c 128,-1,48
 932 837 932 837 944.5 861 c 128,-1,49
 957 885 957 885 963.5 903.5 c 128,-1,50
 970 922 970 922 973 955.5 c 128,-1,51
 976 989 976 989 976.5 1009 c 128,-1,52
 977 1029 977 1029 977 1066 c 0,53,54
 977 1193 977 1193 930 1252.5 c 128,-1,55
 883 1312 883 1312 815 1312 c 0,56,57
 767 1312 767 1312 731.5 1292.5 c 128,-1,58
 696 1273 696 1273 677.5 1245.5 c 128,-1,59
 659 1218 659 1218 648 1175.5 c 128,-1,60
 637 1133 637 1133 634.5 1099 c 128,-1,61
 632 1065 632 1065 632 1021 c 0,62,63
 632 909 632 909 681 852 c 128,-1,64
 730 795 730 795 807 795 c 0,45,46
EndSplineSet
EndChar

StartChar: colon
Encoding: 58 58 29
Width: 607
GlyphClass: 2
Flags: W
LayerCount: 2
Fore
SplineSet
61 257 m 128,-1,1
 61 349 61 349 123 412.5 c 128,-1,2
 185 476 185 476 304 476 c 0,3,4
 421 476 421 476 480 411.5 c 128,-1,5
 539 347 539 347 539 257 c 128,-1,6
 539 167 539 167 480 102.5 c 128,-1,7
 421 38 421 38 304 38 c 0,8,9
 185 38 185 38 123 101.5 c 128,-1,0
 61 165 61 165 61 257 c 128,-1,1
61 969 m 128,-1,11
 61 1061 61 1061 123 1124.5 c 128,-1,12
 185 1188 185 1188 304 1188 c 0,13,14
 421 1188 421 1188 480 1123.5 c 128,-1,15
 539 1059 539 1059 539 969 c 128,-1,16
 539 879 539 879 480 814.5 c 128,-1,17
 421 750 421 750 304 750 c 0,18,19
 185 750 185 750 123 813.5 c 128,-1,10
 61 877 61 877 61 969 c 128,-1,11
EndSplineSet
EndChar

StartChar: semicolon
Encoding: 59 59 30
Width: 611
GlyphClass: 2
Flags: W
LayerCount: 2
Fore
SplineSet
62 969 m 128,-1,1
 62 1061 62 1061 124 1124.5 c 128,-1,2
 186 1188 186 1188 305 1188 c 0,3,4
 422 1188 422 1188 481 1123.5 c 128,-1,5
 540 1059 540 1059 540 969 c 128,-1,6
 540 879 540 879 481 814.5 c 128,-1,7
 422 750 422 750 305 750 c 0,8,9
 186 750 186 750 124 813.5 c 128,-1,0
 62 877 62 877 62 969 c 128,-1,1
107 -115 m 0,10,11
 107 -100 107 -100 125 -78.5 c 128,-1,12
 143 -57 143 -57 164.5 -37.5 c 128,-1,13
 186 -18 186 -18 204 7 c 128,-1,14
 222 32 222 32 222 52 c 0,15,16
 222 61 222 61 205 69 c 128,-1,17
 188 77 188 77 164 87.5 c 128,-1,18
 140 98 140 98 115.5 115 c 128,-1,19
 91 132 91 132 74 168 c 128,-1,20
 57 204 57 204 57 254 c 0,21,22
 57 356 57 356 125 419 c 128,-1,23
 193 482 193 482 303 482 c 0,24,25
 407 482 407 482 479.5 413 c 128,-1,26
 552 344 552 344 552 244 c 0,27,28
 552 184 552 184 521 111.5 c 128,-1,29
 490 39 490 39 440.5 -23.5 c 128,-1,30
 391 -86 391 -86 323 -128 c 128,-1,31
 255 -170 255 -170 189 -170 c 0,32,33
 152 -170 152 -170 129.5 -153 c 128,-1,34
 107 -136 107 -136 107 -115 c 0,10,11
EndSplineSet
EndChar

StartChar: less
Encoding: 60 60 31
Width: 858
GlyphClass: 2
Flags: W
LayerCount: 2
Fore
SplineSet
39 534 m 0,0,1
 39 574 39 574 173.5 705.5 c 128,-1,2
 308 837 308 837 442 949 c 2,3,-1
 577 1061 l 2,4,5
 588 1069 588 1069 598 1069 c 0,6,7
 619 1069 619 1069 667.5 1026 c 128,-1,8
 716 983 716 983 757.5 926 c 128,-1,9
 799 869 799 869 799 835 c 0,10,11
 799 819 799 819 786 806 c 1,12,13
 538 603 538 603 468 534 c 1,14,15
 500 503 500 503 582 435 c 128,-1,16
 664 367 664 367 730 314 c 2,17,-1
 796 262 l 1,18,19
 809 249 809 249 809 233 c 0,20,21
 809 199 809 199 765.5 142 c 128,-1,22
 722 85 722 85 671 42 c 128,-1,23
 620 -1 620 -1 598 -1 c 0,24,25
 588 -1 588 -1 577 7 c 0,26,27
 566 16 566 16 546.5 32 c 128,-1,28
 527 48 527 48 471 95.5 c 128,-1,29
 415 143 415 143 364.5 187 c 128,-1,30
 314 231 314 231 251.5 288.5 c 128,-1,31
 189 346 189 346 144.5 391.5 c 128,-1,32
 100 437 100 437 69.5 476.5 c 128,-1,33
 39 516 39 516 39 534 c 0,0,1
EndSplineSet
EndChar

StartChar: equal
Encoding: 61 61 32
Width: 1140
GlyphClass: 2
Flags: W
LayerCount: 2
Fore
SplineSet
261 892 m 1,0,1
 313 893 313 893 886 893 c 0,2,3
 990 893 990 893 1029 896 c 1,4,5
 1065 882 1065 882 1065 811 c 0,6,7
 1065 716 1065 716 1010 716 c 1,8,9
 1005 718 1005 718 948 719.5 c 128,-1,10
 891 721 891 721 837 722 c 1,11,-1
 783 722 l 1,12,-1
 282 722 l 1,13,14
 144 718 144 718 137 714 c 1,15,16
 82 714 82 714 82 809 c 0,17,18
 82 880 82 880 118 894 c 1,19,20
 144 892 144 892 261 892 c 1,0,1
261 559 m 1,21,22
 311 560 311 560 884 560 c 0,23,24
 975 560 975 560 1027 564 c 1,25,26
 1063 550 1063 550 1063 479 c 0,27,28
 1063 384 1063 384 1008 384 c 1,29,30
 1003 386 1003 386 946.5 387.5 c 128,-1,31
 890 389 890 389 836 390 c 1,32,-1
 781 390 l 1,33,-1
 282 390 l 1,34,35
 144 386 144 386 137 382 c 1,36,37
 82 382 82 382 82 477 c 0,38,39
 82 548 82 548 118 562 c 1,40,41
 157 559 157 559 261 559 c 1,21,22
EndSplineSet
EndChar

StartChar: greater
Encoding: 62 62 33
Width: 846
GlyphClass: 2
Flags: W
LayerCount: 2
Fore
SplineSet
816 534 m 0,0,1
 816 494 816 494 681.5 362.5 c 128,-1,2
 547 231 547 231 412 119 c 2,3,-1
 278 7 l 2,4,5
 267 -1 267 -1 257 -1 c 0,6,7
 235 -1 235 -1 184 42 c 128,-1,8
 133 85 133 85 89.5 142 c 128,-1,9
 46 199 46 199 46 233 c 0,10,11
 46 249 46 249 59 262 c 1,12,13
 315 465 315 465 387 534 c 1,14,15
 356 565 356 565 276.5 633 c 128,-1,16
 197 701 197 701 133 754 c 2,17,-1
 69 806 l 1,18,19
 56 819 56 819 56 835 c 0,20,21
 56 869 56 869 97.5 926 c 128,-1,22
 139 983 139 983 187.5 1026 c 128,-1,23
 236 1069 236 1069 257 1069 c 0,24,25
 267 1069 267 1069 278 1061 c 0,26,27
 289 1052 289 1052 308.5 1036 c 128,-1,28
 328 1020 328 1020 384 972.5 c 128,-1,29
 440 925 440 925 490.5 881 c 128,-1,30
 541 837 541 837 603.5 779.5 c 128,-1,31
 666 722 666 722 710.5 676.5 c 128,-1,32
 755 631 755 631 785.5 591.5 c 128,-1,33
 816 552 816 552 816 534 c 0,0,1
EndSplineSet
EndChar

StartChar: question
Encoding: 63 63 34
Width: 1303
GlyphClass: 2
Flags: W
LayerCount: 2
Fore
SplineSet
32 1262 m 1,0,1
 33 1382 33 1382 79.5 1449.5 c 128,-1,2
 126 1517 126 1517 192 1535 c 1,3,4
 233 1535 233 1535 266 1525 c 128,-1,5
 299 1515 299 1515 315 1503 c 128,-1,6
 331 1491 331 1491 345.5 1481 c 128,-1,7
 360 1471 360 1471 369 1471 c 1,8,9
 389 1477 389 1477 432.5 1493.5 c 128,-1,10
 476 1510 476 1510 502.5 1518 c 128,-1,11
 529 1526 529 1526 580.5 1534 c 128,-1,12
 632 1542 632 1542 692 1542 c 0,13,14
 817 1542 817 1542 919.5 1521 c 128,-1,15
 1022 1500 1022 1500 1101 1457.5 c 128,-1,16
 1180 1415 1180 1415 1224 1345 c 128,-1,17
 1268 1275 1268 1275 1268 1182 c 0,18,19
 1268 1133 1268 1133 1244 1090 c 128,-1,20
 1220 1047 1220 1047 1181.5 1015.5 c 128,-1,21
 1143 984 1143 984 1096.5 956 c 128,-1,22
 1050 928 1050 928 1003 905.5 c 128,-1,23
 956 883 956 883 917.5 862.5 c 128,-1,24
 879 842 879 842 855 820 c 128,-1,25
 831 798 831 798 831 777 c 0,26,27
 831 752 831 752 848.5 696 c 128,-1,28
 866 640 866 640 866 616 c 0,29,30
 866 535 866 535 678 535 c 0,31,32
 653 535 653 535 617 536.5 c 128,-1,33
 581 538 581 538 574 538 c 0,34,35
 479 538 479 538 403.5 603.5 c 128,-1,36
 328 669 328 669 328 756 c 0,37,38
 328 796 328 796 347 819 c 128,-1,39
 366 842 366 842 411 861 c 0,40,41
 447 876 447 876 472 887.5 c 128,-1,42
 497 899 497 899 538 925 c 128,-1,43
 579 951 579 951 604.5 978 c 128,-1,44
 630 1005 630 1005 650 1046.5 c 128,-1,45
 670 1088 670 1088 670 1134 c 0,46,47
 670 1222 670 1222 627.5 1285 c 128,-1,48
 585 1348 585 1348 520 1348 c 0,49,50
 467 1348 467 1348 412.5 1317.5 c 128,-1,51
 358 1287 358 1287 323 1245 c 1,52,53
 299 1198 299 1198 246 1158.5 c 128,-1,54
 193 1119 193 1119 143 1119 c 0,55,56
 32 1119 32 1119 32 1262 c 1,0,1
323 193 m 128,-1,58
 323 285 323 285 385 348.5 c 128,-1,59
 447 412 447 412 566 412 c 0,60,61
 683 412 683 412 742 347.5 c 128,-1,62
 801 283 801 283 801 193 c 128,-1,63
 801 103 801 103 742 38.5 c 128,-1,64
 683 -26 683 -26 566 -26 c 0,65,66
 447 -26 447 -26 385 37.5 c 128,-1,57
 323 101 323 101 323 193 c 128,-1,58
EndSplineSet
EndChar

StartChar: at
Encoding: 64 64 35
Width: 1831
GlyphClass: 2
Flags: W
LayerCount: 2
Fore
SplineSet
1417 381 m 1,0,1
 1442 381 1442 381 1462.5 390.5 c 128,-1,2
 1483 400 1483 400 1497.5 414 c 128,-1,3
 1512 428 1512 428 1524 452 c 128,-1,4
 1536 476 1536 476 1543 497.5 c 128,-1,5
 1550 519 1550 519 1555.5 553 c 128,-1,6
 1561 587 1561 587 1563.5 610 c 128,-1,7
 1566 633 1566 633 1567.5 670.5 c 128,-1,8
 1569 708 1569 708 1569 727 c 128,-1,9
 1569 746 1569 746 1569 781 c 0,10,11
 1569 909 1569 909 1519 1013.5 c 128,-1,12
 1469 1118 1469 1118 1385 1184.5 c 128,-1,13
 1301 1251 1301 1251 1195.5 1286.5 c 128,-1,14
 1090 1322 1090 1322 975 1322 c 0,15,16
 847 1322 847 1322 735 1283.5 c 128,-1,17
 623 1245 623 1245 542.5 1179.5 c 128,-1,18
 462 1114 462 1114 404 1028 c 128,-1,19
 346 942 346 942 317.5 845 c 128,-1,20
 289 748 289 748 289 648 c 0,21,22
 289 552 289 552 314 463.5 c 128,-1,23
 339 375 339 375 393 296 c 128,-1,24
 447 217 447 217 524.5 158 c 128,-1,25
 602 99 602 99 713.5 65 c 128,-1,26
 825 31 825 31 959 31 c 0,27,28
 1243 31 1243 31 1500 175 c 1,29,30
 1534 144 1534 144 1534 82 c 0,31,32
 1534 43 1534 43 1489 -1.5 c 128,-1,33
 1444 -46 1444 -46 1370.5 -83.5 c 128,-1,34
 1297 -121 1297 -121 1192.5 -146 c 128,-1,35
 1088 -171 1088 -171 980 -171 c 0,36,37
 769 -171 769 -171 594 -107.5 c 128,-1,38
 419 -44 419 -44 302.5 67 c 128,-1,39
 186 178 186 178 122.5 328 c 128,-1,40
 59 478 59 478 59 652 c 0,41,42
 59 782 59 782 95.5 906.5 c 128,-1,43
 132 1031 132 1031 207.5 1141.5 c 128,-1,44
 283 1252 283 1252 389.5 1335.5 c 128,-1,45
 496 1419 496 1419 646.5 1467.5 c 128,-1,46
 797 1516 797 1516 972 1516 c 0,47,48
 1137 1516 1137 1516 1284.5 1464 c 128,-1,49
 1432 1412 1432 1412 1541.5 1319 c 128,-1,50
 1651 1226 1651 1226 1715 1089 c 128,-1,51
 1779 952 1779 952 1779 790 c 0,52,53
 1779 658 1779 658 1742 550 c 128,-1,54
 1705 442 1705 442 1643 374.5 c 128,-1,55
 1581 307 1581 307 1503.5 270.5 c 128,-1,56
 1426 234 1426 234 1341 234 c 0,57,58
 1179 234 1179 234 1069 366 c 1,59,60
 1022 294 1022 294 948.5 256 c 128,-1,61
 875 218 875 218 799 218 c 0,62,63
 722 218 722 218 664 239.5 c 128,-1,64
 606 261 606 261 572.5 299 c 128,-1,65
 539 337 539 337 523 383.5 c 128,-1,66
 507 430 507 430 507 485 c 0,67,68
 507 552 507 552 527 601 c 128,-1,69
 547 650 547 650 578.5 678 c 128,-1,70
 610 706 610 706 660 722.5 c 128,-1,71
 710 739 710 739 759.5 744 c 128,-1,72
 809 749 809 749 877 749 c 0,73,74
 904 749 904 749 932 746.5 c 128,-1,75
 960 744 960 744 974 742 c 2,76,-1
 989 739 l 1,77,-1
 989 862 l 2,78,79
 989 906 989 906 972 924.5 c 128,-1,80
 955 943 955 943 917 943 c 0,81,82
 859 943 859 943 794.5 915.5 c 128,-1,83
 730 888 730 888 694 860 c 2,84,-1
 658 833 l 1,85,86
 585 833 585 833 585 919 c 0,87,88
 585 960 585 960 603.5 991 c 128,-1,89
 622 1022 622 1022 656.5 1041 c 128,-1,90
 691 1060 691 1060 729 1072.5 c 128,-1,91
 767 1085 767 1085 820 1090 c 128,-1,92
 873 1095 873 1095 912.5 1097 c 128,-1,93
 952 1099 952 1099 1003 1099 c 0,94,95
 1076 1099 1076 1099 1130 1087 c 128,-1,96
 1184 1075 1184 1075 1222 1047.5 c 128,-1,97
 1260 1020 1260 1020 1284 984 c 128,-1,98
 1308 948 1308 948 1321.5 892 c 128,-1,99
 1335 836 1335 836 1340 776 c 128,-1,100
 1345 716 1345 716 1345 632 c 0,101,102
 1345 600 1345 600 1345 584 c 128,-1,103
 1345 568 1345 568 1346 540.5 c 128,-1,104
 1347 513 1347 513 1349 499 c 128,-1,105
 1351 485 1351 485 1354 464.5 c 128,-1,106
 1357 444 1357 444 1362.5 433 c 128,-1,107
 1368 422 1368 422 1375.5 410 c 128,-1,108
 1383 398 1383 398 1393.5 391 c 128,-1,109
 1404 384 1404 384 1417 381 c 1,0,1
980 444 m 1,110,111
 989 481 989 481 989 609 c 0,112,113
 989 634 989 634 979.5 641 c 128,-1,114
 970 648 970 648 929 648 c 0,115,116
 891 648 891 648 869.5 619.5 c 128,-1,117
 848 591 848 591 848 537 c 0,118,119
 848 486 848 486 866.5 442.5 c 128,-1,120
 885 399 885 399 917 399 c 0,121,122
 935 399 935 399 955 413.5 c 128,-1,123
 975 428 975 428 980 444 c 1,110,111
EndSplineSet
EndChar

StartChar: A
Encoding: 65 65 36
Width: 1890
GlyphClass: 2
Flags: W
LayerCount: 2
Fore
SplineSet
1044 535 m 1,0,-1
 616 535 l 1,1,2
 584 429 584 429 584 394 c 0,3,4
 584 357 584 357 601 335 c 128,-1,5
 618 313 618 313 642 305 c 128,-1,6
 666 297 666 297 690.5 292 c 128,-1,7
 715 287 715 287 732 278 c 128,-1,8
 749 269 749 269 749 251 c 0,9,10
 749 33 749 33 656 -13 c 1,11,12
 557 0 557 0 387 0 c 128,-1,13
 217 0 217 0 118 -13 c 1,14,15
 58 26 58 26 58 196 c 0,16,17
 58 243 58 243 76.5 266 c 128,-1,18
 95 289 95 289 125.5 296 c 128,-1,19
 156 303 156 303 188.5 310 c 128,-1,20
 221 317 221 317 254.5 344 c 128,-1,21
 288 371 288 371 307 422 c 2,22,-1
 552 1063 l 2,23,24
 576 1126 576 1126 576 1155 c 0,25,26
 576 1178 576 1178 567 1188.5 c 128,-1,27
 558 1199 558 1199 546 1201.5 c 128,-1,28
 534 1204 534 1204 521.5 1207.5 c 128,-1,29
 509 1211 509 1211 500 1226 c 128,-1,30
 491 1241 491 1241 491 1270 c 0,31,32
 491 1368 491 1368 512 1430 c 128,-1,33
 533 1492 533 1492 558 1503 c 1,34,35
 728 1489 728 1489 934 1489 c 0,36,37
 1123 1489 1123 1489 1221 1503 c 1,38,39
 1242 1496 1242 1496 1262 1443 c 2,40,-1
 1574 604 l 2,41,42
 1619 482 1619 482 1671.5 388 c 128,-1,43
 1724 294 1724 294 1758 294 c 1,44,45
 1776 291 1776 291 1785.5 288.5 c 128,-1,46
 1795 286 1795 286 1808.5 279 c 128,-1,47
 1822 272 1822 272 1828 259 c 128,-1,48
 1834 246 1834 246 1834 227 c 0,49,50
 1834 156 1834 156 1813.5 80.5 c 128,-1,51
 1793 5 1793 5 1756 -13 c 1,52,53
 1644 0 1644 0 1437 0 c 0,54,55
 1163 0 1163 0 1028 -13 c 1,56,57
 991 5 991 5 970.5 80.5 c 128,-1,58
 950 156 950 156 950 227 c 0,59,60
 950 246 950 246 956.5 259 c 128,-1,61
 963 272 963 272 975.5 279 c 128,-1,62
 988 286 988 286 998.5 289 c 128,-1,63
 1009 292 1009 292 1026 294 c 1,64,65
 1078 295 1078 295 1078 382 c 0,66,67
 1078 457 1078 457 1044 535 c 1,0,-1
1000 705 m 1,68,69
 981 764 981 764 897 1003 c 0,70,71
 893 1015 893 1015 885 1037 c 0,72,73
 876 1064 876 1064 871.5 1076 c 128,-1,74
 867 1088 867 1088 861.5 1101.5 c 128,-1,75
 856 1115 856 1115 852 1120 c 128,-1,76
 848 1125 848 1125 845 1125 c 0,77,78
 836 1125 836 1125 805 1042 c 2,79,-1
 681 705 l 1,80,-1
 1000 705 l 1,68,69
EndSplineSet
EndChar

StartChar: B
Encoding: 66 66 37
Width: 1617
GlyphClass: 2
Flags: W
LayerCount: 2
Fore
SplineSet
816 869 m 0,0,1
 889 869 889 869 924.5 915.5 c 128,-1,2
 960 962 960 962 960 1075 c 0,3,4
 960 1115 960 1115 951.5 1159.5 c 128,-1,5
 943 1204 943 1204 920 1241.5 c 128,-1,6
 897 1279 897 1279 865 1279 c 0,7,8
 853 1279 853 1279 801 1271 c 1,9,10
 786 1243 786 1243 786 921 c 2,11,-1
 786 892 l 2,12,13
 786 880 786 880 792 874.5 c 128,-1,14
 798 869 798 869 816 869 c 0,0,1
791 251 m 1,15,16
 803 232 803 232 826 221 c 128,-1,17
 849 210 849 210 871 210 c 0,18,19
 990 210 990 210 990 493 c 0,20,21
 990 587 990 587 959.5 648 c 128,-1,22
 929 709 929 709 868 709 c 0,23,24
 816 709 816 709 801 700.5 c 128,-1,25
 786 692 786 692 786 673 c 0,26,27
 786 410 786 410 791 251 c 1,15,16
556 1489 m 0,28,29
 619 1489 619 1489 751.5 1496 c 128,-1,30
 884 1503 884 1503 951 1503 c 0,31,32
 1057 1503 1057 1503 1144 1486 c 128,-1,33
 1231 1469 1231 1469 1306.5 1429.5 c 128,-1,34
 1382 1390 1382 1390 1424.5 1316 c 128,-1,35
 1467 1242 1467 1242 1467 1138 c 0,36,37
 1467 1063 1467 1063 1441 1006 c 128,-1,38
 1415 949 1415 949 1365.5 911 c 128,-1,39
 1316 873 1316 873 1258 849.5 c 128,-1,40
 1200 826 1200 826 1124 811 c 1,41,42
 1258 798 1258 798 1358 758.5 c 128,-1,43
 1458 719 1458 719 1520.5 639.5 c 128,-1,44
 1583 560 1583 560 1583 449 c 0,45,46
 1583 320 1583 320 1546 230.5 c 128,-1,47
 1509 141 1509 141 1431.5 87.5 c 128,-1,48
 1354 34 1354 34 1245.5 10.5 c 128,-1,49
 1137 -13 1137 -13 985 -13 c 0,50,51
 920 -13 920 -13 767 -6.5 c 128,-1,52
 614 0 614 0 524 0 c 0,53,54
 439 0 439 0 97 -13 c 1,55,56
 69 6 69 6 54 88.5 c 128,-1,57
 39 171 39 171 39 247 c 0,58,59
 39 266 39 266 46 279 c 128,-1,60
 53 292 53 292 67.5 298.5 c 128,-1,61
 82 305 82 305 94 307.5 c 128,-1,62
 106 310 106 310 128 312 c 0,63,64
 158 315 158 315 177.5 335 c 128,-1,65
 197 355 197 355 206 389.5 c 128,-1,66
 215 424 215 424 218 457 c 128,-1,67
 221 490 221 490 221 535 c 2,68,-1
 221 974 l 2,69,70
 221 1013 221 1013 219.5 1039 c 128,-1,71
 218 1065 218 1065 213 1094 c 128,-1,72
 208 1123 208 1123 198.5 1140.5 c 128,-1,73
 189 1158 189 1158 172 1170.5 c 128,-1,74
 155 1183 155 1183 131 1186 c 0,75,76
 110 1188 110 1188 97.5 1191 c 128,-1,77
 85 1194 85 1194 70.5 1200.5 c 128,-1,78
 56 1207 56 1207 49 1220 c 128,-1,79
 42 1233 42 1233 42 1252 c 0,80,81
 42 1325 42 1325 57 1405 c 128,-1,82
 72 1485 72 1485 100 1503 c 1,83,84
 116 1503 116 1503 291.5 1496 c 128,-1,85
 467 1489 467 1489 556 1489 c 0,28,29
EndSplineSet
EndChar

StartChar: C
Encoding: 67 67 38
Width: 1536
GlyphClass: 2
Flags: W
LayerCount: 2
Fore
SplineSet
875 -27 m 0,0,1
 709 -27 709 -27 569 17.5 c 128,-1,2
 429 62 429 62 332.5 137.5 c 128,-1,3
 236 213 236 213 168 314 c 128,-1,4
 100 415 100 415 68.5 527.5 c 128,-1,5
 37 640 37 640 37 759 c 0,6,7
 37 874 37 874 65.5 983.5 c 128,-1,8
 94 1093 94 1093 152.5 1189.5 c 128,-1,9
 211 1286 211 1286 293 1359 c 128,-1,10
 375 1432 375 1432 490 1474 c 128,-1,11
 605 1516 605 1516 738 1516 c 0,12,13
 848 1516 848 1516 928.5 1496 c 128,-1,14
 1009 1476 1009 1476 1106 1421 c 1,15,16
 1104 1445 1104 1445 1104 1452 c 0,17,18
 1104 1483 1104 1483 1126.5 1493 c 128,-1,19
 1149 1503 1149 1503 1223 1503 c 0,20,21
 1289 1503 1289 1503 1321.5 1497 c 128,-1,22
 1354 1491 1354 1491 1382 1464 c 128,-1,23
 1410 1437 1410 1437 1423.5 1389 c 128,-1,24
 1437 1341 1437 1341 1451 1250 c 0,25,26
 1465 1155 1465 1155 1465 1116 c 0,27,28
 1465 1087 1465 1087 1461.5 1069.5 c 128,-1,29
 1458 1052 1458 1052 1452.5 1041.5 c 128,-1,30
 1447 1031 1447 1031 1431 1025.5 c 128,-1,31
 1415 1020 1415 1020 1402 1018 c 128,-1,32
 1389 1016 1389 1016 1357 1013 c 0,33,34
 1260 1004 1260 1004 1252 1004 c 0,35,36
 1204 1004 1204 1004 1177 1057 c 1,37,38
 1123 1143 1123 1143 1052.5 1187.5 c 128,-1,39
 982 1232 982 1232 910 1232 c 0,40,41
 803 1232 803 1232 730.5 1141.5 c 128,-1,42
 658 1051 658 1051 658 885 c 0,43,44
 658 772 658 772 692 677.5 c 128,-1,45
 726 583 726 583 784 519.5 c 128,-1,46
 842 456 842 456 919.5 421 c 128,-1,47
 997 386 997 386 1084 386 c 0,48,49
 1272 386 1272 386 1444 483 c 1,50,51
 1481 416 1481 416 1481 343 c 0,52,53
 1481 271 1481 271 1441 205 c 128,-1,54
 1401 139 1401 139 1326.5 87 c 128,-1,55
 1252 35 1252 35 1135 4 c 128,-1,56
 1018 -27 1018 -27 875 -27 c 0,0,1
EndSplineSet
EndChar

StartChar: D
Encoding: 68 68 39
Width: 1726
GlyphClass: 2
Flags: W
LayerCount: 2
Fore
SplineSet
894 222 m 0,0,1
 964 222 964 222 1016.5 297 c 128,-1,2
 1069 372 1069 372 1094 486 c 128,-1,3
 1119 600 1119 600 1119 732 c 0,4,5
 1119 867 1119 867 1092.5 982 c 128,-1,6
 1066 1097 1066 1097 1006.5 1174.5 c 128,-1,7
 947 1252 947 1252 864 1252 c 0,8,9
 832 1252 832 1252 817 1249 c 1,10,11
 812 1225 812 1225 812 790 c 2,12,-1
 812 623 l 2,13,14
 812 495 812 495 816 395.5 c 128,-1,15
 820 296 820 296 824 260 c 2,16,-1
 827 224 l 1,17,18
 848 222 848 222 894 222 c 0,0,1
123 -13 m 1,19,20
 95 5 95 5 80 87 c 128,-1,21
 65 169 65 169 65 245 c 0,22,23
 65 264 65 264 72 277 c 128,-1,24
 79 290 79 290 93.5 296.5 c 128,-1,25
 108 303 108 303 120 305.5 c 128,-1,26
 132 308 132 308 154 310 c 0,27,28
 184 313 184 313 203.5 333 c 128,-1,29
 223 353 223 353 232 387.5 c 128,-1,30
 241 422 241 422 244 455 c 128,-1,31
 247 488 247 488 247 533 c 2,32,-1
 247 972 l 2,33,34
 247 1011 247 1011 245.5 1037 c 128,-1,35
 244 1063 244 1063 239 1092 c 128,-1,36
 234 1121 234 1121 224.5 1138.5 c 128,-1,37
 215 1156 215 1156 198 1168.5 c 128,-1,38
 181 1181 181 1181 157 1184 c 0,39,40
 136 1186 136 1186 123.5 1189 c 128,-1,41
 111 1192 111 1192 96.5 1198.5 c 128,-1,42
 82 1205 82 1205 75 1218 c 128,-1,43
 68 1231 68 1231 68 1250 c 0,44,45
 68 1323 68 1323 83 1404 c 128,-1,46
 98 1485 98 1485 126 1503 c 1,47,48
 504 1489 504 1489 564 1489 c 0,49,50
 622 1489 622 1489 742 1496 c 128,-1,51
 862 1503 862 1503 925 1503 c 0,52,53
 1074 1503 1074 1503 1201 1460 c 128,-1,54
 1328 1417 1328 1417 1416.5 1343.5 c 128,-1,55
 1505 1270 1505 1270 1568 1172 c 128,-1,56
 1631 1074 1631 1074 1660.5 964 c 128,-1,57
 1690 854 1690 854 1690 738 c 0,58,59
 1690 624 1690 624 1661 515.5 c 128,-1,60
 1632 407 1632 407 1572 311 c 128,-1,61
 1512 215 1512 215 1427 143 c 128,-1,62
 1342 71 1342 71 1221.5 29 c 128,-1,63
 1101 -13 1101 -13 960 -13 c 0,64,65
 905 -13 905 -13 799.5 -6.5 c 128,-1,66
 694 0 694 0 637 0 c 0,67,68
 530 0 530 0 123 -13 c 1,19,20
EndSplineSet
EndChar

StartChar: E
Encoding: 69 69 40
Width: 1513
GlyphClass: 2
Flags: W
LayerCount: 2
Fore
SplineSet
126 1503 m 1,0,1
 396 1489 396 1489 732 1489 c 0,2,3
 1060 1489 1060 1489 1322 1503 c 1,4,5
 1356 1439 1356 1439 1392 1324 c 128,-1,6
 1428 1209 1428 1209 1428 1137 c 0,7,8
 1428 1108 1428 1108 1408.5 1086.5 c 128,-1,9
 1389 1065 1389 1065 1359 1054 c 128,-1,10
 1329 1043 1329 1043 1301 1038 c 128,-1,11
 1273 1033 1273 1033 1248 1033 c 0,12,13
 1242 1033 1242 1033 1221 1058 c 128,-1,14
 1200 1083 1200 1083 1168.5 1118.5 c 128,-1,15
 1137 1154 1137 1154 1098.5 1190 c 128,-1,16
 1060 1226 1060 1226 1010 1251 c 128,-1,17
 960 1276 960 1276 912 1276 c 0,18,19
 887 1276 887 1276 875 1273.5 c 128,-1,20
 863 1271 863 1271 848.5 1259.5 c 128,-1,21
 834 1248 834 1248 827.5 1223 c 128,-1,22
 821 1198 821 1198 816.5 1152.5 c 128,-1,23
 812 1107 812 1107 812 1037 c 2,24,-1
 812 819 l 1,25,26
 938 968 938 968 1084 968 c 0,27,28
 1166 968 1166 968 1214 911.5 c 128,-1,29
 1262 855 1262 855 1262 782 c 0,30,31
 1262 702 1262 702 1206 647.5 c 128,-1,32
 1150 593 1150 593 1076 593 c 1,33,34
 1039 635 1039 635 989.5 662.5 c 128,-1,35
 940 690 940 690 894 690 c 0,36,37
 844 690 844 690 812 641 c 1,38,-1
 812 378 l 2,39,40
 812 194 812 194 855 194 c 2,41,-1
 943 194 l 1,42,43
 1000 205 1000 205 1047 237.5 c 128,-1,44
 1094 270 1094 270 1134 326.5 c 128,-1,45
 1174 383 1174 383 1203.5 440 c 128,-1,46
 1233 497 1233 497 1269 582 c 1,47,48
 1280 586 1280 586 1298 586 c 0,49,50
 1348 586 1348 586 1412 562 c 128,-1,51
 1476 538 1476 538 1494 507 c 0,52,53
 1499 497 1499 497 1499 473 c 0,54,55
 1499 424 1499 424 1474 318.5 c 128,-1,56
 1449 213 1449 213 1420 127 c 0,57,58
 1407 86 1407 86 1379.5 36.5 c 128,-1,59
 1352 -13 1352 -13 1332 -13 c 1,60,61
 1253 -6 1253 -6 1151.5 -2.5 c 128,-1,62
 1050 1 1050 1 981 1.5 c 128,-1,63
 912 2 912 2 783 1 c 128,-1,64
 654 0 654 0 605 0 c 0,65,66
 318 0 318 0 123 -13 c 1,67,68
 95 6 95 6 80 88.5 c 128,-1,69
 65 171 65 171 65 247 c 0,70,71
 65 266 65 266 72 279 c 128,-1,72
 79 292 79 292 93.5 298.5 c 128,-1,73
 108 305 108 305 120 307.5 c 128,-1,74
 132 310 132 310 154 312 c 0,75,76
 184 315 184 315 203.5 335 c 128,-1,77
 223 355 223 355 232 389.5 c 128,-1,78
 241 424 241 424 244 457 c 128,-1,79
 247 490 247 490 247 535 c 2,80,-1
 247 974 l 2,81,82
 247 1013 247 1013 245.5 1039 c 128,-1,83
 244 1065 244 1065 239 1094 c 128,-1,84
 234 1123 234 1123 224.5 1140.5 c 128,-1,85
 215 1158 215 1158 198 1170.5 c 128,-1,86
 181 1183 181 1183 157 1186 c 0,87,88
 136 1188 136 1188 123.5 1191 c 128,-1,89
 111 1194 111 1194 96.5 1200.5 c 128,-1,90
 82 1207 82 1207 75 1220 c 128,-1,91
 68 1233 68 1233 68 1252 c 0,92,93
 68 1325 68 1325 83 1405 c 128,-1,94
 98 1485 98 1485 126 1503 c 1,0,1
EndSplineSet
EndChar

StartChar: F
Encoding: 70 70 41
Width: 1408
GlyphClass: 2
Flags: W
LayerCount: 2
Fore
SplineSet
126 1503 m 1,0,1
 355 1489 355 1489 755 1489 c 0,2,3
 1129 1489 1129 1489 1312 1503 c 1,4,5
 1346 1439 1346 1439 1382 1324 c 128,-1,6
 1418 1209 1418 1209 1418 1137 c 0,7,8
 1418 1108 1418 1108 1398.5 1086.5 c 128,-1,9
 1379 1065 1379 1065 1349 1054 c 128,-1,10
 1319 1043 1319 1043 1291 1038 c 128,-1,11
 1263 1033 1263 1033 1238 1033 c 0,12,13
 1225 1033 1225 1033 1206 1063 c 1,14,15
 1149 1164 1149 1164 1077.5 1220 c 128,-1,16
 1006 1276 1006 1276 902 1276 c 0,17,18
 880 1276 880 1276 869 1273.5 c 128,-1,19
 858 1271 858 1271 845 1259.5 c 128,-1,20
 832 1248 832 1248 826 1223 c 128,-1,21
 820 1198 820 1198 816 1152.5 c 128,-1,22
 812 1107 812 1107 812 1037 c 2,23,-1
 812 850 l 1,24,25
 940 1008 940 1008 1084 1008 c 0,26,27
 1166 1008 1166 1008 1214 951.5 c 128,-1,28
 1262 895 1262 895 1262 822 c 0,29,30
 1262 742 1262 742 1206 687.5 c 128,-1,31
 1150 633 1150 633 1076 633 c 1,32,33
 1039 675 1039 675 989.5 702.5 c 128,-1,34
 940 730 940 730 894 730 c 0,35,36
 844 730 844 730 812 681 c 1,37,-1
 812 603 l 2,38,39
 812 565 812 565 812.5 535.5 c 128,-1,40
 813 506 813 506 815.5 468.5 c 128,-1,41
 818 431 818 431 823 403.5 c 128,-1,42
 828 376 828 376 835.5 351 c 128,-1,43
 843 326 843 326 856 312 c 128,-1,44
 869 298 869 298 885 296 c 0,45,46
 887 296 887 296 897 294 c 128,-1,47
 907 292 907 292 909.5 291.5 c 128,-1,48
 912 291 912 291 921 289 c 128,-1,49
 930 287 930 287 933 285.5 c 128,-1,50
 936 284 936 284 943 281 c 128,-1,51
 950 278 950 278 953 275 c 128,-1,52
 956 272 956 272 960.5 267 c 128,-1,53
 965 262 965 262 967 256.5 c 128,-1,54
 969 251 969 251 970.5 243.5 c 128,-1,55
 972 236 972 236 972 227 c 0,56,57
 972 156 972 156 954.5 80.5 c 128,-1,58
 937 5 937 5 904 -13 c 1,59,60
 769 0 769 0 495 0 c 0,61,62
 194 0 194 0 123 -13 c 1,63,64
 95 6 95 6 80 88.5 c 128,-1,65
 65 171 65 171 65 247 c 0,66,67
 65 266 65 266 72 279 c 128,-1,68
 79 292 79 292 93.5 298.5 c 128,-1,69
 108 305 108 305 120 307.5 c 128,-1,70
 132 310 132 310 154 312 c 0,71,72
 184 315 184 315 203.5 335 c 128,-1,73
 223 355 223 355 232 389.5 c 128,-1,74
 241 424 241 424 244 457 c 128,-1,75
 247 490 247 490 247 535 c 2,76,-1
 247 974 l 2,77,78
 247 1013 247 1013 245.5 1039 c 128,-1,79
 244 1065 244 1065 239 1094 c 128,-1,80
 234 1123 234 1123 224.5 1140.5 c 128,-1,81
 215 1158 215 1158 198 1170.5 c 128,-1,82
 181 1183 181 1183 157 1186 c 0,83,84
 136 1188 136 1188 123.5 1191 c 128,-1,85
 111 1194 111 1194 96.5 1200.5 c 128,-1,86
 82 1207 82 1207 75 1220 c 128,-1,87
 68 1233 68 1233 68 1252 c 0,88,89
 68 1325 68 1325 83 1405 c 128,-1,90
 98 1485 98 1485 126 1503 c 1,0,1
EndSplineSet
EndChar

StartChar: G
Encoding: 71 71 42
Width: 1755
GlyphClass: 2
Flags: W
LayerCount: 2
Fore
SplineSet
1262 84 m 1,0,1
 1123 -27 1123 -27 876 -27 c 0,2,3
 748 -27 748 -27 627.5 2.5 c 128,-1,4
 507 32 507 32 399 96 c 128,-1,5
 291 160 291 160 211 251.5 c 128,-1,6
 131 343 131 343 84 476.5 c 128,-1,7
 37 610 37 610 37 769 c 0,8,9
 37 949 37 949 99.5 1094 c 128,-1,10
 162 1239 162 1239 268 1329.5 c 128,-1,11
 374 1420 374 1420 508 1468 c 128,-1,12
 642 1516 642 1516 791 1516 c 0,13,14
 934 1516 934 1516 1020.5 1493.5 c 128,-1,15
 1107 1471 1107 1471 1194 1421 c 1,16,17
 1194 1472 1194 1472 1214 1487.5 c 128,-1,18
 1234 1503 1234 1503 1309 1503 c 2,19,-1
 1342 1503 l 2,20,21
 1382 1503 1382 1503 1404.5 1499 c 128,-1,22
 1427 1495 1427 1495 1454 1476 c 128,-1,23
 1481 1457 1481 1457 1497 1419.5 c 128,-1,24
 1513 1382 1513 1382 1528.5 1314 c 128,-1,25
 1544 1246 1544 1246 1554 1144 c 0,26,27
 1556 1127 1556 1127 1556 1100 c 0,28,29
 1556 1081 1556 1081 1554 1067 c 128,-1,30
 1552 1053 1552 1053 1544 1043.5 c 128,-1,31
 1536 1034 1536 1034 1530.5 1029 c 128,-1,32
 1525 1024 1525 1024 1509 1020 c 128,-1,33
 1493 1016 1493 1016 1484 1015 c 128,-1,34
 1475 1014 1475 1014 1450 1011.5 c 128,-1,35
 1425 1009 1425 1009 1412 1007 c 0,36,37
 1369 1002 1369 1002 1348 1002 c 0,38,39
 1316 1002 1316 1002 1300 1014.5 c 128,-1,40
 1284 1027 1284 1027 1255 1068 c 2,41,-1
 1241 1088 l 1,42,43
 1156 1233 1156 1233 976 1233 c 0,44,45
 847 1233 847 1233 754 1124 c 128,-1,46
 661 1015 661 1015 661 835 c 0,47,48
 661 738 661 738 685 657 c 128,-1,49
 709 576 709 576 747 523 c 128,-1,50
 785 470 785 470 833.5 433 c 128,-1,51
 882 396 882 396 931 379.5 c 128,-1,52
 980 363 980 363 1027 363 c 0,53,54
 1088 363 1088 363 1127.5 391 c 128,-1,55
 1167 419 1167 419 1167 467 c 0,56,57
 1167 530 1167 530 1125.5 554.5 c 128,-1,58
 1084 579 1084 579 952 588 c 1,59,60
 943 606 943 606 943 652 c 0,61,62
 943 694 943 694 965 752 c 128,-1,63
 987 810 987 810 1007 829 c 1,64,65
 1112 810 1112 810 1284 810 c 0,66,67
 1464 810 1464 810 1605 828 c 1,68,69
 1632 828 1632 828 1650 825 c 128,-1,70
 1668 822 1668 822 1687 812 c 128,-1,71
 1706 802 1706 802 1715.5 779.5 c 128,-1,72
 1725 757 1725 757 1725 722 c 0,73,74
 1725 678 1725 678 1718 648 c 128,-1,75
 1711 618 1711 618 1699 603 c 128,-1,76
 1687 588 1687 588 1673.5 577 c 128,-1,77
 1660 566 1660 566 1646 555 c 128,-1,78
 1632 544 1632 544 1620 527.5 c 128,-1,79
 1608 511 1608 511 1601 478.5 c 128,-1,80
 1594 446 1594 446 1594 398 c 0,81,82
 1594 356 1594 356 1598 275.5 c 128,-1,83
 1602 195 1602 195 1602 156 c 2,84,-1
 1602 122 l 1,85,86
 1522 47 1522 47 1420 47 c 0,87,88
 1385 47 1385 47 1328 64.5 c 128,-1,89
 1271 82 1271 82 1262 84 c 1,0,1
EndSplineSet
EndChar

StartChar: H
Encoding: 72 72 43
Width: 2087
GlyphClass: 2
Flags: W
LayerCount: 2
Fore
SplineSet
1945 1503 m 1,0,1
 1973 1485 1973 1485 1988 1405 c 128,-1,2
 2003 1325 2003 1325 2003 1252 c 0,3,4
 2003 1233 2003 1233 1996 1220 c 128,-1,5
 1989 1207 1989 1207 1974.5 1200.5 c 128,-1,6
 1960 1194 1960 1194 1947.5 1191 c 128,-1,7
 1935 1188 1935 1188 1914 1186 c 0,8,9
 1890 1183 1890 1183 1873 1170.5 c 128,-1,10
 1856 1158 1856 1158 1846.5 1140.5 c 128,-1,11
 1837 1123 1837 1123 1832 1094 c 128,-1,12
 1827 1065 1827 1065 1825.5 1039 c 128,-1,13
 1824 1013 1824 1013 1824 974 c 2,14,-1
 1824 535 l 2,15,16
 1824 490 1824 490 1827 457 c 128,-1,17
 1830 424 1830 424 1839 389.5 c 128,-1,18
 1848 355 1848 355 1867.5 335 c 128,-1,19
 1887 315 1887 315 1917 312 c 0,20,21
 1939 310 1939 310 1951 307.5 c 128,-1,22
 1963 305 1963 305 1977.5 298.5 c 128,-1,23
 1992 292 1992 292 1999 279 c 128,-1,24
 2006 266 2006 266 2006 247 c 0,25,26
 2006 171 2006 171 1991 88.5 c 128,-1,27
 1976 6 1976 6 1948 -13 c 1,28,29
 1876 0 1876 0 1587 0 c 0,30,31
 1313 0 1313 0 1178 -13 c 1,32,33
 1141 5 1141 5 1120.5 80.5 c 128,-1,34
 1100 156 1100 156 1100 227 c 0,35,36
 1100 246 1100 246 1106 259 c 128,-1,37
 1112 272 1112 272 1125.5 279 c 128,-1,38
 1139 286 1139 286 1148.5 288.5 c 128,-1,39
 1158 291 1158 291 1176 294 c 1,40,41
 1226 299 1226 299 1242.5 381.5 c 128,-1,42
 1259 464 1259 464 1259 615 c 0,43,44
 1259 644 1259 644 1254.5 650.5 c 128,-1,45
 1250 657 1250 657 1227 657 c 0,46,47
 1213 657 1213 657 1150 656 c 128,-1,48
 1087 655 1087 655 1035 655 c 0,49,50
 984 655 984 655 921 656 c 128,-1,51
 858 657 858 657 844 657 c 0,52,53
 822 657 822 657 817.5 650 c 128,-1,54
 813 643 813 643 813 615 c 0,55,56
 813 566 813 566 814 530.5 c 128,-1,57
 815 495 815 495 820 448.5 c 128,-1,58
 825 402 825 402 833.5 372 c 128,-1,59
 842 342 842 342 858 319.5 c 128,-1,60
 874 297 874 297 897 294 c 0,61,62
 915 291 915 291 924.5 288.5 c 128,-1,63
 934 286 934 286 947.5 279 c 128,-1,64
 961 272 961 272 967 259 c 128,-1,65
 973 246 973 246 973 227 c 0,66,67
 973 156 973 156 952.5 80.5 c 128,-1,68
 932 5 932 5 895 -13 c 1,69,70
 783 0 783 0 576 0 c 0,71,72
 209 0 209 0 123 -13 c 1,73,74
 95 6 95 6 80 88.5 c 128,-1,75
 65 171 65 171 65 247 c 0,76,77
 65 266 65 266 72 279 c 128,-1,78
 79 292 79 292 93.5 298.5 c 128,-1,79
 108 305 108 305 120 307.5 c 128,-1,80
 132 310 132 310 154 312 c 0,81,82
 184 315 184 315 203.5 335 c 128,-1,83
 223 355 223 355 232 389.5 c 128,-1,84
 241 424 241 424 244 457 c 128,-1,85
 247 490 247 490 247 535 c 2,86,-1
 247 974 l 2,87,88
 247 1013 247 1013 245.5 1039 c 128,-1,89
 244 1065 244 1065 239 1094 c 128,-1,90
 234 1123 234 1123 224.5 1140.5 c 128,-1,91
 215 1158 215 1158 198 1170.5 c 128,-1,92
 181 1183 181 1183 157 1186 c 0,93,94
 136 1188 136 1188 123.5 1191 c 128,-1,95
 111 1194 111 1194 96.5 1200.5 c 128,-1,96
 82 1207 82 1207 75 1220 c 128,-1,97
 68 1233 68 1233 68 1252 c 0,98,99
 68 1325 68 1325 83 1405 c 128,-1,100
 98 1485 98 1485 126 1503 c 1,101,102
 219 1489 219 1489 579 1489 c 0,103,104
 778 1489 778 1489 898 1503 c 1,105,106
 935 1485 935 1485 955.5 1408 c 128,-1,107
 976 1331 976 1331 976 1259 c 0,108,109
 976 1240 976 1240 970 1227 c 128,-1,110
 964 1214 964 1214 949 1207 c 128,-1,111
 934 1200 934 1200 923 1197 c 128,-1,112
 912 1194 912 1194 889 1190 c 1,113,114
 813 1182 813 1182 813 922 c 0,115,116
 813 908 813 908 815 901 c 128,-1,117
 817 894 817 894 826 888 c 128,-1,118
 835 882 835 882 853 882 c 0,119,120
 867 882 867 882 926 882.5 c 128,-1,121
 985 883 985 883 1032 883 c 0,122,123
 1086 883 1086 883 1151.5 882 c 128,-1,124
 1217 881 1217 881 1231 881 c 0,125,126
 1251 881 1251 881 1255 886 c 128,-1,127
 1259 891 1259 891 1259 911 c 0,128,129
 1259 1054 1259 1054 1246.5 1120 c 128,-1,130
 1234 1186 1234 1186 1190 1190 c 1,131,132
 1167 1194 1167 1194 1156 1197 c 128,-1,133
 1145 1200 1145 1200 1130 1207 c 128,-1,134
 1115 1214 1115 1214 1109 1227 c 128,-1,135
 1103 1240 1103 1240 1103 1259 c 0,136,137
 1103 1331 1103 1331 1123.5 1408 c 128,-1,138
 1144 1485 1144 1485 1181 1503 c 1,139,140
 1327 1489 1327 1489 1590 1489 c 0,141,142
 1868 1489 1868 1489 1945 1503 c 1,0,1
EndSplineSet
EndChar

StartChar: I
Encoding: 73 73 44
Width: 1045
GlyphClass: 2
Flags: W
LayerCount: 2
Fore
SplineSet
926 1503 m 1,0,1
 954 1485 954 1485 969 1405 c 128,-1,2
 984 1325 984 1325 984 1252 c 0,3,4
 984 1233 984 1233 977 1220 c 128,-1,5
 970 1207 970 1207 955.5 1200.5 c 128,-1,6
 941 1194 941 1194 928.5 1191 c 128,-1,7
 916 1188 916 1188 895 1186 c 0,8,9
 871 1183 871 1183 854 1170.5 c 128,-1,10
 837 1158 837 1158 827.5 1140.5 c 128,-1,11
 818 1123 818 1123 813 1094 c 128,-1,12
 808 1065 808 1065 806.5 1039 c 128,-1,13
 805 1013 805 1013 805 974 c 2,14,-1
 805 535 l 2,15,16
 805 490 805 490 808 457 c 128,-1,17
 811 424 811 424 820 389.5 c 128,-1,18
 829 355 829 355 848.5 335 c 128,-1,19
 868 315 868 315 898 312 c 0,20,21
 920 310 920 310 932 307.5 c 128,-1,22
 944 305 944 305 958.5 298.5 c 128,-1,23
 973 292 973 292 980 279 c 128,-1,24
 987 266 987 266 987 247 c 0,25,26
 987 171 987 171 972 89 c 128,-1,27
 957 7 957 7 929 -12 c 1,28,29
 858 0 858 0 528 0 c 0,30,31
 188 0 188 0 116 -12 c 1,32,33
 88 7 88 7 73 89 c 128,-1,34
 58 171 58 171 58 247 c 0,35,36
 58 266 58 266 65 279 c 128,-1,37
 72 292 72 292 86.5 298.5 c 128,-1,38
 101 305 101 305 113 307.5 c 128,-1,39
 125 310 125 310 147 312 c 0,40,41
 177 315 177 315 196.5 335 c 128,-1,42
 216 355 216 355 225 389.5 c 128,-1,43
 234 424 234 424 237 457 c 128,-1,44
 240 490 240 490 240 535 c 2,45,-1
 240 974 l 2,46,47
 240 1013 240 1013 238.5 1039 c 128,-1,48
 237 1065 237 1065 232 1094 c 128,-1,49
 227 1123 227 1123 217.5 1140.5 c 128,-1,50
 208 1158 208 1158 191 1170.5 c 128,-1,51
 174 1183 174 1183 150 1186 c 0,52,53
 129 1188 129 1188 116.5 1191 c 128,-1,54
 104 1194 104 1194 89.5 1200.5 c 128,-1,55
 75 1207 75 1207 68 1220 c 128,-1,56
 61 1233 61 1233 61 1252 c 0,57,58
 61 1325 61 1325 76 1405 c 128,-1,59
 91 1485 91 1485 119 1503 c 1,60,61
 201 1489 201 1489 532 1489 c 0,62,63
 814 1489 814 1489 926 1503 c 1,0,1
EndSplineSet
EndChar

StartChar: J
Encoding: 74 74 45
Width: 1313
GlyphClass: 2
Flags: W
LayerCount: 2
Fore
SplineSet
505 510 m 2,0,-1
 505 974 l 2,1,2
 505 1013 505 1013 503.5 1039 c 128,-1,3
 502 1065 502 1065 497 1094 c 128,-1,4
 492 1123 492 1123 482.5 1140.5 c 128,-1,5
 473 1158 473 1158 456 1170.5 c 128,-1,6
 439 1183 439 1183 415 1186 c 0,7,8
 394 1188 394 1188 381.5 1191 c 128,-1,9
 369 1194 369 1194 354.5 1200.5 c 128,-1,10
 340 1207 340 1207 333 1220 c 128,-1,11
 326 1233 326 1233 326 1252 c 0,12,13
 326 1325 326 1325 341 1405 c 128,-1,14
 356 1485 356 1485 384 1503 c 1,15,16
 466 1489 466 1489 797 1489 c 0,17,18
 1079 1489 1079 1489 1191 1503 c 1,19,20
 1219 1485 1219 1485 1234 1405 c 128,-1,21
 1249 1325 1249 1325 1249 1252 c 0,22,23
 1249 1233 1249 1233 1242 1220 c 128,-1,24
 1235 1207 1235 1207 1220.5 1200.5 c 128,-1,25
 1206 1194 1206 1194 1193.5 1191 c 128,-1,26
 1181 1188 1181 1188 1160 1186 c 0,27,28
 1136 1183 1136 1183 1119 1170.5 c 128,-1,29
 1102 1158 1102 1158 1092.5 1140.5 c 128,-1,30
 1083 1123 1083 1123 1078 1094 c 128,-1,31
 1073 1065 1073 1065 1071.5 1039 c 128,-1,32
 1070 1013 1070 1013 1070 974 c 2,33,-1
 1070 490 l 2,34,35
 1070 332 1070 332 1036.5 223.5 c 128,-1,36
 1003 115 1003 115 932.5 50 c 128,-1,37
 862 -15 862 -15 762.5 -43.5 c 128,-1,38
 663 -72 663 -72 521 -72 c 0,39,40
 281 -72 281 -72 158.5 -2.5 c 128,-1,41
 36 67 36 67 36 170 c 0,42,43
 36 229 36 229 77.5 269 c 128,-1,44
 119 309 119 309 185 309 c 0,45,46
 221 309 221 309 243 293.5 c 128,-1,47
 265 278 265 278 274 256 c 128,-1,48
 283 234 283 234 291.5 212.5 c 128,-1,49
 300 191 300 191 317.5 175.5 c 128,-1,50
 335 160 335 160 365 160 c 0,51,52
 396 160 396 160 419.5 175 c 128,-1,53
 443 190 443 190 463 226.5 c 128,-1,54
 483 263 483 263 494 334.5 c 128,-1,55
 505 406 505 406 505 510 c 2,0,-1
EndSplineSet
EndChar

StartChar: K
Encoding: 75 75 46
Width: 1987
GlyphClass: 2
Flags: W
LayerCount: 2
Fore
SplineSet
126 1503 m 1,0,1
 208 1489 208 1489 528 1489 c 0,2,3
 777 1489 777 1489 917 1503 c 1,4,5
 945 1485 945 1485 960 1409.5 c 128,-1,6
 975 1334 975 1334 975 1262 c 0,7,8
 975 1243 975 1243 969 1230 c 128,-1,9
 963 1217 963 1217 949.5 1210 c 128,-1,10
 936 1203 936 1203 926.5 1200.5 c 128,-1,11
 917 1198 917 1198 899 1195 c 0,12,13
 812 1185 812 1185 812 914 c 2,14,-1
 812 838 l 1,15,16
 850 863 850 863 932.5 929 c 128,-1,17
 1015 995 1015 995 1105.5 1069.5 c 128,-1,18
 1196 1144 1196 1144 1202 1149 c 0,19,20
 1225 1167 1225 1167 1225 1184 c 128,-1,21
 1225 1201 1225 1201 1194 1226.5 c 128,-1,22
 1163 1252 1163 1252 1163 1266 c 0,23,24
 1163 1268 1163 1268 1165 1274 c 0,25,26
 1169 1284 1169 1284 1181.5 1314 c 128,-1,27
 1194 1344 1194 1344 1200.5 1359 c 128,-1,28
 1207 1374 1207 1374 1218.5 1400.5 c 128,-1,29
 1230 1427 1230 1427 1237.5 1441.5 c 128,-1,30
 1245 1456 1245 1456 1254.5 1472 c 128,-1,31
 1264 1488 1264 1488 1271 1495.5 c 128,-1,32
 1278 1503 1278 1503 1283 1503 c 0,33,34
 1284 1503 1284 1503 1327.5 1499.5 c 128,-1,35
 1371 1496 1371 1496 1442.5 1492.5 c 128,-1,36
 1514 1489 1514 1489 1584 1489 c 0,37,38
 1676 1489 1676 1489 1753.5 1496 c 128,-1,39
 1831 1503 1831 1503 1847 1503 c 0,40,41
 1875 1503 1875 1503 1884.5 1492 c 128,-1,42
 1894 1481 1894 1481 1894 1452 c 0,43,44
 1894 1432 1894 1432 1888 1377 c 128,-1,45
 1882 1322 1882 1322 1882 1317 c 0,46,47
 1879 1268 1879 1268 1865 1241.5 c 128,-1,48
 1851 1215 1851 1215 1824 1203.5 c 128,-1,49
 1797 1192 1797 1192 1766.5 1186 c 128,-1,50
 1736 1180 1736 1180 1687.5 1162 c 128,-1,51
 1639 1144 1639 1144 1594 1114 c 1,52,-1
 1291 883 l 1,53,54
 1371 811 1371 811 1427 756 c 0,55,56
 1490 694 1490 694 1542 621.5 c 128,-1,57
 1594 549 1594 549 1621 497 c 128,-1,58
 1648 445 1648 445 1681 396.5 c 128,-1,59
 1714 348 1714 348 1747 325 c 0,60,61
 1769 310 1769 310 1803.5 301.5 c 128,-1,62
 1838 293 1838 293 1861.5 290 c 128,-1,63
 1885 287 1885 287 1902.5 269 c 128,-1,64
 1920 251 1920 251 1920 216 c 0,65,66
 1920 174 1920 174 1907 153 c 1,67,68
 1885 104 1885 104 1855 71 c 128,-1,69
 1825 38 1825 38 1791.5 18.5 c 128,-1,70
 1758 -1 1758 -1 1707 -11 c 128,-1,71
 1656 -21 1656 -21 1608.5 -24 c 128,-1,72
 1561 -27 1561 -27 1488 -27 c 0,73,74
 1428 -27 1428 -27 1381 -21.5 c 128,-1,75
 1334 -16 1334 -16 1297.5 -2.5 c 128,-1,76
 1261 11 1261 11 1235 26.5 c 128,-1,77
 1209 42 1209 42 1186.5 70.5 c 128,-1,78
 1164 99 1164 99 1149.5 125 c 128,-1,79
 1135 151 1135 151 1118.5 194.5 c 128,-1,80
 1102 238 1102 238 1089.5 275 c 128,-1,81
 1077 312 1077 312 1056.5 371.5 c 128,-1,82
 1036 431 1036 431 1017 480 c 0,83,84
 1009 501 1009 501 1000 525 c 128,-1,85
 991 549 991 549 986 563 c 128,-1,86
 981 577 981 577 975 591.5 c 128,-1,87
 969 606 969 606 965.5 613.5 c 128,-1,88
 962 621 962 621 957.5 628 c 128,-1,89
 953 635 953 635 949 637.5 c 128,-1,90
 945 640 945 640 940 640 c 0,91,92
 929 640 929 640 908 625 c 2,93,-1
 812 556 l 1,94,95
 814 303 814 303 896 294 c 1,96,97
 914 291 914 291 923.5 288.5 c 128,-1,98
 933 286 933 286 946.5 279 c 128,-1,99
 960 272 960 272 966 259 c 128,-1,100
 972 246 972 246 972 227 c 0,101,102
 972 156 972 156 954.5 80.5 c 128,-1,103
 937 5 937 5 904 -13 c 1,104,105
 771 0 771 0 505 0 c 0,106,107
 196 0 196 0 123 -13 c 1,108,109
 95 6 95 6 80 88.5 c 128,-1,110
 65 171 65 171 65 247 c 0,111,112
 65 266 65 266 72 279 c 128,-1,113
 79 292 79 292 93.5 298.5 c 128,-1,114
 108 305 108 305 120 307.5 c 128,-1,115
 132 310 132 310 154 312 c 0,116,117
 184 315 184 315 203.5 335 c 128,-1,118
 223 355 223 355 232 389.5 c 128,-1,119
 241 424 241 424 244 457 c 128,-1,120
 247 490 247 490 247 535 c 2,121,-1
 247 974 l 2,122,123
 247 1013 247 1013 245.5 1039 c 128,-1,124
 244 1065 244 1065 239 1094 c 128,-1,125
 234 1123 234 1123 224.5 1140.5 c 128,-1,126
 215 1158 215 1158 198 1170.5 c 128,-1,127
 181 1183 181 1183 157 1186 c 0,128,129
 136 1188 136 1188 123.5 1191 c 128,-1,130
 111 1194 111 1194 96.5 1200.5 c 128,-1,131
 82 1207 82 1207 75 1220 c 128,-1,132
 68 1233 68 1233 68 1252 c 0,133,134
 68 1325 68 1325 83 1405 c 128,-1,135
 98 1485 98 1485 126 1503 c 1,0,1
EndSplineSet
EndChar

StartChar: L
Encoding: 76 76 47
Width: 1494
GlyphClass: 2
Flags: W
LayerCount: 2
Fore
SplineSet
812 974 m 2,0,-1
 812 420 l 2,1,2
 812 204 812 204 844 204 c 0,3,4
 911 204 911 204 963.5 228 c 128,-1,5
 1016 252 1016 252 1046.5 289 c 128,-1,6
 1077 326 1077 326 1104.5 372 c 128,-1,7
 1132 418 1132 418 1151 459.5 c 128,-1,8
 1170 501 1170 501 1199 538 c 128,-1,9
 1228 575 1228 575 1262 590 c 1,10,11
 1275 597 1275 597 1301 597 c 0,12,13
 1358 597 1358 597 1416 569.5 c 128,-1,14
 1474 542 1474 542 1474 506 c 1,15,16
 1461 437 1461 437 1401.5 288 c 128,-1,17
 1342 139 1342 139 1290 29 c 0,18,19
 1271 -13 1271 -13 1225 -13 c 0,20,21
 1223 -13 1223 -13 1190.5 -11.5 c 128,-1,22
 1158 -10 1158 -10 1100.5 -8.5 c 128,-1,23
 1043 -7 1043 -7 968.5 -5 c 128,-1,24
 894 -3 894 -3 787 -1.5 c 128,-1,25
 680 0 680 0 569 0 c 0,26,27
 209 0 209 0 123 -13 c 1,28,29
 95 6 95 6 80 88.5 c 128,-1,30
 65 171 65 171 65 247 c 0,31,32
 65 266 65 266 72 279 c 128,-1,33
 79 292 79 292 93.5 298.5 c 128,-1,34
 108 305 108 305 120 307.5 c 128,-1,35
 132 310 132 310 154 312 c 0,36,37
 184 315 184 315 203.5 335 c 128,-1,38
 223 355 223 355 232 389.5 c 128,-1,39
 241 424 241 424 244 457 c 128,-1,40
 247 490 247 490 247 535 c 2,41,-1
 247 974 l 2,42,43
 247 1013 247 1013 245.5 1039 c 128,-1,44
 244 1065 244 1065 239 1094 c 128,-1,45
 234 1123 234 1123 224.5 1140.5 c 128,-1,46
 215 1158 215 1158 198 1170.5 c 128,-1,47
 181 1183 181 1183 157 1186 c 0,48,49
 136 1188 136 1188 123.5 1191 c 128,-1,50
 111 1194 111 1194 96.5 1200.5 c 128,-1,51
 82 1207 82 1207 75 1220 c 128,-1,52
 68 1233 68 1233 68 1252 c 0,53,54
 68 1325 68 1325 83 1405 c 128,-1,55
 98 1485 98 1485 126 1503 c 1,56,57
 208 1489 208 1489 539 1489 c 0,58,59
 821 1489 821 1489 933 1503 c 1,60,61
 961 1485 961 1485 976 1405 c 128,-1,62
 991 1325 991 1325 991 1252 c 0,63,64
 991 1233 991 1233 984 1220 c 128,-1,65
 977 1207 977 1207 962.5 1200.5 c 128,-1,66
 948 1194 948 1194 935.5 1191 c 128,-1,67
 923 1188 923 1188 902 1186 c 0,68,69
 878 1183 878 1183 861 1170.5 c 128,-1,70
 844 1158 844 1158 834.5 1140.5 c 128,-1,71
 825 1123 825 1123 820 1094 c 128,-1,72
 815 1065 815 1065 813.5 1039 c 128,-1,73
 812 1013 812 1013 812 974 c 2,0,-1
EndSplineSet
EndChar

StartChar: M
Encoding: 77 77 48
Width: 2313
GlyphClass: 2
Flags: W
LayerCount: 2
Fore
SplineSet
1493 605 m 2,0,-1
 1493 756 l 2,1,2
 1493 860 1493 860 1480 865 c 1,3,4
 1468 865 1468 865 1460 850 c 1,5,6
 1349 607 1349 607 1175 154 c 2,7,-1
 1135 50 l 1,8,9
 1085 25 1085 25 1022 16 c 1,10,11
 990 18 990 18 963 56 c 1,12,13
 913 150 913 150 776.5 453 c 128,-1,14
 640 756 640 756 584 845 c 0,15,16
 573 862 573 862 564 862 c 0,17,18
 546 862 546 862 546 656 c 2,19,-1
 546 579 l 2,20,21
 546 527 546 527 548 486 c 128,-1,22
 550 445 550 445 557.5 398 c 128,-1,23
 565 351 565 351 577.5 319.5 c 128,-1,24
 590 288 590 288 613 266 c 128,-1,25
 636 244 636 244 667 241 c 0,26,27
 690 239 690 239 704.5 237 c 128,-1,28
 719 235 719 235 736 229.5 c 128,-1,29
 753 224 753 224 761.5 213.5 c 128,-1,30
 770 203 770 203 770 187 c 0,31,32
 770 128 770 128 753 65 c 128,-1,33
 736 2 736 2 705 -13 c 1,34,35
 594 0 594 0 447 0 c 0,36,37
 254 0 254 0 121 -13 c 1,38,39
 90 2 90 2 73.5 64.5 c 128,-1,40
 57 127 57 127 57 187 c 0,41,42
 57 208 57 208 74 220 c 128,-1,43
 91 232 91 232 109 235 c 128,-1,44
 127 238 127 238 159 241 c 0,45,46
 199 244 199 244 226.5 268 c 128,-1,47
 254 292 254 292 267.5 333.5 c 128,-1,48
 281 375 281 375 286.5 420 c 128,-1,49
 292 465 292 465 292 524 c 0,50,51
 292 532 292 532 291.5 680 c 128,-1,52
 291 828 291 828 291 1032 c 0,53,54
 291 1092 291 1092 267.5 1124 c 128,-1,55
 244 1156 244 1156 211 1164.5 c 128,-1,56
 178 1173 178 1173 144.5 1178 c 128,-1,57
 111 1183 111 1183 87.5 1198.5 c 128,-1,58
 64 1214 64 1214 64 1249 c 0,59,60
 64 1312 64 1312 83.5 1396 c 128,-1,61
 103 1480 103 1480 142 1503 c 1,62,63
 302 1489 302 1489 547 1489 c 0,64,65
 756 1489 756 1489 910 1504 c 1,66,67
 943 1496 943 1496 955 1479 c 128,-1,68
 967 1462 967 1462 967 1434 c 0,69,70
 967 1424 967 1424 965 1400 c 128,-1,71
 963 1376 963 1376 963 1362 c 0,72,73
 963 1320 963 1320 975 1290 c 0,74,75
 1058 1080 1058 1080 1197 792 c 1,76,77
 1329 1147 1329 1147 1364 1341 c 0,78,79
 1366 1355 1366 1355 1366.5 1395 c 128,-1,80
 1367 1435 1367 1435 1372.5 1463.5 c 128,-1,81
 1378 1492 1378 1492 1394 1503 c 1,82,83
 1509 1489 1509 1489 1796 1489 c 0,84,85
 2065 1489 2065 1489 2164 1503 c 1,86,87
 2188 1503 2188 1503 2214 1422.5 c 128,-1,88
 2240 1342 2240 1342 2240 1264 c 0,89,90
 2240 1227 2240 1227 2230 1208 c 128,-1,91
 2220 1189 2220 1189 2204 1185 c 128,-1,92
 2188 1181 2188 1181 2168.5 1180 c 128,-1,93
 2149 1179 2149 1179 2129.5 1171 c 128,-1,94
 2110 1163 2110 1163 2094 1144 c 128,-1,95
 2078 1125 2078 1125 2068 1077 c 128,-1,96
 2058 1029 2058 1029 2058 955 c 2,97,-1
 2058 575 l 2,98,99
 2058 520 2058 520 2060.5 481.5 c 128,-1,100
 2063 443 2063 443 2070.5 396.5 c 128,-1,101
 2078 350 2078 350 2096 323.5 c 128,-1,102
 2114 297 2114 297 2142 294 c 1,103,104
 2160 291 2160 291 2169.5 288.5 c 128,-1,105
 2179 286 2179 286 2192.5 279 c 128,-1,106
 2206 272 2206 272 2212 259 c 128,-1,107
 2218 246 2218 246 2218 227 c 0,108,109
 2218 156 2218 156 2200.5 80.5 c 128,-1,110
 2183 5 2183 5 2150 -13 c 1,111,112
 2036 0 2036 0 1821 0 c 0,113,114
 1540 0 1540 0 1402 -13 c 1,115,116
 1369 5 1369 5 1351.5 80.5 c 128,-1,117
 1334 156 1334 156 1334 227 c 0,118,119
 1334 246 1334 246 1340 259 c 128,-1,120
 1346 272 1346 272 1359.5 279 c 128,-1,121
 1373 286 1373 286 1382.5 288.5 c 128,-1,122
 1392 291 1392 291 1410 294 c 0,123,124
 1436 297 1436 297 1453.5 323.5 c 128,-1,125
 1471 350 1471 350 1479 398.5 c 128,-1,126
 1487 447 1487 447 1490 494 c 128,-1,127
 1493 541 1493 541 1493 605 c 2,0,-1
EndSplineSet
EndChar

StartChar: N
Encoding: 78 78 49
Width: 1881
GlyphClass: 2
Flags: W
LayerCount: 2
Fore
SplineSet
547 803 m 2,0,-1
 547 473 l 2,1,2
 547 250 547 250 660 241 c 0,3,4
 683 239 683 239 697.5 237 c 128,-1,5
 712 235 712 235 729 229.5 c 128,-1,6
 746 224 746 224 754.5 213.5 c 128,-1,7
 763 203 763 203 763 187 c 0,8,9
 763 128 763 128 746 65 c 128,-1,10
 729 2 729 2 698 -13 c 1,11,12
 588 0 588 0 446 0 c 0,13,14
 246 0 246 0 110 -13 c 1,15,16
 79 2 79 2 62.5 64.5 c 128,-1,17
 46 127 46 127 46 187 c 0,18,19
 46 208 46 208 63 220 c 128,-1,20
 80 232 80 232 98 235 c 128,-1,21
 116 238 116 238 148 241 c 0,22,23
 186 244 186 244 210.5 266 c 128,-1,24
 235 288 235 288 245.5 328.5 c 128,-1,25
 256 369 256 369 259.5 406 c 128,-1,26
 263 443 263 443 263 498 c 2,27,-1
 263 1051 l 2,28,29
 263 1101 263 1101 241.5 1130.5 c 128,-1,30
 220 1160 220 1160 189 1169.5 c 128,-1,31
 158 1179 158 1179 127.5 1185 c 128,-1,32
 97 1191 97 1191 75.5 1203.5 c 128,-1,33
 54 1216 54 1216 54 1243 c 0,34,35
 54 1275 54 1275 57.5 1315.5 c 128,-1,36
 61 1356 61 1356 80.5 1417.5 c 128,-1,37
 100 1479 100 1479 132 1503 c 1,38,39
 265 1489 265 1489 503 1489 c 0,40,41
 577 1489 577 1489 631 1492.5 c 128,-1,42
 685 1496 685 1496 711 1499.5 c 128,-1,43
 737 1503 737 1503 742 1503 c 0,44,45
 755 1503 755 1503 766.5 1496.5 c 128,-1,46
 778 1490 778 1490 792 1474.5 c 128,-1,47
 806 1459 806 1459 819 1442 c 128,-1,48
 832 1425 832 1425 856 1393 c 128,-1,49
 880 1361 880 1361 904 1333 c 0,50,51
 1321 837 1321 837 1322 838 c 1,52,53
 1331 831 1331 831 1346 831 c 1,54,-1
 1346 1021 l 2,55,56
 1346 1061 1346 1061 1344.5 1088.5 c 128,-1,57
 1343 1116 1343 1116 1336.5 1146 c 128,-1,58
 1330 1176 1330 1176 1319 1194 c 128,-1,59
 1308 1212 1308 1212 1288 1225 c 128,-1,60
 1268 1238 1268 1238 1240 1240 c 0,61,62
 1217 1242 1217 1242 1203 1244 c 128,-1,63
 1189 1246 1189 1246 1172 1251.5 c 128,-1,64
 1155 1257 1155 1257 1146.5 1267.5 c 128,-1,65
 1138 1278 1138 1278 1138 1294 c 0,66,67
 1138 1356 1138 1356 1154.5 1421.5 c 128,-1,68
 1171 1487 1171 1487 1202 1503 c 1,69,70
 1349 1489 1349 1489 1528 1489 c 0,71,72
 1658 1489 1658 1489 1781 1503 c 1,73,74
 1812 1487 1812 1487 1828.5 1421.5 c 128,-1,75
 1845 1356 1845 1356 1845 1294 c 0,76,77
 1845 1278 1845 1278 1836.5 1267.5 c 128,-1,78
 1828 1257 1828 1257 1811 1251.5 c 128,-1,79
 1794 1246 1794 1246 1779.5 1244 c 128,-1,80
 1765 1242 1765 1242 1742 1240 c 0,81,82
 1706 1237 1706 1237 1682.5 1216.5 c 128,-1,83
 1659 1196 1659 1196 1648.5 1160.5 c 128,-1,84
 1638 1125 1638 1125 1634.5 1093.5 c 128,-1,85
 1631 1062 1631 1062 1631 1021 c 2,86,-1
 1631 930 l 2,87,88
 1631 168 1631 168 1650 44 c 1,89,90
 1531 -27 1531 -27 1441 -27 c 0,91,92
 1374 -27 1374 -27 1305 12.5 c 128,-1,93
 1236 52 1236 52 1152 138 c 1,94,95
 1063 235 1063 235 626 770 c 0,96,97
 573 834 573 834 559 834 c 0,98,99
 547 834 547 834 547 803 c 2,0,-1
EndSplineSet
EndChar

StartChar: O
Encoding: 79 79 50
Width: 1826
GlyphClass: 2
Flags: W
LayerCount: 2
Fore
SplineSet
918 -27 m 0,0,1
 513 -27 513 -27 275.5 177.5 c 128,-1,2
 38 382 38 382 38 748 c 0,3,4
 38 1108 38 1108 274.5 1312 c 128,-1,5
 511 1516 511 1516 925 1516 c 0,6,7
 1095 1516 1095 1516 1237 1479 c 128,-1,8
 1379 1442 1379 1442 1481 1375 c 128,-1,9
 1583 1308 1583 1308 1653.5 1215.5 c 128,-1,10
 1724 1123 1724 1123 1758 1011.5 c 128,-1,11
 1792 900 1792 900 1792 773 c 0,12,13
 1792 608 1792 608 1747 474 c 128,-1,14
 1702 340 1702 340 1623 247.5 c 128,-1,15
 1544 155 1544 155 1433.5 92.5 c 128,-1,16
 1323 30 1323 30 1194 1.5 c 128,-1,17
 1065 -27 1065 -27 918 -27 c 0,0,1
931 220 m 0,18,19
 958 220 958 220 980.5 233.5 c 128,-1,20
 1003 247 1003 247 1018.5 275.5 c 128,-1,21
 1034 304 1034 304 1045.5 334 c 128,-1,22
 1057 364 1057 364 1063.5 411 c 128,-1,23
 1070 458 1070 458 1074.5 493.5 c 128,-1,24
 1079 529 1079 529 1080.5 584 c 128,-1,25
 1082 639 1082 639 1082.5 670 c 128,-1,26
 1083 701 1083 701 1083 753 c 0,27,28
 1083 816 1083 816 1081 866.5 c 128,-1,29
 1079 917 1079 917 1073.5 982.5 c 128,-1,30
 1068 1048 1068 1048 1056 1096.5 c 128,-1,31
 1044 1145 1044 1145 1026 1189 c 128,-1,32
 1008 1233 1008 1233 978.5 1256 c 128,-1,33
 949 1279 949 1279 911 1279 c 0,34,35
 771 1279 771 1279 771 733 c 0,36,37
 771 220 771 220 931 220 c 0,18,19
EndSplineSet
EndChar

StartChar: P
Encoding: 80 80 51
Width: 1682
GlyphClass: 2
Flags: W
LayerCount: 2
Fore
SplineSet
822 822 m 1,0,1
 828 819 828 819 836 815.5 c 128,-1,2
 844 812 844 812 847.5 810.5 c 128,-1,3
 851 809 851 809 856 807 c 128,-1,4
 861 805 861 805 863 804.5 c 128,-1,5
 865 804 865 804 868.5 803 c 128,-1,6
 872 802 872 802 875.5 801.5 c 128,-1,7
 879 801 879 801 882.5 801 c 128,-1,8
 886 801 886 801 891 801 c 0,9,10
 1013 801 1013 801 1013 1102 c 0,11,12
 1013 1338 1013 1338 912 1338 c 0,13,14
 880 1338 880 1338 859.5 1322.5 c 128,-1,15
 839 1307 839 1307 829 1274 c 128,-1,16
 819 1241 819 1241 815.5 1205.5 c 128,-1,17
 812 1170 812 1170 812 1116 c 0,18,19
 812 1112 812 1112 811.5 1081.5 c 128,-1,20
 811 1051 811 1051 811 1012 c 0,21,22
 811 935 811 935 812 873 c 0,23,24
 812 844 812 844 822 822 c 1,0,1
126 1503 m 1,25,26
 136 1503 136 1503 213.5 1499 c 128,-1,27
 291 1495 291 1495 368.5 1492 c 128,-1,28
 446 1489 446 1489 498 1489 c 0,29,30
 566 1489 566 1489 704.5 1496 c 128,-1,31
 843 1503 843 1503 915 1503 c 0,32,33
 968 1503 968 1503 1007.5 1502 c 128,-1,34
 1047 1501 1047 1501 1108.5 1497 c 128,-1,35
 1170 1493 1170 1493 1216.5 1485.5 c 128,-1,36
 1263 1478 1263 1478 1321 1463 c 128,-1,37
 1379 1448 1379 1448 1421.5 1428 c 128,-1,38
 1464 1408 1464 1408 1507 1376.5 c 128,-1,39
 1550 1345 1550 1345 1577.5 1305.5 c 128,-1,40
 1605 1266 1605 1266 1622 1212 c 128,-1,41
 1639 1158 1639 1158 1639 1093 c 0,42,43
 1639 988 1639 988 1603 905 c 128,-1,44
 1567 822 1567 822 1506.5 768 c 128,-1,45
 1446 714 1446 714 1361 678.5 c 128,-1,46
 1276 643 1276 643 1183.5 628 c 128,-1,47
 1091 613 1091 613 985 613 c 0,48,49
 922 613 922 613 812 622 c 1,50,51
 812 304 812 304 897 296 c 0,52,53
 899 296 899 296 909 294 c 128,-1,54
 919 292 919 292 921.5 291.5 c 128,-1,55
 924 291 924 291 933 289 c 128,-1,56
 942 287 942 287 945 285.5 c 128,-1,57
 948 284 948 284 955 281 c 128,-1,58
 962 278 962 278 965 275 c 128,-1,59
 968 272 968 272 972.5 267 c 128,-1,60
 977 262 977 262 979 256.5 c 128,-1,61
 981 251 981 251 982.5 243.5 c 128,-1,62
 984 236 984 236 984 227 c 0,63,64
 984 149 984 149 968.5 77 c 128,-1,65
 953 5 953 5 916 -13 c 1,66,67
 781 0 781 0 497 0 c 0,68,69
 193 0 193 0 123 -13 c 1,70,71
 95 6 95 6 80 88.5 c 128,-1,72
 65 171 65 171 65 247 c 0,73,74
 65 266 65 266 72 279 c 128,-1,75
 79 292 79 292 93.5 298.5 c 128,-1,76
 108 305 108 305 120 307.5 c 128,-1,77
 132 310 132 310 154 312 c 0,78,79
 184 315 184 315 203.5 335 c 128,-1,80
 223 355 223 355 232 389.5 c 128,-1,81
 241 424 241 424 244 457 c 128,-1,82
 247 490 247 490 247 535 c 2,83,-1
 247 974 l 2,84,85
 247 1013 247 1013 245.5 1039 c 128,-1,86
 244 1065 244 1065 239 1094 c 128,-1,87
 234 1123 234 1123 224.5 1140.5 c 128,-1,88
 215 1158 215 1158 198 1170.5 c 128,-1,89
 181 1183 181 1183 157 1186 c 0,90,91
 136 1188 136 1188 123.5 1191 c 128,-1,92
 111 1194 111 1194 96.5 1200.5 c 128,-1,93
 82 1207 82 1207 75 1220 c 128,-1,94
 68 1233 68 1233 68 1252 c 0,95,96
 68 1325 68 1325 83 1405 c 128,-1,97
 98 1485 98 1485 126 1503 c 1,25,26
EndSplineSet
EndChar

StartChar: Q
Encoding: 81 81 52
Width: 1869
GlyphClass: 2
Flags: W
LayerCount: 2
Fore
SplineSet
933 231 m 0,0,1
 960 231 960 231 981.5 244 c 128,-1,2
 1003 257 1003 257 1018.5 283.5 c 128,-1,3
 1034 310 1034 310 1045.5 339 c 128,-1,4
 1057 368 1057 368 1064 412 c 128,-1,5
 1071 456 1071 456 1075 492.5 c 128,-1,6
 1079 529 1079 529 1081 581.5 c 128,-1,7
 1083 634 1083 634 1083.5 668 c 128,-1,8
 1084 702 1084 702 1084 752 c 0,9,10
 1084 834 1084 834 1081.5 898 c 128,-1,11
 1079 962 1079 962 1073 1029.5 c 128,-1,12
 1067 1097 1067 1097 1054.5 1145.5 c 128,-1,13
 1042 1194 1042 1194 1023.5 1233.5 c 128,-1,14
 1005 1273 1005 1273 977 1293 c 128,-1,15
 949 1313 949 1313 913 1313 c 0,16,17
 775 1313 775 1313 775 733 c 0,18,19
 775 231 775 231 933 231 c 0,0,1
997 -27 m 1,20,21
 842 -27 842 -27 704 -0.5 c 128,-1,22
 566 26 566 26 442.5 86 c 128,-1,23
 319 146 319 146 230 235.5 c 128,-1,24
 141 325 141 325 89 459 c 128,-1,25
 37 593 37 593 37 760 c 0,26,27
 37 1109 37 1109 272 1312.5 c 128,-1,28
 507 1516 507 1516 915 1516 c 0,29,30
 1338 1516 1338 1516 1567 1312 c 128,-1,31
 1796 1108 1796 1108 1796 756 c 0,32,33
 1796 548 1796 548 1712.5 392 c 128,-1,34
 1629 236 1629 236 1456 120 c 1,35,36
 1474 78 1474 78 1518.5 47.5 c 128,-1,37
 1563 17 1563 17 1615 1.5 c 128,-1,38
 1667 -14 1667 -14 1717.5 -25 c 128,-1,39
 1768 -36 1768 -36 1805 -45.5 c 128,-1,40
 1842 -55 1842 -55 1849 -66 c 1,41,42
 1847 -113 1847 -113 1799 -201 c 0,43,44
 1746 -298 1746 -298 1549 -298 c 0,45,46
 1472 -298 1472 -298 1411.5 -282 c 128,-1,47
 1351 -266 1351 -266 1314 -241.5 c 128,-1,48
 1277 -217 1277 -217 1249 -178.5 c 128,-1,49
 1221 -140 1221 -140 1207.5 -106 c 128,-1,50
 1194 -72 1194 -72 1181 -25 c 1,51,52
 1135 -25 1135 -25 997 -27 c 1,20,21
EndSplineSet
EndChar

StartChar: R
Encoding: 82 82 53
Width: 1895
GlyphClass: 2
Flags: W
LayerCount: 2
Fore
SplineSet
812 846 m 1,0,1
 854 836 854 836 897 836 c 0,2,3
 1029 836 1029 836 1029 1097 c 0,4,5
 1029 1141 1029 1141 1024 1174.5 c 128,-1,6
 1019 1208 1019 1208 1007 1239 c 128,-1,7
 995 1270 995 1270 970 1286.5 c 128,-1,8
 945 1303 945 1303 908 1303 c 0,9,10
 853 1303 853 1303 832.5 1253.5 c 128,-1,11
 812 1204 812 1204 812 1111 c 2,12,-1
 812 846 l 1,0,1
126 1503 m 1,13,14
 339 1489 339 1489 446 1489 c 0,15,16
 581 1489 581 1489 713 1496 c 128,-1,17
 845 1503 845 1503 941 1503 c 0,18,19
 1010 1503 1010 1503 1057 1501.5 c 128,-1,20
 1104 1500 1104 1500 1183.5 1492.5 c 128,-1,21
 1263 1485 1263 1485 1317.5 1471.5 c 128,-1,22
 1372 1458 1372 1458 1437 1430 c 128,-1,23
 1502 1402 1502 1402 1541.5 1363.5 c 128,-1,24
 1581 1325 1581 1325 1608 1264.5 c 128,-1,25
 1635 1204 1635 1204 1635 1128 c 0,26,27
 1635 839 1635 839 1346 767 c 1,28,29
 1413 749 1413 749 1463.5 720 c 128,-1,30
 1514 691 1514 691 1548 653.5 c 128,-1,31
 1582 616 1582 616 1605.5 564 c 128,-1,32
 1629 512 1629 512 1642.5 455.5 c 128,-1,33
 1656 399 1656 399 1665 323 c 0,34,35
 1669 292 1669 292 1690.5 277.5 c 128,-1,36
 1712 263 1712 263 1737.5 262.5 c 128,-1,37
 1763 262 1763 262 1794 256 c 128,-1,38
 1825 250 1825 250 1842 235 c 1,39,40
 1842 174 1842 174 1838.5 138.5 c 128,-1,41
 1835 103 1835 103 1821 69.5 c 128,-1,42
 1807 36 1807 36 1784.5 20.5 c 128,-1,43
 1762 5 1762 5 1717 -7.5 c 128,-1,44
 1672 -20 1672 -20 1614 -23.5 c 128,-1,45
 1556 -27 1556 -27 1465 -27 c 0,46,47
 1337 -27 1337 -27 1256 -1 c 128,-1,48
 1175 25 1175 25 1138.5 71 c 128,-1,49
 1102 117 1102 117 1086 174 c 128,-1,50
 1070 231 1070 231 1062.5 298.5 c 128,-1,51
 1055 366 1055 366 1042.5 429.5 c 128,-1,52
 1030 493 1030 493 989.5 557.5 c 128,-1,53
 949 622 949 622 878 667 c 1,54,-1
 812 667 l 1,55,56
 812 620 812 620 812.5 586 c 128,-1,57
 813 552 813 552 815.5 505.5 c 128,-1,58
 818 459 818 459 823.5 426.5 c 128,-1,59
 829 394 829 394 837.5 362.5 c 128,-1,60
 846 331 846 331 860 314.5 c 128,-1,61
 874 298 874 298 893 296 c 0,62,63
 895 296 895 296 905 294 c 128,-1,64
 915 292 915 292 917.5 291.5 c 128,-1,65
 920 291 920 291 929 289 c 128,-1,66
 938 287 938 287 941 285.5 c 128,-1,67
 944 284 944 284 951 281 c 128,-1,68
 958 278 958 278 961 275 c 128,-1,69
 964 272 964 272 968.5 267 c 128,-1,70
 973 262 973 262 975 256.5 c 128,-1,71
 977 251 977 251 978.5 243.5 c 128,-1,72
 980 236 980 236 980 227 c 0,73,74
 980 155 980 155 962.5 79.5 c 128,-1,75
 945 4 945 4 912 -14 c 1,76,77
 778 0 778 0 543 0 c 0,78,79
 201 0 201 0 123 -13 c 1,80,81
 95 6 95 6 80 88.5 c 128,-1,82
 65 171 65 171 65 247 c 0,83,84
 65 266 65 266 72 279 c 128,-1,85
 79 292 79 292 93.5 298.5 c 128,-1,86
 108 305 108 305 120 307.5 c 128,-1,87
 132 310 132 310 154 312 c 0,88,89
 184 315 184 315 203.5 335 c 128,-1,90
 223 355 223 355 232 389.5 c 128,-1,91
 241 424 241 424 244 457 c 128,-1,92
 247 490 247 490 247 535 c 2,93,-1
 247 974 l 2,94,95
 247 1013 247 1013 245.5 1039 c 128,-1,96
 244 1065 244 1065 239 1094 c 128,-1,97
 234 1123 234 1123 224.5 1140.5 c 128,-1,98
 215 1158 215 1158 198 1170.5 c 128,-1,99
 181 1183 181 1183 157 1186 c 0,100,101
 136 1188 136 1188 123.5 1191 c 128,-1,102
 111 1194 111 1194 96.5 1200.5 c 128,-1,103
 82 1207 82 1207 75 1220 c 128,-1,104
 68 1233 68 1233 68 1252 c 0,105,106
 68 1325 68 1325 83 1405 c 128,-1,107
 98 1485 98 1485 126 1503 c 1,13,14
EndSplineSet
EndChar

StartChar: S
Encoding: 83 83 54
Width: 1520
GlyphClass: 2
Flags: W
LayerCount: 2
Fore
SplineSet
1062 1430 m 1,0,1
 1063 1434 1063 1434 1067 1446 c 128,-1,2
 1071 1458 1071 1458 1072 1460 c 128,-1,3
 1073 1462 1073 1462 1076.5 1471 c 128,-1,4
 1080 1480 1080 1480 1083 1481 c 128,-1,5
 1086 1482 1086 1482 1091.5 1488 c 128,-1,6
 1097 1494 1097 1494 1103 1494.5 c 128,-1,7
 1109 1495 1109 1495 1118.5 1498 c 128,-1,8
 1128 1501 1128 1501 1139.5 1501 c 128,-1,9
 1151 1501 1151 1501 1166 1502 c 128,-1,10
 1181 1503 1181 1503 1200 1503 c 0,11,12
 1221 1503 1221 1503 1250.5 1500.5 c 128,-1,13
 1280 1498 1280 1498 1298 1496 c 2,14,-1
 1317 1494 l 1,15,16
 1327 1471 1327 1471 1342.5 1432.5 c 128,-1,17
 1358 1394 1358 1394 1383.5 1301 c 128,-1,18
 1409 1208 1409 1208 1409 1147 c 0,19,20
 1409 1109 1409 1109 1340 1086.5 c 128,-1,21
 1271 1064 1271 1064 1203 1064 c 0,22,23
 1159 1064 1159 1064 1152 1074 c 0,24,25
 1128 1111 1128 1111 1094.5 1145.5 c 128,-1,26
 1061 1180 1061 1180 1013.5 1213 c 128,-1,27
 966 1246 966 1246 902.5 1265.5 c 128,-1,28
 839 1285 839 1285 769 1285 c 0,29,30
 679 1285 679 1285 622 1263.5 c 128,-1,31
 565 1242 565 1242 565 1203 c 0,32,33
 565 1183 565 1183 583 1163.5 c 128,-1,34
 601 1144 601 1144 636.5 1127.5 c 128,-1,35
 672 1111 672 1111 709.5 1097 c 128,-1,36
 747 1083 747 1083 800.5 1069.5 c 128,-1,37
 854 1056 854 1056 893 1047.5 c 128,-1,38
 932 1039 932 1039 985 1028 c 0,39,40
 1230 978 1230 978 1358.5 845.5 c 128,-1,41
 1487 713 1487 713 1487 519 c 1,42,43
 1480 404 1480 404 1440.5 310.5 c 128,-1,44
 1401 217 1401 217 1339.5 155 c 128,-1,45
 1278 93 1278 93 1196 51.5 c 128,-1,46
 1114 10 1114 10 1024.5 -8.5 c 128,-1,47
 935 -27 935 -27 836 -27 c 0,48,49
 571 -27 571 -27 416 58 c 1,50,51
 415 54 415 54 412 41 c 128,-1,52
 409 28 409 28 407 23.5 c 128,-1,53
 405 19 405 19 398.5 10 c 128,-1,54
 392 1 392 1 383 -2.5 c 128,-1,55
 374 -6 374 -6 357.5 -9.5 c 128,-1,56
 341 -13 341 -13 318 -13 c 0,57,58
 249 -13 249 -13 171 -5 c 1,59,60
 69 237 69 237 69 367 c 0,61,62
 69 410 69 410 128 438 c 128,-1,63
 187 466 187 466 249 466 c 0,64,65
 286 466 286 466 306 454 c 1,66,67
 361 360 361 360 495.5 288 c 128,-1,68
 630 216 630 216 743 216 c 0,69,70
 827 216 827 216 889 243.5 c 128,-1,71
 951 271 951 271 951 323 c 0,72,73
 951 341 951 341 942 357.5 c 128,-1,74
 933 374 933 374 914.5 388.5 c 128,-1,75
 896 403 896 403 875 415.5 c 128,-1,76
 854 428 854 428 822 440.5 c 128,-1,77
 790 453 790 453 763 462.5 c 128,-1,78
 736 472 736 472 696 483 c 128,-1,79
 656 494 656 494 628 501 c 128,-1,80
 600 508 600 508 558.5 519 c 128,-1,81
 517 530 517 530 493 536 c 0,82,83
 411 558 411 558 345.5 584.5 c 128,-1,84
 280 611 280 611 221 651 c 128,-1,85
 162 691 162 691 122.5 741 c 128,-1,86
 83 791 83 791 60 860 c 128,-1,87
 37 929 37 929 37 1012 c 0,88,89
 37 1175 37 1175 116.5 1289.5 c 128,-1,90
 196 1404 196 1404 336 1460 c 128,-1,91
 476 1516 476 1516 666 1516 c 0,92,93
 782 1516 782 1516 873.5 1493 c 128,-1,94
 965 1470 965 1470 1062 1430 c 1,0,1
EndSplineSet
EndChar

StartChar: T
Encoding: 84 84 55
Width: 1580
GlyphClass: 2
Flags: W
LayerCount: 2
Fore
SplineSet
1513 1503 m 1,0,1
 1515 1490 1515 1490 1526.5 1430 c 128,-1,2
 1538 1370 1538 1370 1546.5 1322 c 128,-1,3
 1555 1274 1555 1274 1563 1210.5 c 128,-1,4
 1571 1147 1571 1147 1571 1105 c 0,5,6
 1571 1092 1571 1092 1566 1075 c 1,7,8
 1553 1057 1553 1057 1471 1035.5 c 128,-1,9
 1389 1014 1389 1014 1335 1014 c 0,10,11
 1323 1014 1323 1014 1317 1017 c 1,12,13
 1312 1028 1312 1028 1300 1055.5 c 128,-1,14
 1288 1083 1288 1083 1280.5 1099 c 128,-1,15
 1273 1115 1273 1115 1260.5 1142.5 c 128,-1,16
 1248 1170 1248 1170 1238.5 1187 c 128,-1,17
 1229 1204 1229 1204 1216 1226.5 c 128,-1,18
 1203 1249 1203 1249 1191.5 1263 c 128,-1,19
 1180 1277 1180 1277 1167 1290.5 c 128,-1,20
 1154 1304 1154 1304 1141 1310 c 128,-1,21
 1128 1316 1128 1316 1116 1316 c 0,22,23
 1078 1316 1078 1316 1078 1243 c 2,24,-1
 1078 605 l 2,25,26
 1078 539 1078 539 1080.5 493.5 c 128,-1,27
 1083 448 1083 448 1090.5 399 c 128,-1,28
 1098 350 1098 350 1115.5 323.5 c 128,-1,29
 1133 297 1133 297 1159 294 c 0,30,31
 1177 291 1177 291 1186.5 288.5 c 128,-1,32
 1196 286 1196 286 1209.5 279 c 128,-1,33
 1223 272 1223 272 1229 259 c 128,-1,34
 1235 246 1235 246 1235 227 c 0,35,36
 1235 156 1235 156 1214.5 80.5 c 128,-1,37
 1194 5 1194 5 1157 -13 c 1,38,39
 1044 0 1044 0 796 0 c 128,-1,40
 548 0 548 0 435 -13 c 1,41,42
 398 5 398 5 377.5 80.5 c 128,-1,43
 357 156 357 156 357 227 c 0,44,45
 357 246 357 246 363 259 c 128,-1,46
 369 272 369 272 382.5 279 c 128,-1,47
 396 286 396 286 405.5 288.5 c 128,-1,48
 415 291 415 291 433 294 c 0,49,50
 459 297 459 297 476.5 323.5 c 128,-1,51
 494 350 494 350 501 399 c 128,-1,52
 508 448 508 448 510.5 493 c 128,-1,53
 513 538 513 538 513 605 c 2,54,-1
 513 1243 l 2,55,56
 513 1316 513 1316 476 1316 c 0,57,58
 458 1316 458 1316 440.5 1306.5 c 128,-1,59
 423 1297 423 1297 404 1274.5 c 128,-1,60
 385 1252 385 1252 371 1234 c 128,-1,61
 357 1216 357 1216 337 1179 c 128,-1,62
 317 1142 317 1142 308 1125.5 c 128,-1,63
 299 1109 299 1109 279 1066.5 c 128,-1,64
 259 1024 259 1024 255 1017 c 1,65,66
 248 1014 248 1014 237 1014 c 0,67,68
 183 1014 183 1014 101 1035.5 c 128,-1,69
 19 1057 19 1057 6 1075 c 1,70,71
 1 1092 1 1092 1 1105 c 0,72,73
 1 1147 1 1147 9 1210 c 128,-1,74
 17 1273 17 1273 25.5 1321.5 c 128,-1,75
 34 1370 34 1370 45.5 1430 c 128,-1,76
 57 1490 57 1490 59 1503 c 1,77,78
 245 1489 245 1489 796 1489 c 0,79,80
 1332 1489 1332 1489 1513 1503 c 1,0,1
EndSplineSet
EndChar

StartChar: U
Encoding: 85 85 56
Width: 1841
GlyphClass: 2
Flags: W
LayerCount: 2
Fore
SplineSet
1648 989 m 2,0,-1
 1648 698 l 2,1,2
 1648 523 1648 523 1613.5 394 c 128,-1,3
 1579 265 1579 265 1520 185 c 128,-1,4
 1461 105 1461 105 1368.5 57 c 128,-1,5
 1276 9 1276 9 1173.5 -9 c 128,-1,6
 1071 -27 1071 -27 935 -27 c 0,7,8
 863 -27 863 -27 809 -24.5 c 128,-1,9
 755 -22 755 -22 690 -14 c 128,-1,10
 625 -6 625 -6 576.5 8 c 128,-1,11
 528 22 528 22 475 46.5 c 128,-1,12
 422 71 422 71 384.5 105.5 c 128,-1,13
 347 140 347 140 312 190 c 128,-1,14
 277 240 277 240 255.5 303 c 128,-1,15
 234 366 234 366 221 450 c 128,-1,16
 208 534 208 534 208 635 c 2,17,-1
 208 914 l 2,18,19
 208 975 208 975 205.5 1014.5 c 128,-1,20
 203 1054 203 1054 195.5 1095 c 128,-1,21
 188 1136 188 1136 171.5 1157 c 128,-1,22
 155 1178 155 1178 128 1181 c 0,23,24
 110 1184 110 1184 100.5 1186.5 c 128,-1,25
 91 1189 91 1189 77.5 1196 c 128,-1,26
 64 1203 64 1203 58 1216 c 128,-1,27
 52 1229 52 1229 52 1248 c 0,28,29
 52 1323 52 1323 72.5 1403.5 c 128,-1,30
 93 1484 93 1484 130 1503 c 1,31,32
 273 1489 273 1489 532 1489 c 0,33,34
 738 1489 738 1489 861 1503 c 1,35,36
 898 1484 898 1484 918.5 1403.5 c 128,-1,37
 939 1323 939 1323 939 1248 c 0,38,39
 939 1229 939 1229 933 1216 c 128,-1,40
 927 1203 927 1203 913.5 1196 c 128,-1,41
 900 1189 900 1189 890.5 1186.5 c 128,-1,42
 881 1184 881 1184 863 1181 c 0,43,44
 773 1171 773 1171 773 914 c 2,45,-1
 773 623 l 2,46,47
 773 550 773 550 776.5 498 c 128,-1,48
 780 446 780 446 792.5 392.5 c 128,-1,49
 805 339 805 339 826 306.5 c 128,-1,50
 847 274 847 274 884 253.5 c 128,-1,51
 921 233 921 233 973 233 c 0,52,53
 1006 233 1006 233 1034 241 c 128,-1,54
 1062 249 1062 249 1082 260.5 c 128,-1,55
 1102 272 1102 272 1117.5 293.5 c 128,-1,56
 1133 315 1133 315 1143 334 c 128,-1,57
 1153 353 1153 353 1160.5 384 c 128,-1,58
 1168 415 1168 415 1171.5 437 c 128,-1,59
 1175 459 1175 459 1176.5 495.5 c 128,-1,60
 1178 532 1178 532 1178.5 553 c 128,-1,61
 1179 574 1179 574 1179 612 c 2,62,-1
 1179 989 l 2,63,64
 1179 1033 1179 1033 1176.5 1062 c 128,-1,65
 1174 1091 1174 1091 1166.5 1120.5 c 128,-1,66
 1159 1150 1159 1150 1142.5 1166 c 128,-1,67
 1126 1182 1126 1182 1100 1184 c 1,68,69
 1083 1187 1083 1187 1073 1190 c 128,-1,70
 1063 1193 1063 1193 1053.5 1204 c 128,-1,71
 1044 1215 1044 1215 1044 1234 c 0,72,73
 1044 1312 1044 1312 1064 1397.5 c 128,-1,74
 1084 1483 1084 1483 1121 1503 c 1,75,76
 1233 1489 1233 1489 1435 1489 c 0,77,78
 1620 1489 1620 1489 1721 1503 c 1,79,80
 1753 1483 1753 1483 1771 1397.5 c 128,-1,81
 1789 1312 1789 1312 1789 1234 c 0,82,83
 1789 1215 1789 1215 1779 1204 c 128,-1,84
 1769 1193 1769 1193 1759 1190 c 128,-1,85
 1749 1187 1749 1187 1732 1184 c 1,86,87
 1648 1176 1648 1176 1648 989 c 2,0,-1
EndSplineSet
EndChar

StartChar: V
Encoding: 86 86 57
Width: 1628
GlyphClass: 2
Flags: W
LayerCount: 2
Fore
SplineSet
956 0 m 2,0,-1
 751 0 l 2,1,2
 718 0 718 0 691.5 8 c 128,-1,3
 665 16 665 16 643.5 36 c 128,-1,4
 622 56 622 56 606.5 75.5 c 128,-1,5
 591 95 591 95 573.5 134 c 128,-1,6
 556 173 556 173 544.5 202 c 128,-1,7
 533 231 533 231 512 286.5 c 128,-1,8
 491 342 491 342 476 379 c 0,9,10
 433 484 433 484 376 625.5 c 128,-1,11
 319 767 319 767 289 840.5 c 128,-1,12
 259 914 259 914 224 997 c 128,-1,13
 189 1080 189 1080 162 1138 c 0,14,15
 152 1158 152 1158 130.5 1167.5 c 128,-1,16
 109 1177 109 1177 86 1180.5 c 128,-1,17
 63 1184 63 1184 40.5 1191.5 c 128,-1,18
 18 1199 18 1199 4 1223.5 c 128,-1,19
 -10 1248 -10 1248 -10 1291 c 0,20,21
 -10 1350 -10 1350 -8.5 1384 c 128,-1,22
 -7 1418 -7 1418 1.5 1455.5 c 128,-1,23
 10 1493 10 1493 27 1503 c 1,24,25
 177 1489 177 1489 422 1489 c 0,26,27
 665 1489 665 1489 829 1503 c 1,28,29
 843 1503 843 1503 862 1412.5 c 128,-1,30
 881 1322 881 1322 881 1265 c 0,31,32
 881 1243 881 1243 866 1232.5 c 128,-1,33
 851 1222 851 1222 833 1220 c 128,-1,34
 815 1218 815 1218 800 1207 c 128,-1,35
 785 1196 785 1196 785 1173 c 2,36,-1
 785 1169 l 2,37,38
 785 1153 785 1153 796 1123 c 0,39,40
 796 1122 796 1122 805.5 1092 c 128,-1,41
 815 1062 815 1062 827.5 1021.5 c 128,-1,42
 840 981 840 981 855.5 929.5 c 128,-1,43
 871 878 871 878 886.5 829 c 128,-1,44
 902 780 902 780 915.5 738.5 c 128,-1,45
 929 697 929 697 938 672 c 128,-1,46
 947 647 947 647 949 647 c 0,47,48
 953 647 953 647 993.5 759 c 128,-1,49
 1034 871 1034 871 1073.5 998 c 128,-1,50
 1113 1125 1113 1125 1113 1157 c 0,51,52
 1113 1178 1113 1178 1099.5 1195.5 c 128,-1,53
 1086 1213 1086 1213 1064 1217 c 0,54,55
 1031 1222 1031 1222 1015 1235 c 128,-1,56
 999 1248 999 1248 996.5 1260 c 128,-1,57
 994 1272 994 1272 994 1298 c 0,58,59
 994 1480 994 1480 1039 1503 c 1,60,61
 1133 1489 1133 1489 1287 1489 c 0,62,63
 1356 1489 1356 1489 1610 1503 c 1,64,65
 1638 1501 1638 1501 1638 1371 c 2,66,-1
 1638 1312 l 2,67,68
 1638 1273 1638 1273 1630.5 1253 c 128,-1,69
 1623 1233 1623 1233 1608.5 1226 c 128,-1,70
 1594 1219 1594 1219 1575.5 1216.5 c 128,-1,71
 1557 1214 1557 1214 1533 1203 c 128,-1,72
 1509 1192 1509 1192 1485 1170.5 c 128,-1,73
 1461 1149 1461 1149 1433 1097 c 128,-1,74
 1405 1045 1405 1045 1381 967 c 0,75,76
 1344 850 1344 850 1291.5 702.5 c 128,-1,77
 1239 555 1239 555 1167.5 362.5 c 128,-1,78
 1096 170 1096 170 1076 116 c 0,79,80
 1066 89 1066 89 1060 75.5 c 128,-1,81
 1054 62 1054 62 1040 41 c 128,-1,82
 1026 20 1026 20 1005 10 c 128,-1,83
 984 0 984 0 956 0 c 2,0,-1
EndSplineSet
EndChar

StartChar: W
Encoding: 87 87 58
Width: 2316
GlyphClass: 2
Flags: W
LayerCount: 2
Fore
SplineSet
1644 0 m 2,0,-1
 1479 0 l 2,1,2
 1458 0 1458 0 1440 6.5 c 128,-1,3
 1422 13 1422 13 1409.5 20.5 c 128,-1,4
 1397 28 1397 28 1384.5 46 c 128,-1,5
 1372 64 1372 64 1364.5 76 c 128,-1,6
 1357 88 1357 88 1347.5 114.5 c 128,-1,7
 1338 141 1338 141 1334 154 c 128,-1,8
 1330 167 1330 167 1321.5 199 c 128,-1,9
 1313 231 1313 231 1309 243 c 2,10,-1
 1168 716 l 1,11,12
 1024 263 1024 263 975 116 c 0,13,14
 966 90 966 90 959.5 76 c 128,-1,15
 953 62 953 62 939.5 41 c 128,-1,16
 926 20 926 20 905 10 c 128,-1,17
 884 0 884 0 856 0 c 2,18,-1
 671 0 l 2,19,20
 643 0 643 0 621 8 c 128,-1,21
 599 16 599 16 580.5 36 c 128,-1,22
 562 56 562 56 549 76 c 128,-1,23
 536 96 536 96 520.5 134 c 128,-1,24
 505 172 505 172 494.5 202 c 128,-1,25
 484 232 484 232 466 286 c 128,-1,26
 448 340 448 340 434 378 c 0,27,28
 414 433 414 433 362.5 577 c 128,-1,29
 311 721 311 721 294 766.5 c 128,-1,30
 277 812 277 812 244.5 900.5 c 128,-1,31
 212 989 212 989 191 1040.5 c 128,-1,32
 170 1092 170 1092 149 1139 c 0,33,34
 141 1156 141 1156 125 1166 c 128,-1,35
 109 1176 109 1176 90.5 1178.5 c 128,-1,36
 72 1181 72 1181 52 1187 c 128,-1,37
 32 1193 32 1193 16.5 1201.5 c 128,-1,38
 1 1210 1 1210 -9.5 1233.5 c 128,-1,39
 -20 1257 -20 1257 -20 1293 c 0,40,41
 -20 1352 -20 1352 -18.5 1386 c 128,-1,42
 -17 1420 -17 1420 -8.5 1456.5 c 128,-1,43
 0 1493 0 1493 17 1503 c 1,44,45
 182 1489 182 1489 412 1489 c 0,46,47
 649 1489 649 1489 809 1503 c 1,48,49
 823 1503 823 1503 842 1413.5 c 128,-1,50
 861 1324 861 1324 861 1267 c 0,51,52
 861 1248 861 1248 842.5 1238 c 128,-1,53
 824 1228 824 1228 801 1224.5 c 128,-1,54
 778 1221 778 1221 759.5 1205.5 c 128,-1,55
 741 1190 741 1190 741 1160 c 0,56,57
 741 1148 741 1148 746 1125 c 0,58,59
 752 1102 752 1102 813 909.5 c 128,-1,60
 874 717 874 717 879 717 c 0,61,62
 881 717 881 717 907.5 796.5 c 128,-1,63
 934 876 934 876 965 976 c 128,-1,64
 996 1076 996 1076 1009 1125 c 0,65,66
 1020 1169 1020 1169 1020 1225 c 0,67,68
 1020 1266 1020 1266 1014.5 1311.5 c 128,-1,69
 1009 1357 1009 1357 1003.5 1387 c 128,-1,70
 998 1417 998 1417 998 1422 c 0,71,72
 998 1444 998 1444 1010 1460.5 c 128,-1,73
 1022 1477 1022 1477 1040 1477 c 1,74,75
 1210 1460 1210 1460 1269 1460 c 0,76,77
 1354 1460 1354 1460 1469 1476 c 0,78,79
 1474 1477 1474 1477 1482 1477 c 0,80,81
 1519 1477 1519 1477 1519 1432 c 0,82,83
 1519 1404 1519 1404 1509.5 1354.5 c 128,-1,84
 1500 1305 1500 1305 1500 1273 c 0,85,86
 1500 1226 1500 1226 1513 1175 c 0,87,88
 1517 1161 1517 1161 1532 1101.5 c 128,-1,89
 1547 1042 1547 1042 1571 952 c 128,-1,90
 1595 862 1595 862 1614.5 794.5 c 128,-1,91
 1634 727 1634 727 1637 727 c 0,92,93
 1645 727 1645 727 1703 933 c 128,-1,94
 1761 1139 1761 1139 1761 1159 c 0,95,96
 1761 1181 1761 1181 1747.5 1200 c 128,-1,97
 1734 1219 1734 1219 1712 1219 c 1,98,99
 1687 1224 1687 1224 1672 1231 c 128,-1,100
 1657 1238 1657 1238 1650.5 1250 c 128,-1,101
 1644 1262 1644 1262 1643 1271 c 128,-1,102
 1642 1280 1642 1280 1642 1300 c 0,103,104
 1642 1480 1642 1480 1687 1503 c 1,105,106
 1818 1489 1818 1489 2005 1489 c 0,107,108
 2062 1489 2062 1489 2288 1503 c 1,109,110
 2317 1502 2317 1502 2326.5 1467.5 c 128,-1,111
 2336 1433 2336 1433 2336 1373 c 2,112,-1
 2336 1314 l 2,113,114
 2336 1275 2336 1275 2327 1255 c 128,-1,115
 2318 1235 2318 1235 2302 1228.5 c 128,-1,116
 2286 1222 2286 1222 2265 1220 c 128,-1,117
 2244 1218 2244 1218 2218 1207 c 128,-1,118
 2192 1196 2192 1196 2166 1174 c 128,-1,119
 2140 1152 2140 1152 2111 1100 c 128,-1,120
 2082 1048 2082 1048 2057 970 c 0,121,122
 1878 409 1878 409 1765 116 c 0,123,124
 1755 90 1755 90 1748 75.5 c 128,-1,125
 1741 61 1741 61 1727 40.5 c 128,-1,126
 1713 20 1713 20 1692 10 c 128,-1,127
 1671 0 1671 0 1644 0 c 2,0,-1
EndSplineSet
EndChar

StartChar: X
Encoding: 88 88 59
Width: 1774
GlyphClass: 2
Flags: W
LayerCount: 2
Fore
SplineSet
638 -13 m 1,0,1
 512 0 512 0 371 0 c 0,2,3
 209 0 209 0 68 -13 c 1,4,5
 39 0 39 0 39 59 c 0,6,7
 39 139 39 139 43 178.5 c 128,-1,8
 47 218 47 218 55.5 236.5 c 128,-1,9
 64 255 64 255 84.5 265 c 128,-1,10
 105 275 105 275 129.5 285 c 128,-1,11
 154 295 154 295 199 329 c 128,-1,12
 244 363 244 363 293 419 c 0,13,14
 296 423 296 423 366 499.5 c 128,-1,15
 436 576 436 576 486.5 636 c 128,-1,16
 537 696 537 696 587 763 c 1,17,18
 549 808 549 808 451.5 930.5 c 128,-1,19
 354 1053 354 1053 316 1103 c 0,20,21
 292 1135 292 1135 247 1156.5 c 128,-1,22
 202 1178 202 1178 165 1186.5 c 128,-1,23
 128 1195 128 1195 99.5 1214.5 c 128,-1,24
 71 1234 71 1234 71 1265 c 0,25,26
 71 1355 71 1355 76 1408 c 128,-1,27
 81 1461 81 1461 86 1475 c 128,-1,28
 91 1489 91 1489 101 1503 c 1,29,30
 183 1489 183 1489 528 1489 c 0,31,32
 795 1489 795 1489 909 1503 c 1,33,34
 924 1493 924 1493 937.5 1406 c 128,-1,35
 951 1319 951 1319 951 1257 c 0,36,37
 951 1242 951 1242 928 1227 c 128,-1,38
 905 1212 905 1212 905 1192 c 0,39,40
 905 1184 905 1184 909 1172.5 c 128,-1,41
 913 1161 913 1161 921.5 1146 c 128,-1,42
 930 1131 930 1131 938 1117.5 c 128,-1,43
 946 1104 946 1104 959.5 1084.5 c 128,-1,44
 973 1065 973 1065 980.5 1053.5 c 128,-1,45
 988 1042 988 1042 1002.5 1021.5 c 128,-1,46
 1017 1001 1017 1001 1022 995 c 1,47,48
 1072 1057 1072 1057 1115 1121 c 128,-1,49
 1158 1185 1158 1185 1158 1198 c 0,50,51
 1158 1210 1158 1210 1145 1217.5 c 128,-1,52
 1132 1225 1132 1225 1116 1230 c 128,-1,53
 1100 1235 1100 1235 1087 1255.5 c 128,-1,54
 1074 1276 1074 1276 1074 1311 c 0,55,56
 1074 1474 1074 1474 1120 1503 c 1,57,58
 1195 1489 1195 1489 1374 1489 c 0,59,60
 1573 1489 1573 1489 1690 1503 c 1,61,62
 1719 1493 1719 1493 1719 1417 c 0,63,64
 1719 1385 1719 1385 1719 1370.5 c 128,-1,65
 1719 1356 1719 1356 1718 1332 c 128,-1,66
 1717 1308 1717 1308 1715.5 1297.5 c 128,-1,67
 1714 1287 1714 1287 1710.5 1271 c 128,-1,68
 1707 1255 1707 1255 1702 1248 c 128,-1,69
 1697 1241 1697 1241 1690 1232 c 128,-1,70
 1683 1223 1683 1223 1673.5 1219 c 128,-1,71
 1664 1215 1664 1215 1651 1213 c 0,72,73
 1629 1209 1629 1209 1614 1205 c 128,-1,74
 1599 1201 1599 1201 1584.5 1197 c 128,-1,75
 1570 1193 1570 1193 1554.5 1182.5 c 128,-1,76
 1539 1172 1539 1172 1526 1164 c 128,-1,77
 1513 1156 1513 1156 1492 1135.5 c 128,-1,78
 1471 1115 1471 1115 1454.5 1099 c 128,-1,79
 1438 1083 1438 1083 1405.5 1048 c 128,-1,80
 1373 1013 1373 1013 1347.5 985 c 128,-1,81
 1322 957 1322 957 1272.5 903 c 128,-1,82
 1223 849 1223 849 1182 805 c 1,83,84
 1227 740 1227 740 1463 453 c 1,85,86
 1500 403 1500 403 1538 370 c 128,-1,87
 1576 337 1576 337 1602 325.5 c 128,-1,88
 1628 314 1628 314 1651.5 301 c 128,-1,89
 1675 288 1675 288 1689 273 c 128,-1,90
 1703 258 1703 258 1711 222 c 128,-1,91
 1719 186 1719 186 1719 124 c 0,92,93
 1719 90 1719 90 1718 71 c 128,-1,94
 1717 52 1717 52 1708 26 c 128,-1,95
 1699 0 1699 0 1681 -13 c 1,96,97
 1548 0 1548 0 1253 0 c 0,98,99
 994 0 994 0 878 -13 c 1,100,101
 857 3 857 3 842.5 75.5 c 128,-1,102
 828 148 828 148 828 189 c 0,103,104
 828 222 828 222 842.5 240 c 128,-1,105
 857 258 857 258 874 261.5 c 128,-1,106
 891 265 891 265 905.5 273.5 c 128,-1,107
 920 282 920 282 920 298 c 0,108,109
 920 327 920 327 878 393 c 1,110,-1
 764 567 l 1,111,112
 760 561 760 561 727 518 c 128,-1,113
 694 475 694 475 665.5 436.5 c 128,-1,114
 637 398 637 398 611.5 360 c 128,-1,115
 586 322 586 322 586 312 c 0,116,117
 586 295 586 295 601.5 285 c 128,-1,118
 617 275 617 275 635 269 c 128,-1,119
 653 263 653 263 668.5 238 c 128,-1,120
 684 213 684 213 684 170 c 2,121,-1
 684 161 l 2,122,123
 684 15 684 15 638 -13 c 1,0,1
EndSplineSet
EndChar

StartChar: Y
Encoding: 89 89 60
Width: 1609
GlyphClass: 2
Flags: W
LayerCount: 2
Fore
SplineSet
1085 605 m 2,0,1
 1085 539 1085 539 1087.5 493.5 c 128,-1,2
 1090 448 1090 448 1097.5 399 c 128,-1,3
 1105 350 1105 350 1122.5 323.5 c 128,-1,4
 1140 297 1140 297 1166 294 c 0,5,6
 1184 291 1184 291 1193.5 288.5 c 128,-1,7
 1203 286 1203 286 1216.5 279 c 128,-1,8
 1230 272 1230 272 1236 259 c 128,-1,9
 1242 246 1242 246 1242 227 c 0,10,11
 1242 156 1242 156 1224.5 80.5 c 128,-1,12
 1207 5 1207 5 1174 -13 c 1,13,14
 1059 0 1059 0 803 0 c 128,-1,15
 547 0 547 0 432 -13 c 1,16,17
 399 5 399 5 381.5 80.5 c 128,-1,18
 364 156 364 156 364 227 c 0,19,20
 364 246 364 246 370 259 c 128,-1,21
 376 272 376 272 389.5 279 c 128,-1,22
 403 286 403 286 412.5 288.5 c 128,-1,23
 422 291 422 291 440 294 c 0,24,25
 466 297 466 297 483.5 323.5 c 128,-1,26
 501 350 501 350 508 399 c 128,-1,27
 515 448 515 448 517.5 493 c 128,-1,28
 520 538 520 538 520 605 c 2,29,-1
 520 737 l 1,30,-1
 386 920 l 2,31,32
 351 967 351 967 326 998 c 128,-1,33
 301 1029 301 1029 262.5 1069.5 c 128,-1,34
 224 1110 224 1110 182.5 1137 c 128,-1,35
 141 1164 141 1164 97 1176 c 0,36,37
 85 1179 85 1179 63.5 1183.5 c 128,-1,38
 42 1188 42 1188 34 1190.5 c 128,-1,39
 26 1193 26 1193 12.5 1202.5 c 128,-1,40
 -1 1212 -1 1212 -6 1227 c 128,-1,41
 -11 1242 -11 1242 -15.5 1269 c 128,-1,42
 -20 1296 -20 1296 -20 1335 c 2,43,-1
 -20 1349 l 2,44,45
 -20 1398 -20 1398 -9 1450.5 c 128,-1,46
 2 1503 2 1503 22 1503 c 1,47,48
 194 1489 194 1489 440 1489 c 0,49,50
 614 1489 614 1489 810 1503 c 0,51,52
 824 1503 824 1503 843 1408.5 c 128,-1,53
 862 1314 862 1314 862 1259 c 0,54,55
 862 1242 862 1242 849.5 1233 c 128,-1,56
 837 1224 837 1224 821.5 1222 c 128,-1,57
 806 1220 806 1220 793.5 1213 c 128,-1,58
 781 1206 781 1206 781 1192 c 0,59,60
 781 1172 781 1172 799 1144 c 2,61,-1
 914 966 l 1,62,63
 1037 1149 1037 1149 1056 1178 c 0,64,65
 1064 1190 1064 1190 1064 1200 c 128,-1,66
 1064 1210 1064 1210 1044 1217.5 c 128,-1,67
 1024 1225 1024 1225 1004.5 1237.5 c 128,-1,68
 985 1250 985 1250 985 1272 c 2,69,-1
 985 1287 l 2,70,71
 985 1483 985 1483 1030 1503 c 1,72,73
 1132 1489 1132 1489 1295 1489 c 0,74,75
 1339 1489 1339 1489 1454 1496 c 128,-1,76
 1569 1503 1569 1503 1601 1503 c 0,77,78
 1629 1503 1629 1503 1629 1329 c 2,79,-1
 1629 1295 l 2,80,81
 1629 1255 1629 1255 1612.5 1237 c 128,-1,82
 1596 1219 1596 1219 1567 1215 c 128,-1,83
 1538 1211 1538 1211 1505.5 1207.5 c 128,-1,84
 1473 1204 1473 1204 1433.5 1183.5 c 128,-1,85
 1394 1163 1394 1163 1364 1122 c 0,86,87
 1321 1063 1321 1063 1262.5 984.5 c 128,-1,88
 1204 906 1204 906 1178 870 c 128,-1,89
 1152 834 1152 834 1125.5 795.5 c 128,-1,90
 1099 757 1099 757 1085 733 c 1,91,-1
 1085 605 l 2,0,1
EndSplineSet
EndChar

StartChar: Z
Encoding: 90 90 61
Width: 1472
GlyphClass: 2
Flags: W
LayerCount: 2
Fore
SplineSet
117 -13 m 1,0,1
 111 -11 111 -11 96.5 24.5 c 128,-1,2
 82 60 82 60 69 112.5 c 128,-1,3
 56 165 56 165 56 205 c 0,4,5
 56 215 56 215 61 225 c 1,6,7
 134 343 134 343 153 373 c 2,8,-1
 713 1246 l 1,9,10
 729 1276 729 1276 729 1285 c 0,11,12
 729 1301 729 1301 633 1301 c 0,13,14
 579 1301 579 1301 525 1272.5 c 128,-1,15
 471 1244 471 1244 431 1203.5 c 128,-1,16
 391 1163 391 1163 358.5 1122.5 c 128,-1,17
 326 1082 326 1082 306 1053.5 c 128,-1,18
 286 1025 286 1025 282 1025 c 0,19,20
 209 1025 209 1025 129.5 1058 c 128,-1,21
 50 1091 50 1091 50 1123 c 0,22,23
 50 1129 50 1129 51 1132 c 0,24,25
 64 1208 64 1208 98.5 1316.5 c 128,-1,26
 133 1425 133 1425 170 1503 c 1,27,28
 425 1489 425 1489 850 1489 c 0,29,30
 1073 1489 1073 1489 1369 1503 c 1,31,32
 1385 1474 1385 1474 1389.5 1441 c 128,-1,33
 1394 1408 1394 1408 1394 1314 c 0,34,35
 1394 1282 1394 1282 1351 1209 c 128,-1,36
 1308 1136 1308 1136 1226 1014 c 1,37,38
 822 372 822 372 749 256 c 0,39,40
 748 255 748 255 748 254 c 0,41,42
 748 241 748 241 895 241 c 0,43,44
 952 241 952 241 1004 273 c 128,-1,45
 1056 305 1056 305 1091.5 351 c 128,-1,46
 1127 397 1127 397 1154 443 c 128,-1,47
 1181 489 1181 489 1197 521 c 128,-1,48
 1213 553 1213 553 1216 553 c 0,49,50
 1270 553 1270 553 1326 533.5 c 128,-1,51
 1382 514 1382 514 1412.5 493 c 128,-1,52
 1443 472 1443 472 1443 463 c 0,53,54
 1438 383 1438 383 1387.5 222.5 c 128,-1,55
 1337 62 1337 62 1299 -13 c 1,56,57
 1026 0 1026 0 686 0 c 0,58,59
 355 0 355 0 117 -13 c 1,0,1
EndSplineSet
EndChar

StartChar: bracketleft
Encoding: 91 91 62
Width: 1033
GlyphClass: 2
Flags: W
LayerCount: 2
Fore
SplineSet
680 1054 m 2,0,-1
 680 295 l 2,1,2
 680 270 680 270 681 255 c 128,-1,3
 682 240 682 240 689 228 c 128,-1,4
 696 216 696 216 701 211 c 128,-1,5
 706 206 706 206 726.5 202 c 128,-1,6
 747 198 747 198 761.5 197 c 128,-1,7
 776 196 776 196 813 194 c 1,8,9
 831 192 831 192 841 190 c 128,-1,10
 851 188 851 188 866 183.5 c 128,-1,11
 881 179 881 179 889 172.5 c 128,-1,12
 897 166 897 166 903 154.5 c 128,-1,13
 909 143 909 143 909 127 c 0,14,15
 909 52 909 52 888.5 -28 c 128,-1,16
 868 -108 868 -108 831 -127 c 1,17,18
 649 -100 649 -100 402 -100 c 0,19,20
 347 -100 347 -100 270.5 -104 c 128,-1,21
 194 -108 194 -108 179 -108 c 0,22,23
 176 -108 176 -108 170.5 -107.5 c 128,-1,24
 165 -107 165 -107 163 -107 c 0,25,26
 135 -97 135 -97 135 88 c 2,27,-1
 135 1262 l 2,28,29
 135 1273 135 1273 134.5 1301 c 128,-1,30
 134 1329 134 1329 134 1345 c 0,31,32
 134 1487 134 1487 160 1496 c 0,33,34
 162 1496 162 1496 167.5 1496.5 c 128,-1,35
 173 1497 173 1497 176 1497 c 0,36,37
 191 1497 191 1497 267.5 1493 c 128,-1,38
 344 1489 344 1489 399 1489 c 0,39,40
 646 1489 646 1489 828 1516 c 1,41,42
 865 1497 865 1497 885.5 1417 c 128,-1,43
 906 1337 906 1337 906 1262 c 0,44,45
 906 1243 906 1243 898 1230 c 128,-1,46
 890 1217 890 1217 874 1210 c 128,-1,47
 858 1203 858 1203 844.5 1200 c 128,-1,48
 831 1197 831 1197 810 1195 c 0,49,50
 721 1189 721 1189 700.5 1166.5 c 128,-1,51
 680 1144 680 1144 680 1054 c 2,0,-1
EndSplineSet
EndChar

StartChar: backslash
Encoding: 92 92 63
Width: 1214
GlyphClass: 2
Flags: W
LayerCount: 2
Fore
SplineSet
1121 188 m 1,0,1
 1150 130 1150 130 1150 106 c 0,2,3
 1150 77 1150 77 1129.5 55.5 c 128,-1,4
 1109 34 1109 34 1077 23.5 c 128,-1,5
 1045 13 1045 13 1014 8 c 128,-1,6
 983 3 983 3 954 3 c 0,7,8
 918 3 918 3 890 10 c 128,-1,9
 862 17 862 17 844 27.5 c 128,-1,10
 826 38 826 38 809.5 59 c 128,-1,11
 793 80 793 80 783 98 c 128,-1,12
 773 116 773 116 758 148 c 0,13,14
 625 429 625 429 541.5 601 c 128,-1,15
 458 773 458 773 337 1002.5 c 128,-1,16
 216 1232 216 1232 111 1400 c 0,17,18
 62 1478 62 1478 62 1512 c 0,19,20
 62 1550 62 1550 108.5 1568.5 c 128,-1,21
 155 1587 155 1587 266 1587 c 0,22,23
 391 1587 391 1587 430 1510 c 0,24,25
 529 1313 529 1313 1121 188 c 1,0,1
EndSplineSet
EndChar

StartChar: bracketright
Encoding: 93 93 64
Width: 1033
GlyphClass: 2
Flags: W
LayerCount: 2
Fore
SplineSet
320 295 m 2,0,-1
 320 1054 l 2,1,2
 320 1144 320 1144 299.5 1166.5 c 128,-1,3
 279 1189 279 1189 190 1195 c 0,4,5
 169 1197 169 1197 155.5 1200 c 128,-1,6
 142 1203 142 1203 126 1210 c 128,-1,7
 110 1217 110 1217 102 1230 c 128,-1,8
 94 1243 94 1243 94 1262 c 0,9,10
 94 1337 94 1337 114.5 1417 c 128,-1,11
 135 1497 135 1497 172 1516 c 1,12,13
 354 1489 354 1489 601 1489 c 0,14,15
 656 1489 656 1489 732.5 1493 c 128,-1,16
 809 1497 809 1497 824 1497 c 0,17,18
 827 1497 827 1497 832.5 1496.5 c 128,-1,19
 838 1496 838 1496 840 1496 c 0,20,21
 866 1487 866 1487 866 1345 c 0,22,23
 866 1329 866 1329 865.5 1301 c 128,-1,24
 865 1273 865 1273 865 1262 c 2,25,-1
 865 88 l 2,26,27
 865 -97 865 -97 837 -107 c 0,28,29
 835 -107 835 -107 829.5 -107.5 c 128,-1,30
 824 -108 824 -108 821 -108 c 0,31,32
 806 -108 806 -108 729.5 -104 c 128,-1,33
 653 -100 653 -100 598 -100 c 0,34,35
 351 -100 351 -100 169 -127 c 1,36,37
 132 -108 132 -108 111.5 -28 c 128,-1,38
 91 52 91 52 91 127 c 0,39,40
 91 146 91 146 98.5 159 c 128,-1,41
 106 172 106 172 123 179 c 128,-1,42
 140 186 140 186 152 188.5 c 128,-1,43
 164 191 164 191 187 194 c 1,44,45
 224 196 224 196 238.5 197 c 128,-1,46
 253 198 253 198 273.5 202 c 128,-1,47
 294 206 294 206 299 211 c 128,-1,48
 304 216 304 216 311 228 c 128,-1,49
 318 240 318 240 319 255 c 128,-1,50
 320 270 320 270 320 295 c 2,0,-1
EndSplineSet
EndChar

StartChar: asciicircum
Encoding: 94 94 65
Width: 930
GlyphClass: 2
Flags: W
LayerCount: 2
Fore
SplineSet
390 1096 m 1,0,-1
 540 1096 l 1,1,2
 607 1035 607 1035 700.5 937.5 c 128,-1,3
 794 840 794 840 821 807 c 0,4,5
 832 793 832 793 848.5 774 c 128,-1,6
 865 755 865 755 874 744.5 c 128,-1,7
 883 734 883 734 892 721.5 c 128,-1,8
 901 709 901 709 905 699.5 c 128,-1,9
 909 690 909 690 909 681 c 0,10,11
 909 649 909 649 877.5 634.5 c 128,-1,12
 846 620 846 620 772 620 c 0,13,14
 714 620 714 620 685.5 635.5 c 128,-1,15
 657 651 657 651 616 693 c 1,16,-1
 465 884 l 1,17,-1
 314 693 l 1,18,19
 273 651 273 651 244.5 635.5 c 128,-1,20
 216 620 216 620 158 620 c 0,21,22
 84 620 84 620 52.5 634.5 c 128,-1,23
 21 649 21 649 21 681 c 0,24,25
 21 690 21 690 25 699.5 c 128,-1,26
 29 709 29 709 38 721.5 c 128,-1,27
 47 734 47 734 56 744.5 c 128,-1,28
 65 755 65 755 81.5 774 c 128,-1,29
 98 793 98 793 109 807 c 0,30,31
 136 840 136 840 229.5 937.5 c 128,-1,32
 323 1035 323 1035 390 1096 c 1,0,-1
EndSplineSet
EndChar

StartChar: underscore
Encoding: 95 95 66
Width: 1183
GlyphClass: 2
Flags: W
LayerCount: 2
Fore
SplineSet
179 -27 m 1,0,1
 231 -26 231 -26 1004 -26 c 0,2,3
 1108 -26 1108 -26 1147 -23 c 1,4,5
 1183 -37 1183 -37 1183 -108 c 0,6,7
 1183 -203 1183 -203 1128 -203 c 1,8,9
 1123 -201 1123 -201 1066 -199.5 c 128,-1,10
 1009 -198 1009 -198 955 -198 c 2,11,-1
 901 -197 l 1,12,-1
 200 -197 l 1,13,14
 62 -201 62 -201 55 -205 c 1,15,16
 0 -205 0 -205 0 -110 c 0,17,18
 0 -39 0 -39 36 -25 c 1,19,20
 62 -27 62 -27 179 -27 c 1,0,1
EndSplineSet
EndChar

StartChar: grave
Encoding: 96 96 67
Width: 1334
GlyphClass: 2
Flags: W
LayerCount: 2
Fore
SplineSet
947 1149 m 1,0,-1
 796 1149 l 1,1,2
 727 1208 727 1208 628.5 1304 c 128,-1,3
 530 1400 530 1400 495 1438 c 0,4,5
 476 1458 476 1458 443.5 1489 c 128,-1,6
 411 1520 411 1520 399 1535 c 128,-1,7
 387 1550 387 1550 387 1564 c 0,8,9
 387 1596 387 1596 423 1610.5 c 128,-1,10
 459 1625 459 1625 544 1625 c 0,11,12
 624 1625 624 1625 662.5 1606 c 128,-1,13
 701 1587 701 1587 735 1532 c 0,14,15
 761 1490 761 1490 844 1337 c 128,-1,16
 927 1184 927 1184 947 1149 c 1,0,-1
EndSplineSet
EndChar

StartChar: a
Encoding: 97 97 68
Width: 1363
GlyphClass: 2
Flags: W
LayerCount: 2
Fore
SplineSet
729 124 m 1,0,1
 669 50 669 50 579 11.5 c 128,-1,2
 489 -27 489 -27 394 -27 c 0,3,4
 303 -27 303 -27 235 0.5 c 128,-1,5
 167 28 167 28 128 76.5 c 128,-1,6
 89 125 89 125 70 183.5 c 128,-1,7
 51 242 51 242 51 310 c 0,8,9
 51 377 51 377 64.5 430.5 c 128,-1,10
 78 484 78 484 100.5 522 c 128,-1,11
 123 560 123 560 159 588 c 128,-1,12
 195 616 195 616 234 632.5 c 128,-1,13
 273 649 273 649 325.5 659 c 128,-1,14
 378 669 378 669 428 672.5 c 128,-1,15
 478 676 478 676 540 676 c 0,16,17
 577 676 577 676 615.5 673 c 128,-1,18
 654 670 654 670 674 666 c 2,19,-1
 694 663 l 1,20,-1
 694 781 l 2,21,22
 694 840 694 840 671 864 c 128,-1,23
 648 888 648 888 593 888 c 0,24,25
 545 888 545 888 492 873 c 128,-1,26
 439 858 439 858 398 836.5 c 128,-1,27
 357 815 357 815 322 793.5 c 128,-1,28
 287 772 287 772 268 757 c 2,29,-1
 250 742 l 1,30,31
 203 742 203 742 178.5 772 c 128,-1,32
 154 802 154 802 154 858 c 0,33,34
 154 904 154 904 173.5 940.5 c 128,-1,35
 193 977 193 977 223.5 1001.5 c 128,-1,36
 254 1026 254 1026 301.5 1043.5 c 128,-1,37
 349 1061 349 1061 394 1070.5 c 128,-1,38
 439 1080 439 1080 499 1085.5 c 128,-1,39
 559 1091 559 1091 604 1092.5 c 128,-1,40
 649 1094 649 1094 706 1094 c 0,41,42
 808 1094 808 1094 883.5 1079 c 128,-1,43
 959 1064 959 1064 1011 1030.5 c 128,-1,44
 1063 997 1063 997 1096.5 953 c 128,-1,45
 1130 909 1130 909 1148 841.5 c 128,-1,46
 1166 774 1166 774 1173 701.5 c 128,-1,47
 1180 629 1180 629 1180 528 c 0,48,49
 1180 497 1180 497 1180 482 c 128,-1,50
 1180 467 1180 467 1181 440.5 c 128,-1,51
 1182 414 1182 414 1184 400.5 c 128,-1,52
 1186 387 1186 387 1189.5 367.5 c 128,-1,53
 1193 348 1193 348 1198.5 337.5 c 128,-1,54
 1204 327 1204 327 1211.5 315.5 c 128,-1,55
 1219 304 1219 304 1230 298 c 128,-1,56
 1241 292 1241 292 1255 289 c 0,57,58
 1256 289 1256 289 1267.5 288.5 c 128,-1,59
 1279 288 1279 288 1285.5 285.5 c 128,-1,60
 1292 283 1292 283 1301 276 c 128,-1,61
 1310 269 1310 269 1314.5 253.5 c 128,-1,62
 1319 238 1319 238 1319 214 c 0,63,64
 1319 193 1319 193 1314 147.5 c 128,-1,65
 1309 102 1309 102 1288.5 42.5 c 128,-1,66
 1268 -17 1268 -17 1237 -27 c 1,67,68
 1232 -26 1232 -26 1209 -19.5 c 128,-1,69
 1186 -13 1186 -13 1176.5 -11.5 c 128,-1,70
 1167 -10 1167 -10 1142 -6.5 c 128,-1,71
 1117 -3 1117 -3 1086.5 -2 c 128,-1,72
 1056 -1 1056 -1 1013 -1 c 0,73,74
 943 -1 943 -1 883.5 -6 c 128,-1,75
 824 -11 824 -11 805 -11 c 0,76,77
 768 -11 768 -11 729 124 c 1,0,1
684 271 m 1,78,79
 694 320 694 320 694 492 c 0,80,81
 694 524 694 524 681.5 533 c 128,-1,82
 669 542 669 542 610 542 c 0,83,84
 559 542 559 542 531 503.5 c 128,-1,85
 503 465 503 465 503 394 c 0,86,87
 503 326 503 326 527 269 c 128,-1,88
 551 212 551 212 594 212 c 0,89,90
 620 212 620 212 648.5 231.5 c 128,-1,91
 677 251 677 251 684 271 c 1,78,79
EndSplineSet
EndChar

StartChar: b
Encoding: 98 98 69
Width: 1486
GlyphClass: 2
Flags: W
LayerCount: 2
Fore
SplineSet
719 1415 m 0,0,1
 719 1411 719 1411 716.5 1340.5 c 128,-1,2
 714 1270 714 1270 711.5 1179.5 c 128,-1,3
 709 1089 709 1089 709 1038 c 1,4,5
 824 1094 824 1094 950 1094 c 0,6,7
 1048 1094 1048 1094 1137.5 1060.5 c 128,-1,8
 1227 1027 1227 1027 1296.5 966.5 c 128,-1,9
 1366 906 1366 906 1407.5 813 c 128,-1,10
 1449 720 1449 720 1449 609 c 0,11,12
 1449 460 1449 460 1399 338 c 128,-1,13
 1349 216 1349 216 1262.5 137 c 128,-1,14
 1176 58 1176 58 1061.5 15.5 c 128,-1,15
 947 -27 947 -27 817 -27 c 0,16,17
 611 -27 611 -27 436 67 c 1,18,19
 296 -14 296 -14 200 -14 c 0,20,21
 94 -14 94 -14 94 91 c 0,22,23
 94 108 94 108 105.5 128.5 c 128,-1,24
 117 149 117 149 133.5 166.5 c 128,-1,25
 150 184 150 184 167 199 c 128,-1,26
 184 214 184 214 196 222 c 1,27,-1
 207 231 l 1,28,29
 224 363 224 363 224 1021 c 0,30,31
 224 1054 224 1054 223 1074 c 128,-1,32
 222 1094 222 1094 214.5 1124 c 128,-1,33
 207 1154 207 1154 193 1172 c 128,-1,34
 179 1190 179 1190 151.5 1205.5 c 128,-1,35
 124 1221 124 1221 84 1225 c 0,36,37
 52 1228 52 1228 43 1240 c 128,-1,38
 34 1252 34 1252 34 1285 c 0,39,40
 34 1354 34 1354 51 1425.5 c 128,-1,41
 68 1497 68 1497 98 1516 c 1,42,43
 260 1489 260 1489 443 1489 c 0,44,45
 495 1489 495 1489 562 1495.5 c 128,-1,46
 629 1502 629 1502 646 1502 c 0,47,48
 691 1502 691 1502 705 1485.5 c 128,-1,49
 719 1469 719 1469 719 1415 c 0,0,1
709 514 m 0,50,51
 709 441 709 441 713.5 387 c 128,-1,52
 718 333 718 333 730 287 c 128,-1,53
 742 241 742 241 764 217 c 128,-1,54
 786 193 786 193 819 193 c 0,55,56
 920 193 920 193 920 538 c 0,57,58
 920 695 920 695 893.5 791 c 128,-1,59
 867 887 867 887 816 887 c 0,60,61
 797 887 797 887 781.5 880 c 128,-1,62
 766 873 766 873 755 857 c 128,-1,63
 744 841 744 841 736 823.5 c 128,-1,64
 728 806 728 806 723 776.5 c 128,-1,65
 718 747 718 747 715 722.5 c 128,-1,66
 712 698 712 698 711 658 c 128,-1,67
 710 618 710 618 709.5 589.5 c 128,-1,68
 709 561 709 561 709 514 c 0,50,51
EndSplineSet
EndChar

StartChar: c
Encoding: 99 99 70
Width: 1154
GlyphClass: 2
Flags: W
LayerCount: 2
Fore
SplineSet
1089 390 m 1,0,-1
 1120 340 l 1,1,2
 1120 165 1120 165 1008 69 c 128,-1,3
 896 -27 896 -27 660 -27 c 0,4,5
 509 -27 509 -27 388 19.5 c 128,-1,6
 267 66 267 66 192 143.5 c 128,-1,7
 117 221 117 221 77.5 317.5 c 128,-1,8
 38 414 38 414 38 519 c 0,9,10
 38 633 38 633 77 735 c 128,-1,11
 116 837 116 837 191 918 c 128,-1,12
 266 999 266 999 386.5 1046.5 c 128,-1,13
 507 1094 507 1094 659 1094 c 0,14,15
 865 1094 865 1094 970 1022.5 c 128,-1,16
 1075 951 1075 951 1075 855 c 0,17,18
 1075 781 1075 781 1014 727.5 c 128,-1,19
 953 674 953 674 855 674 c 1,20,-1
 743 908 l 1,21,22
 732 919 732 919 683 919 c 128,-1,23
 634 919 634 919 601 876.5 c 128,-1,24
 568 834 568 834 554.5 770.5 c 128,-1,25
 541 707 541 707 541 629 c 0,26,27
 541 477 541 477 611 392 c 128,-1,28
 681 307 681 307 786 307 c 0,29,30
 947 307 947 307 1089 390 c 1,0,-1
EndSplineSet
EndChar

StartChar: d
Encoding: 100 100 71
Width: 1468
GlyphClass: 2
Flags: W
LayerCount: 2
Fore
SplineSet
1268 1038 m 0,0,1
 1268 917 1268 917 1268.5 805.5 c 128,-1,2
 1269 694 1269 694 1269 576 c 0,3,4
 1269 525 1269 525 1270 494 c 128,-1,5
 1271 463 1271 463 1276 421.5 c 128,-1,6
 1281 380 1281 380 1291 356 c 128,-1,7
 1301 332 1301 332 1320.5 313 c 128,-1,8
 1340 294 1340 294 1367 289 c 0,9,10
 1368 289 1368 289 1379.5 288.5 c 128,-1,11
 1391 288 1391 288 1397.5 285.5 c 128,-1,12
 1404 283 1404 283 1413 276 c 128,-1,13
 1422 269 1422 269 1426.5 253.5 c 128,-1,14
 1431 238 1431 238 1431 214 c 0,15,16
 1431 193 1431 193 1426 147.5 c 128,-1,17
 1421 102 1421 102 1400.5 42.5 c 128,-1,18
 1380 -17 1380 -17 1349 -27 c 1,19,20
 1343 -26 1343 -26 1321 -21 c 128,-1,21
 1299 -16 1299 -16 1291 -14.5 c 128,-1,22
 1283 -13 1283 -13 1259.5 -9.5 c 128,-1,23
 1236 -6 1236 -6 1215 -4.5 c 128,-1,24
 1194 -3 1194 -3 1159 -2 c 128,-1,25
 1124 -1 1124 -1 1082 -1 c 0,26,27
 1019 -1 1019 -1 955 -6 c 128,-1,28
 891 -11 891 -11 875 -11 c 0,29,30
 830 -11 830 -11 810.5 22.5 c 128,-1,31
 791 56 791 56 791 124 c 1,32,33
 723 -27 723 -27 484 -27 c 0,34,35
 394 -27 394 -27 318.5 7 c 128,-1,36
 243 41 243 41 192 98 c 128,-1,37
 141 155 141 155 105.5 231 c 128,-1,38
 70 307 70 307 54 388.5 c 128,-1,39
 38 470 38 470 38 556 c 0,40,41
 38 812 38 812 172 953 c 128,-1,42
 306 1094 306 1094 541 1094 c 0,43,44
 705 1094 705 1094 793 1021 c 1,45,46
 793 1054 793 1054 792 1074 c 128,-1,47
 791 1094 791 1094 783.5 1124 c 128,-1,48
 776 1154 776 1154 762 1172 c 128,-1,49
 748 1190 748 1190 720.5 1205.5 c 128,-1,50
 693 1221 693 1221 653 1225 c 0,51,52
 621 1228 621 1228 612 1240 c 128,-1,53
 603 1252 603 1252 603 1285 c 0,54,55
 603 1354 603 1354 620 1425.5 c 128,-1,56
 637 1497 637 1497 667 1516 c 1,57,58
 824 1489 824 1489 1002 1489 c 0,59,60
 1054 1489 1054 1489 1121 1495.5 c 128,-1,61
 1188 1502 1188 1502 1205 1502 c 0,62,63
 1250 1502 1250 1502 1264 1485.5 c 128,-1,64
 1278 1469 1278 1469 1278 1415 c 0,65,66
 1278 1411 1278 1411 1275.5 1340.5 c 128,-1,67
 1273 1270 1273 1270 1270.5 1179.5 c 128,-1,68
 1268 1089 1268 1089 1268 1038 c 0,0,1
571 514 m 0,69,70
 571 441 571 441 575.5 387 c 128,-1,71
 580 333 580 333 592 287 c 128,-1,72
 604 241 604 241 626 217 c 128,-1,73
 648 193 648 193 681 193 c 0,74,75
 782 193 782 193 782 538 c 0,76,77
 782 695 782 695 755.5 791 c 128,-1,78
 729 887 729 887 678 887 c 0,79,80
 659 887 659 887 643.5 880 c 128,-1,81
 628 873 628 873 617 857 c 128,-1,82
 606 841 606 841 598 823.5 c 128,-1,83
 590 806 590 806 585 776.5 c 128,-1,84
 580 747 580 747 577 722.5 c 128,-1,85
 574 698 574 698 573 658 c 128,-1,86
 572 618 572 618 571.5 589.5 c 128,-1,87
 571 561 571 561 571 514 c 0,69,70
EndSplineSet
EndChar

StartChar: e
Encoding: 101 101 72
Width: 1229
GlyphClass: 2
Flags: W
LayerCount: 2
Fore
SplineSet
543 700 m 1,0,1
 572 700 572 700 632 698.5 c 128,-1,2
 692 697 692 697 725 697 c 0,3,4
 765 697 765 697 779.5 713.5 c 128,-1,5
 794 730 794 730 794 769 c 0,6,7
 794 842 794 842 764 881 c 128,-1,8
 734 920 734 920 677 920 c 0,9,10
 595 920 595 920 569 868.5 c 128,-1,11
 543 817 543 817 543 700 c 1,0,1
1094 98 m 0,12,13
 963 -27 963 -27 670 -27 c 0,14,15
 499 -27 499 -27 358.5 39.5 c 128,-1,16
 218 106 218 106 133 236.5 c 128,-1,17
 48 367 48 367 48 538 c 0,18,19
 48 800 48 800 217 947 c 128,-1,20
 386 1094 386 1094 663 1094 c 0,21,22
 881 1094 881 1094 1025 977 c 128,-1,23
 1169 860 1169 860 1185 693 c 1,24,25
 1162 539 1162 539 812 532 c 0,26,27
 711 529 711 529 561 529 c 1,28,29
 571 413 571 413 637.5 357.5 c 128,-1,30
 704 302 704 302 800 302 c 0,31,32
 890 302 890 302 982 331 c 128,-1,33
 1074 360 1074 360 1144 408 c 1,34,35
 1178 393 1178 393 1178 349 c 0,36,37
 1178 280 1178 280 1150.5 202.5 c 128,-1,38
 1123 125 1123 125 1094 98 c 0,12,13
EndSplineSet
EndChar

StartChar: f
Encoding: 102 102 73
Width: 972
GlyphClass: 2
Flags: W
LayerCount: 2
Fore
SplineSet
199 538 m 0,0,1
 199 769 199 769 196 769 c 2,2,-1
 190 769 l 2,3,4
 39 769 39 769 39 795 c 0,5,6
 39 822 39 822 37.5 864.5 c 128,-1,7
 36 907 36 907 36 926 c 0,8,9
 36 931 36 931 76.5 940 c 128,-1,10
 117 949 117 949 158 955 c 2,11,-1
 198 961 l 1,12,13
 198 1229 198 1229 343 1372.5 c 128,-1,14
 488 1516 488 1516 747 1516 c 0,15,16
 842 1516 842 1516 916.5 1494 c 128,-1,17
 991 1472 991 1472 1035.5 1435.5 c 128,-1,18
 1080 1399 1080 1399 1103 1356 c 128,-1,19
 1126 1313 1126 1313 1126 1267 c 0,20,21
 1126 1190 1126 1190 1067.5 1135.5 c 128,-1,22
 1009 1081 1009 1081 910 1081 c 1,23,-1
 759 1348 l 1,24,25
 679 1348 679 1348 639 1310.5 c 128,-1,26
 599 1273 599 1273 599 1212 c 0,27,28
 599 1078 599 1078 683 959 c 1,29,30
 685 959 685 959 728.5 959.5 c 128,-1,31
 772 960 772 960 823 960.5 c 128,-1,32
 874 961 874 961 894 961 c 0,33,34
 942 961 942 961 959.5 948 c 128,-1,35
 977 935 977 935 977 890 c 0,36,37
 977 781 977 781 889 781 c 2,38,-1
 684 781 l 1,39,-1
 684 587 l 2,40,41
 684 305 684 305 767 297 c 1,42,43
 790 293 790 293 801 290 c 128,-1,44
 812 287 812 287 827 280 c 128,-1,45
 842 273 842 273 848 260 c 128,-1,46
 854 247 854 247 854 228 c 0,47,48
 854 153 854 153 833.5 72.5 c 128,-1,49
 813 -8 813 -8 776 -27 c 1,50,51
 628 0 628 0 447 0 c 128,-1,52
 266 0 266 0 118 -27 c 1,53,54
 81 -8 81 -8 60.5 72.5 c 128,-1,55
 40 153 40 153 40 228 c 0,56,57
 40 247 40 247 46 260 c 128,-1,58
 52 273 52 273 67 280 c 128,-1,59
 82 287 82 287 93 290 c 128,-1,60
 104 293 104 293 127 297 c 1,61,62
 199 305 199 305 199 538 c 0,0,1
EndSplineSet
EndChar

StartChar: g
Encoding: 103 103 74
Width: 1294
GlyphClass: 2
Flags: W
LayerCount: 2
Fore
SplineSet
1282 -110 m 0,0,1
 1282 -534 1282 -534 654 -534 c 0,2,3
 527 -534 527 -534 420.5 -516 c 128,-1,4
 314 -498 314 -498 247.5 -461.5 c 128,-1,5
 181 -425 181 -425 181 -378 c 0,6,7
 181 -296 181 -296 263 -198 c 1,8,9
 68 -146 68 -146 68 24 c 0,10,11
 68 68 68 68 81 110 c 128,-1,12
 94 152 94 152 120.5 193 c 128,-1,13
 147 234 147 234 168 261 c 128,-1,14
 189 288 189 288 224 327 c 1,15,16
 75 447 75 447 75 642 c 0,17,18
 75 759 75 759 115.5 847.5 c 128,-1,19
 156 936 156 936 228.5 989 c 128,-1,20
 301 1042 301 1042 395 1068 c 128,-1,21
 489 1094 489 1094 603 1094 c 0,22,23
 666 1094 666 1094 712 1087.5 c 128,-1,24
 758 1081 758 1081 823.5 1063.5 c 128,-1,25
 889 1046 889 1046 910 1041 c 1,26,27
 912 1043 912 1043 929 1067.5 c 128,-1,28
 946 1092 946 1092 962.5 1109 c 128,-1,29
 979 1126 979 1126 1004.5 1148.5 c 128,-1,30
 1030 1171 1030 1171 1064 1183 c 128,-1,31
 1098 1195 1098 1195 1136 1195 c 0,32,33
 1182 1195 1182 1195 1214 1179.5 c 128,-1,34
 1246 1164 1246 1164 1260.5 1139.5 c 128,-1,35
 1275 1115 1275 1115 1281 1094.5 c 128,-1,36
 1287 1074 1287 1074 1287 1056 c 0,37,38
 1287 988 1287 988 1256.5 967.5 c 128,-1,39
 1226 947 1226 947 1143 947 c 0,40,41
 1044 947 1044 947 1044 935 c 1,42,43
 1172 803 1172 803 1172 637 c 0,44,45
 1172 470 1172 470 1013 355.5 c 128,-1,46
 854 241 854 241 613 241 c 0,47,48
 585 241 585 241 554 245.5 c 128,-1,49
 523 250 523 250 520 250 c 1,50,51
 497 225 497 225 497 209 c 0,52,53
 497 181 497 181 540.5 167 c 128,-1,54
 584 153 584 153 653 149.5 c 128,-1,55
 722 146 722 146 805.5 144 c 128,-1,56
 889 142 889 142 973 130.5 c 128,-1,57
 1057 119 1057 119 1126 95.5 c 128,-1,58
 1195 72 1195 72 1238.5 20 c 128,-1,59
 1282 -32 1282 -32 1282 -110 c 0,0,1
624 384 m 1,60,61
 679 388 679 388 698.5 453 c 128,-1,62
 718 518 718 518 718 648 c 128,-1,63
 718 778 718 778 693.5 857.5 c 128,-1,64
 669 937 669 937 619 937 c 0,65,66
 592 937 592 937 572.5 913 c 128,-1,67
 553 889 553 889 543 848 c 128,-1,68
 533 807 533 807 529 765.5 c 128,-1,69
 525 724 525 724 525 678 c 0,70,71
 525 657 525 657 528 621 c 128,-1,72
 531 585 531 585 539.5 525.5 c 128,-1,73
 548 466 548 466 570 425 c 128,-1,74
 592 384 592 384 624 384 c 1,60,61
517 -223 m 2,75,76
 453 -223 453 -223 406 -219 c 1,77,-1
 406 -238 l 2,78,79
 406 -258 406 -258 408.5 -271.5 c 128,-1,80
 411 -285 411 -285 419.5 -300 c 128,-1,81
 428 -315 428 -315 447.5 -322.5 c 128,-1,82
 467 -330 467 -330 497 -330 c 0,83,84
 824 -330 824 -330 894.5 -320 c 128,-1,85
 965 -310 965 -310 965 -255 c 0,86,87
 965 -234 965 -234 919.5 -228.5 c 128,-1,88
 874 -223 874 -223 782 -223 c 2,89,-1
 517 -223 l 2,75,76
EndSplineSet
EndChar

StartChar: h
Encoding: 104 104 75
Width: 1666
GlyphClass: 2
Flags: W
LayerCount: 2
Fore
SplineSet
708 1038 m 2,0,-1
 707 969 l 1,1,2
 772 1036 772 1036 867 1065 c 128,-1,3
 962 1094 962 1094 1103 1094 c 0,4,5
 1180 1094 1180 1094 1246 1072 c 128,-1,6
 1312 1050 1312 1050 1364 1007 c 128,-1,7
 1416 964 1416 964 1445.5 893 c 128,-1,8
 1475 822 1475 822 1475 731 c 2,9,-1
 1475 562 l 2,10,11
 1475 521 1475 521 1476 491 c 128,-1,12
 1477 461 1477 461 1482 422.5 c 128,-1,13
 1487 384 1487 384 1495 359 c 128,-1,14
 1503 334 1503 334 1519.5 315.5 c 128,-1,15
 1536 297 1536 297 1558 294 c 0,16,17
 1576 291 1576 291 1585.5 288.5 c 128,-1,18
 1595 286 1595 286 1608.5 279 c 128,-1,19
 1622 272 1622 272 1628 259 c 128,-1,20
 1634 246 1634 246 1634 227 c 0,21,22
 1634 152 1634 152 1613.5 72 c 128,-1,23
 1593 -8 1593 -8 1556 -27 c 1,24,25
 1434 0 1434 0 1307 0 c 0,26,27
 1283 0 1283 0 1220.5 -7 c 128,-1,28
 1158 -14 1158 -14 1127 -14 c 0,29,30
 1062 -14 1062 -14 1024.5 8.5 c 128,-1,31
 987 31 987 31 987 90 c 0,32,33
 987 133 987 133 988.5 225.5 c 128,-1,34
 990 318 990 318 990 407 c 0,35,36
 990 640 990 640 973 740.5 c 128,-1,37
 956 841 956 841 897 841 c 0,38,39
 837 841 837 841 785 811.5 c 128,-1,40
 733 782 733 782 707 718 c 1,41,-1
 707 587 l 2,42,43
 707 543 707 543 708 510.5 c 128,-1,44
 709 478 709 478 713 436 c 128,-1,45
 717 394 717 394 724.5 366.5 c 128,-1,46
 732 339 732 339 746 318.5 c 128,-1,47
 760 298 760 298 780 296 c 1,48,49
 803 292 803 292 814 289 c 128,-1,50
 825 286 825 286 840 279 c 128,-1,51
 855 272 855 272 861 259 c 128,-1,52
 867 246 867 246 867 227 c 0,53,54
 867 152 867 152 846.5 72 c 128,-1,55
 826 -8 826 -8 789 -27 c 1,56,57
 644 0 644 0 470 0 c 0,58,59
 290 0 290 0 141 -27 c 1,60,61
 104 -8 104 -8 83.5 72 c 128,-1,62
 63 152 63 152 63 227 c 0,63,64
 63 246 63 246 69 259 c 128,-1,65
 75 272 75 272 90 279 c 128,-1,66
 105 286 105 286 116 289 c 128,-1,67
 127 292 127 292 150 296 c 1,68,69
 170 298 170 298 183.5 315.5 c 128,-1,70
 197 333 197 333 204.5 356.5 c 128,-1,71
 212 380 212 380 215.5 417 c 128,-1,72
 219 454 219 454 220 481 c 128,-1,73
 221 508 221 508 221 547 c 2,74,-1
 221 1021 l 2,75,76
 221 1055 221 1055 220 1074 c 128,-1,77
 219 1093 219 1093 211.5 1124 c 128,-1,78
 204 1155 204 1155 190.5 1172.5 c 128,-1,79
 177 1190 177 1190 149.5 1205.5 c 128,-1,80
 122 1221 122 1221 82 1225 c 0,81,82
 50 1228 50 1228 41 1240 c 128,-1,83
 32 1252 32 1252 32 1285 c 0,84,85
 32 1354 32 1354 49 1425.5 c 128,-1,86
 66 1497 66 1497 96 1516 c 1,87,88
 258 1489 258 1489 442 1489 c 0,89,90
 494 1489 494 1489 561 1495.5 c 128,-1,91
 628 1502 628 1502 645 1502 c 0,92,93
 690 1502 690 1502 704 1485.5 c 128,-1,94
 718 1469 718 1469 718 1415 c 1,95,96
 713 1338 713 1338 708 1038 c 2,0,-1
EndSplineSet
EndChar

StartChar: i
Encoding: 105 105 76
Width: 927
GlyphClass: 2
Flags: W
LayerCount: 2
Fore
SplineSet
487 1171 m 0,0,1
 443 1171 443 1171 394.5 1178 c 128,-1,2
 346 1185 346 1185 291 1202 c 128,-1,3
 236 1219 236 1219 200.5 1255 c 128,-1,4
 165 1291 165 1291 165 1340 c 0,5,6
 165 1516 165 1516 480 1516 c 0,7,8
 560 1516 560 1516 616 1499 c 128,-1,9
 672 1482 672 1482 698.5 1453.5 c 128,-1,10
 725 1425 725 1425 735.5 1397 c 128,-1,11
 746 1369 746 1369 746 1337 c 0,12,13
 746 1290 746 1290 719 1255.5 c 128,-1,14
 692 1221 692 1221 650 1204 c 128,-1,15
 608 1187 608 1187 567 1179 c 128,-1,16
 526 1171 526 1171 487 1171 c 0,0,1
731 587 m 0,17,18
 731 542 731 542 732 510.5 c 128,-1,19
 733 479 733 479 737.5 436 c 128,-1,20
 742 393 742 393 750.5 365.5 c 128,-1,21
 759 338 759 338 775 317.5 c 128,-1,22
 791 297 791 297 814 294 c 0,23,24
 832 291 832 291 841.5 288.5 c 128,-1,25
 851 286 851 286 864.5 279 c 128,-1,26
 878 272 878 272 884 259 c 128,-1,27
 890 246 890 246 890 227 c 0,28,29
 890 152 890 152 869.5 72 c 128,-1,30
 849 -8 849 -8 812 -27 c 1,31,32
 667 0 667 0 493 0 c 0,33,34
 312 0 312 0 164 -27 c 1,35,36
 127 -8 127 -8 106.5 72 c 128,-1,37
 86 152 86 152 86 227 c 0,38,39
 86 246 86 246 92 259 c 128,-1,40
 98 272 98 272 111.5 279 c 128,-1,41
 125 286 125 286 134.5 288.5 c 128,-1,42
 144 291 144 291 162 294 c 1,43,44
 190 297 190 297 208 321 c 128,-1,45
 226 345 226 345 233.5 386.5 c 128,-1,46
 241 428 241 428 243.5 463 c 128,-1,47
 246 498 246 498 246 547 c 2,48,-1
 246 599 l 2,49,50
 246 632 246 632 244.5 652 c 128,-1,51
 243 672 243 672 235.5 702 c 128,-1,52
 228 732 228 732 214 750 c 128,-1,53
 200 768 200 768 172.5 783.5 c 128,-1,54
 145 799 145 799 105 803 c 0,55,56
 73 806 73 806 64 818 c 128,-1,57
 55 830 55 830 55 863 c 0,58,59
 55 932 55 932 72 1003.5 c 128,-1,60
 89 1075 89 1075 119 1094 c 1,61,62
 281 1067 281 1067 464 1067 c 0,63,64
 516 1067 516 1067 581 1074 c 128,-1,65
 646 1081 646 1081 663 1081 c 0,66,67
 708 1081 708 1081 722 1064 c 128,-1,68
 736 1047 736 1047 736 993 c 0,69,70
 736 989 736 989 735 911 c 128,-1,71
 734 833 734 833 732.5 735.5 c 128,-1,72
 731 638 731 638 731 587 c 0,17,18
EndSplineSet
EndChar

StartChar: j
Encoding: 106 106 77
Width: 991
GlyphClass: 2
Flags: W
LayerCount: 2
Fore
SplineSet
628 1171 m 0,0,1
 584 1171 584 1171 535.5 1178 c 128,-1,2
 487 1185 487 1185 432 1202 c 128,-1,3
 377 1219 377 1219 341.5 1255 c 128,-1,4
 306 1291 306 1291 306 1340 c 0,5,6
 306 1516 306 1516 621 1516 c 0,7,8
 701 1516 701 1516 757 1499 c 128,-1,9
 813 1482 813 1482 839.5 1453.5 c 128,-1,10
 866 1425 866 1425 876.5 1397 c 128,-1,11
 887 1369 887 1369 887 1337 c 0,12,13
 887 1290 887 1290 860 1255.5 c 128,-1,14
 833 1221 833 1221 791 1204 c 128,-1,15
 749 1187 749 1187 708 1179 c 128,-1,16
 667 1171 667 1171 628 1171 c 0,0,1
409 599 m 2,17,-1
 409 -15 l 2,18,19
 409 -68 409 -68 406.5 -100.5 c 128,-1,20
 404 -133 404 -133 396 -165 c 128,-1,21
 388 -197 388 -197 370.5 -212 c 128,-1,22
 353 -227 353 -227 324 -227 c 0,23,24
 300 -227 300 -227 285.5 -217 c 128,-1,25
 271 -207 271 -207 266.5 -192 c 128,-1,26
 262 -177 262 -177 254 -159 c 128,-1,27
 246 -141 246 -141 235.5 -126 c 128,-1,28
 225 -111 225 -111 199 -101 c 128,-1,29
 173 -91 173 -91 132 -91 c 0,30,31
 84 -91 84 -91 52.5 -120 c 128,-1,32
 21 -149 21 -149 21 -200 c 128,-1,33
 21 -251 21 -251 38 -291.5 c 128,-1,34
 55 -332 55 -332 79.5 -357.5 c 128,-1,35
 104 -383 104 -383 144.5 -401.5 c 128,-1,36
 185 -420 185 -420 217 -428.5 c 128,-1,37
 249 -437 249 -437 296.5 -442 c 128,-1,38
 344 -447 344 -447 368 -447.5 c 128,-1,39
 392 -448 392 -448 431 -448 c 0,40,41
 513 -448 513 -448 580.5 -427.5 c 128,-1,42
 648 -407 648 -407 695.5 -372.5 c 128,-1,43
 743 -338 743 -338 778.5 -286 c 128,-1,44
 814 -234 814 -234 836 -176.5 c 128,-1,45
 858 -119 858 -119 871 -47 c 128,-1,46
 884 25 884 25 889 92.5 c 128,-1,47
 894 160 894 160 894 240 c 2,48,-1
 894 616 l 2,49,50
 894 667 894 667 895.5 757.5 c 128,-1,51
 897 848 897 848 898.5 918.5 c 128,-1,52
 900 989 900 989 900 993 c 0,53,54
 900 1047 900 1047 886 1064 c 128,-1,55
 872 1081 872 1081 827 1081 c 0,56,57
 810 1081 810 1081 743 1074 c 128,-1,58
 676 1067 676 1067 624 1067 c 0,59,60
 445 1067 445 1067 283 1094 c 1,61,62
 253 1075 253 1075 236 1003.5 c 128,-1,63
 219 932 219 932 219 863 c 0,64,65
 219 830 219 830 228 818 c 128,-1,66
 237 806 237 806 269 803 c 0,67,68
 309 799 309 799 336.5 783.5 c 128,-1,69
 364 768 364 768 378 750 c 128,-1,70
 392 732 392 732 399.5 702 c 128,-1,71
 407 672 407 672 408 652 c 128,-1,72
 409 632 409 632 409 599 c 2,17,-1
EndSplineSet
EndChar

StartChar: k
Encoding: 107 107 78
Width: 1622
GlyphClass: 2
Flags: W
LayerCount: 2
Fore
SplineSet
1469 1095 m 1,0,1
 1499 1087 1499 1087 1508.5 1062 c 128,-1,2
 1518 1037 1518 1037 1518 990 c 0,3,4
 1518 950 1518 950 1516 932.5 c 128,-1,5
 1514 915 1514 915 1499.5 899.5 c 128,-1,6
 1485 884 1485 884 1469 877 c 128,-1,7
 1453 870 1453 870 1409 846 c 128,-1,8
 1365 822 1365 822 1320 792 c 1,9,-1
 1060 643 l 1,10,11
 1110 632 1110 632 1149.5 618 c 128,-1,12
 1189 604 1189 604 1217 592 c 128,-1,13
 1245 580 1245 580 1268 561.5 c 128,-1,14
 1291 543 1291 543 1304.5 530 c 128,-1,15
 1318 517 1318 517 1332 493.5 c 128,-1,16
 1346 470 1346 470 1352 456 c 128,-1,17
 1358 442 1358 442 1370.5 413 c 128,-1,18
 1383 384 1383 384 1390 369 c 0,19,20
 1407 326 1407 326 1429.5 307.5 c 128,-1,21
 1452 289 1452 289 1491 289 c 0,22,23
 1583 289 1583 289 1583 223 c 0,24,25
 1583 213 1583 213 1577 163.5 c 128,-1,26
 1571 114 1571 114 1555.5 50 c 128,-1,27
 1540 -14 1540 -14 1520 -27 c 1,28,29
 1517 -15 1517 -15 1451.5 -7.5 c 128,-1,30
 1386 0 1386 0 1303 0 c 0,31,32
 1115 0 1115 0 1071 -27 c 1,33,34
 1034 -21 1034 -21 1014 28.5 c 128,-1,35
 994 78 994 78 981 160 c 128,-1,36
 968 242 968 242 962 262 c 0,37,38
 942 328 942 328 922 370.5 c 128,-1,39
 902 413 902 413 885.5 436.5 c 128,-1,40
 869 460 869 460 842 470.5 c 128,-1,41
 815 481 815 481 796.5 483 c 128,-1,42
 778 485 778 485 738 485 c 2,43,-1
 711 485 l 1,44,45
 717 302 717 302 784 296 c 1,46,47
 807 292 807 292 818 289 c 128,-1,48
 829 286 829 286 844 279 c 128,-1,49
 859 272 859 272 865 259 c 128,-1,50
 871 246 871 246 871 227 c 0,51,52
 871 152 871 152 850.5 72 c 128,-1,53
 830 -8 830 -8 793 -27 c 1,54,55
 648 0 648 0 474 0 c 0,56,57
 293 0 293 0 145 -27 c 1,58,59
 108 -8 108 -8 87.5 72 c 128,-1,60
 67 152 67 152 67 227 c 0,61,62
 67 246 67 246 73 259 c 128,-1,63
 79 272 79 272 94 279 c 128,-1,64
 109 286 109 286 120 289 c 128,-1,65
 131 292 131 292 154 296 c 1,66,67
 178 298 178 298 193.5 321.5 c 128,-1,68
 209 345 209 345 215.5 387 c 128,-1,69
 222 429 222 429 224 463.5 c 128,-1,70
 226 498 226 498 226 547 c 2,71,-1
 226 1021 l 2,72,73
 226 1054 226 1054 225 1074 c 128,-1,74
 224 1094 224 1094 216.5 1124 c 128,-1,75
 209 1154 209 1154 195 1172 c 128,-1,76
 181 1190 181 1190 153.5 1205.5 c 128,-1,77
 126 1221 126 1221 86 1225 c 0,78,79
 54 1228 54 1228 45 1240 c 128,-1,80
 36 1252 36 1252 36 1285 c 0,81,82
 36 1354 36 1354 53 1425.5 c 128,-1,83
 70 1497 70 1497 100 1516 c 1,84,85
 262 1489 262 1489 445 1489 c 0,86,87
 497 1489 497 1489 564 1495.5 c 128,-1,88
 631 1502 631 1502 648 1502 c 0,89,90
 693 1502 693 1502 707 1485.5 c 128,-1,91
 721 1469 721 1469 721 1415 c 0,92,93
 721 1411 721 1411 718.5 1340.5 c 128,-1,94
 716 1270 716 1270 713.5 1179.5 c 128,-1,95
 711 1089 711 1089 711 1038 c 2,96,-1
 711 735 l 1,97,-1
 932 884 l 2,98,99
 935 886 935 886 942.5 891 c 128,-1,100
 950 896 950 896 953 898 c 128,-1,101
 956 900 956 900 961.5 904 c 128,-1,102
 967 908 967 908 969 910.5 c 128,-1,103
 971 913 971 913 974 916.5 c 128,-1,104
 977 920 977 920 978 924 c 128,-1,105
 979 928 979 928 979 932 c 0,106,107
 979 944 979 944 966.5 971 c 128,-1,108
 954 998 954 998 954 1010 c 0,109,110
 954 1070 954 1070 981 1095 c 1,111,112
 1018 1086 1018 1086 1102.5 1076.5 c 128,-1,113
 1187 1067 1187 1067 1267 1067 c 0,114,115
 1364 1067 1364 1067 1469 1095 c 1,0,1
EndSplineSet
EndChar

StartChar: l
Encoding: 108 108 79
Width: 846
GlyphClass: 2
Flags: W
LayerCount: 2
Fore
SplineSet
684 1415 m 0,0,1
 684 1372 684 1372 678.5 1217 c 128,-1,2
 673 1062 673 1062 673 1009 c 2,3,-1
 673 587 l 2,4,5
 673 543 673 543 674 510.5 c 128,-1,6
 675 478 675 478 679 436 c 128,-1,7
 683 394 683 394 690.5 366.5 c 128,-1,8
 698 339 698 339 712 318.5 c 128,-1,9
 726 298 726 298 746 296 c 1,10,11
 769 292 769 292 780 289 c 128,-1,12
 791 286 791 286 806 279 c 128,-1,13
 821 272 821 272 827 259 c 128,-1,14
 833 246 833 246 833 227 c 0,15,16
 833 152 833 152 812.5 72 c 128,-1,17
 792 -8 792 -8 755 -27 c 1,18,19
 610 0 610 0 436 0 c 0,20,21
 256 0 256 0 107 -27 c 1,22,23
 70 -8 70 -8 49.5 72 c 128,-1,24
 29 152 29 152 29 227 c 0,25,26
 29 246 29 246 35 259 c 128,-1,27
 41 272 41 272 56 279 c 128,-1,28
 71 286 71 286 82 289 c 128,-1,29
 93 292 93 292 116 296 c 1,30,31
 140 298 140 298 155.5 321.5 c 128,-1,32
 171 345 171 345 177.5 387 c 128,-1,33
 184 429 184 429 186 463.5 c 128,-1,34
 188 498 188 498 188 547 c 2,35,-1
 188 1018 l 2,36,37
 188 1046 188 1046 187.5 1062 c 128,-1,38
 187 1078 187 1078 183.5 1104.5 c 128,-1,39
 180 1131 180 1131 172.5 1147 c 128,-1,40
 165 1163 165 1163 152.5 1180.5 c 128,-1,41
 140 1198 140 1198 118.5 1208 c 128,-1,42
 97 1218 97 1218 69 1221 c 0,43,44
 37 1225 37 1225 28 1235 c 128,-1,45
 19 1245 19 1245 19 1272 c 0,46,47
 19 1344 19 1344 38.5 1421 c 128,-1,48
 58 1498 58 1498 93 1517 c 1,49,50
 159 1489 159 1489 379 1489 c 0,51,52
 443 1489 443 1489 517 1496 c 128,-1,53
 591 1503 591 1503 611 1503 c 0,54,55
 653 1503 653 1503 668.5 1487.5 c 128,-1,56
 684 1472 684 1472 684 1415 c 0,0,1
EndSplineSet
EndChar

StartChar: m
Encoding: 109 109 80
Width: 2258
GlyphClass: 2
Flags: W
LayerCount: 2
Fore
SplineSet
1228 0 m 0,0,1
 1204 0 1204 0 1141.5 -8 c 128,-1,2
 1079 -16 1079 -16 1048 -16 c 0,3,4
 987 -16 987 -16 952.5 6.5 c 128,-1,5
 918 29 918 29 918 88 c 0,6,7
 918 132 918 132 919.5 224 c 128,-1,8
 921 316 921 316 921 407 c 0,9,10
 921 635 921 635 902.5 727.5 c 128,-1,11
 884 820 884 820 818 820 c 0,12,13
 686 820 686 820 686 655 c 2,14,-1
 686 577 l 2,15,16
 686 533 686 533 686.5 508.5 c 128,-1,17
 687 484 687 484 689.5 447 c 128,-1,18
 692 410 692 410 697 389 c 128,-1,19
 702 368 702 368 711 345 c 128,-1,20
 720 322 720 322 735 310 c 128,-1,21
 750 298 750 298 770 294 c 1,22,23
 800 294 800 294 823 277 c 128,-1,24
 846 260 846 260 846 227 c 0,25,26
 846 152 846 152 825.5 72 c 128,-1,27
 805 -8 805 -8 768 -27 c 1,28,29
 630 0 630 0 469 0 c 0,30,31
 288 0 288 0 140 -27 c 1,32,33
 103 -8 103 -8 82.5 72 c 128,-1,34
 62 152 62 152 62 227 c 0,35,36
 62 260 62 260 85 277 c 128,-1,37
 108 294 108 294 138 294 c 1,38,39
 190 304 190 304 205.5 365 c 128,-1,40
 221 426 221 426 221 547 c 2,41,-1
 221 574 l 2,42,43
 221 701 221 701 192.5 746.5 c 128,-1,44
 164 792 164 792 67 805 c 1,45,46
 43 810 43 810 36.5 823.5 c 128,-1,47
 30 837 30 837 30 879 c 0,48,49
 30 932 30 932 41.5 983.5 c 128,-1,50
 53 1035 53 1035 68 1064.5 c 128,-1,51
 83 1094 83 1094 94 1094 c 1,52,53
 270 1067 270 1067 410 1067 c 0,54,55
 468 1067 468 1067 535.5 1074 c 128,-1,56
 603 1081 603 1081 622 1081 c 0,57,58
 665 1081 665 1081 680 1065.5 c 128,-1,59
 695 1050 695 1050 695 993 c 1,60,-1
 693 930 l 1,61,62
 871 1094 871 1094 1094 1094 c 0,63,64
 1180 1094 1180 1094 1249.5 1053.5 c 128,-1,65
 1319 1013 1319 1013 1360 932 c 1,66,67
 1453 1021 1453 1021 1538 1057.5 c 128,-1,68
 1623 1094 1623 1094 1736 1094 c 0,69,70
 1882 1094 1882 1094 1978 996.5 c 128,-1,71
 2074 899 2074 899 2074 710 c 0,72,73
 2074 686 2074 686 2071 637 c 128,-1,74
 2068 588 2068 588 2068 562 c 0,75,76
 2068 527 2068 527 2068.5 503 c 128,-1,77
 2069 479 2069 479 2071 445.5 c 128,-1,78
 2073 412 2073 412 2078 389 c 128,-1,79
 2083 366 2083 366 2090.5 344 c 128,-1,80
 2098 322 2098 322 2110.5 310 c 128,-1,81
 2123 298 2123 298 2140 296 c 0,82,83
 2142 296 2142 296 2152 294 c 128,-1,84
 2162 292 2162 292 2164.5 291.5 c 128,-1,85
 2167 291 2167 291 2176 289 c 128,-1,86
 2185 287 2185 287 2188 285.5 c 128,-1,87
 2191 284 2191 284 2198 281 c 128,-1,88
 2205 278 2205 278 2208 275 c 128,-1,89
 2211 272 2211 272 2215.5 267 c 128,-1,90
 2220 262 2220 262 2222 256.5 c 128,-1,91
 2224 251 2224 251 2225.5 243.5 c 128,-1,92
 2227 236 2227 236 2227 227 c 0,93,94
 2227 152 2227 152 2206.5 72 c 128,-1,95
 2186 -8 2186 -8 2149 -27 c 1,96,97
 2028 0 2028 0 1900 0 c 0,98,99
 1879 0 1879 0 1822.5 -8 c 128,-1,100
 1766 -16 1766 -16 1738 -16 c 0,101,102
 1677 -16 1677 -16 1642.5 6.5 c 128,-1,103
 1608 29 1608 29 1608 88 c 0,104,105
 1608 132 1608 132 1609.5 224 c 128,-1,106
 1611 316 1611 316 1611 407 c 0,107,108
 1611 465 1611 465 1610.5 503 c 128,-1,109
 1610 541 1610 541 1608 585 c 128,-1,110
 1606 629 1606 629 1602.5 657 c 128,-1,111
 1599 685 1599 685 1593 714.5 c 128,-1,112
 1587 744 1587 744 1578.5 761 c 128,-1,113
 1570 778 1570 778 1557.5 793 c 128,-1,114
 1545 808 1545 808 1528.5 814 c 128,-1,115
 1512 820 1512 820 1491 820 c 0,116,117
 1461 820 1461 820 1439 802 c 128,-1,118
 1417 784 1417 784 1406 754.5 c 128,-1,119
 1395 725 1395 725 1390.5 697.5 c 128,-1,120
 1386 670 1386 670 1386 642 c 0,121,122
 1386 304 1386 304 1428 296 c 0,123,124
 1430 296 1430 296 1440 294 c 128,-1,125
 1450 292 1450 292 1452.5 291.5 c 128,-1,126
 1455 291 1455 291 1464 289 c 128,-1,127
 1473 287 1473 287 1476 285.5 c 128,-1,128
 1479 284 1479 284 1486 281 c 128,-1,129
 1493 278 1493 278 1496 275 c 128,-1,130
 1499 272 1499 272 1503.5 267 c 128,-1,131
 1508 262 1508 262 1510 256.5 c 128,-1,132
 1512 251 1512 251 1513.5 243.5 c 128,-1,133
 1515 236 1515 236 1515 227 c 0,134,135
 1515 152 1515 152 1497.5 72 c 128,-1,136
 1480 -8 1480 -8 1447 -27 c 1,137,138
 1336 0 1336 0 1228 0 c 0,0,1
EndSplineSet
EndChar

StartChar: n
Encoding: 110 110 81
Width: 1618
GlyphClass: 2
Flags: W
LayerCount: 2
Fore
SplineSet
1260 0 m 0,0,1
 1236 0 1236 0 1173.5 -8 c 128,-1,2
 1111 -16 1111 -16 1080 -16 c 0,3,4
 1015 -16 1015 -16 977.5 6.5 c 128,-1,5
 940 29 940 29 940 88 c 0,6,7
 940 132 940 132 941.5 224 c 128,-1,8
 943 316 943 316 943 407 c 0,9,10
 943 633 943 633 923.5 726.5 c 128,-1,11
 904 820 904 820 838 820 c 0,12,13
 706 820 706 820 706 655 c 2,14,-1
 706 577 l 2,15,16
 706 533 706 533 706.5 508.5 c 128,-1,17
 707 484 707 484 709 447 c 128,-1,18
 711 410 711 410 715.5 389 c 128,-1,19
 720 368 720 368 728 345 c 128,-1,20
 736 322 736 322 749 310 c 128,-1,21
 762 298 762 298 780 294 c 1,22,23
 810 294 810 294 833 277 c 128,-1,24
 856 260 856 260 856 227 c 0,25,26
 856 152 856 152 835.5 72 c 128,-1,27
 815 -8 815 -8 778 -27 c 1,28,29
 636 0 636 0 469 0 c 0,30,31
 288 0 288 0 140 -27 c 1,32,33
 103 -8 103 -8 82.5 72 c 128,-1,34
 62 152 62 152 62 227 c 0,35,36
 62 260 62 260 85 277 c 128,-1,37
 108 294 108 294 138 294 c 1,38,39
 190 304 190 304 205.5 365 c 128,-1,40
 221 426 221 426 221 547 c 2,41,-1
 221 574 l 2,42,43
 221 701 221 701 192.5 746.5 c 128,-1,44
 164 792 164 792 67 805 c 1,45,46
 43 810 43 810 36.5 823.5 c 128,-1,47
 30 837 30 837 30 879 c 0,48,49
 30 932 30 932 41.5 983.5 c 128,-1,50
 53 1035 53 1035 68 1064.5 c 128,-1,51
 83 1094 83 1094 94 1094 c 1,52,53
 270 1067 270 1067 410 1067 c 0,54,55
 474 1067 474 1067 544 1074 c 128,-1,56
 614 1081 614 1081 634 1081 c 0,57,58
 677 1081 677 1081 692 1065.5 c 128,-1,59
 707 1050 707 1050 707 993 c 1,60,-1
 705 930 l 1,61,62
 781 1010 781 1010 875 1052 c 128,-1,63
 969 1094 969 1094 1066 1094 c 0,64,65
 1141 1094 1141 1094 1206.5 1071 c 128,-1,66
 1272 1048 1272 1048 1323.5 1002.5 c 128,-1,67
 1375 957 1375 957 1404.5 882 c 128,-1,68
 1434 807 1434 807 1434 710 c 0,69,70
 1434 686 1434 686 1431 637 c 128,-1,71
 1428 588 1428 588 1428 562 c 0,72,73
 1428 527 1428 527 1428.5 503 c 128,-1,74
 1429 479 1429 479 1431 445.5 c 128,-1,75
 1433 412 1433 412 1438 389 c 128,-1,76
 1443 366 1443 366 1450.5 344 c 128,-1,77
 1458 322 1458 322 1470.5 310 c 128,-1,78
 1483 298 1483 298 1500 296 c 0,79,80
 1502 296 1502 296 1512 294 c 128,-1,81
 1522 292 1522 292 1524.5 291.5 c 128,-1,82
 1527 291 1527 291 1536 289 c 128,-1,83
 1545 287 1545 287 1548 285.5 c 128,-1,84
 1551 284 1551 284 1558 281 c 128,-1,85
 1565 278 1565 278 1568 275 c 128,-1,86
 1571 272 1571 272 1575.5 267 c 128,-1,87
 1580 262 1580 262 1582 256.5 c 128,-1,88
 1584 251 1584 251 1585.5 243.5 c 128,-1,89
 1587 236 1587 236 1587 227 c 0,90,91
 1587 152 1587 152 1566.5 72 c 128,-1,92
 1546 -8 1546 -8 1509 -27 c 1,93,94
 1388 0 1388 0 1260 0 c 0,0,1
EndSplineSet
EndChar

StartChar: o
Encoding: 111 111 82
Width: 1398
GlyphClass: 2
Flags: W
LayerCount: 2
Fore
SplineSet
700 -27 m 0,0,1
 411 -27 411 -27 235.5 119 c 128,-1,2
 60 265 60 265 60 530 c 0,3,4
 60 794 60 794 221.5 944 c 128,-1,5
 383 1094 383 1094 688 1094 c 0,6,7
 836 1094 836 1094 954 1061 c 128,-1,8
 1072 1028 1072 1028 1158.5 962 c 128,-1,9
 1245 896 1245 896 1291.5 790 c 128,-1,10
 1338 684 1338 684 1338 544 c 0,11,12
 1338 270 1338 270 1170 121.5 c 128,-1,13
 1002 -27 1002 -27 700 -27 c 0,0,1
594 529 m 0,14,15
 594 340 594 340 616.5 252 c 128,-1,16
 639 164 639 164 703 164 c 0,17,18
 726 164 726 164 743.5 177 c 128,-1,19
 761 190 761 190 771.5 218 c 128,-1,20
 782 246 782 246 789 276.5 c 128,-1,21
 796 307 796 307 799 356 c 128,-1,22
 802 405 802 405 803 445 c 128,-1,23
 804 485 804 485 804 546 c 0,24,25
 804 592 804 592 803.5 621.5 c 128,-1,26
 803 651 803 651 800 701.5 c 128,-1,27
 797 752 797 752 790.5 784.5 c 128,-1,28
 784 817 784 817 773 851 c 128,-1,29
 762 885 762 885 743.5 902 c 128,-1,30
 725 919 725 919 700 919 c 0,31,32
 634 919 634 919 614 830 c 128,-1,33
 594 741 594 741 594 529 c 0,14,15
EndSplineSet
EndChar

StartChar: p
Encoding: 112 112 83
Width: 1464
GlyphClass: 2
Flags: W
LayerCount: 2
Fore
SplineSet
688 91 m 1,0,1
 688 49 688 49 690 19.5 c 128,-1,2
 692 -10 692 -10 698.5 -46 c 128,-1,3
 705 -82 705 -82 720.5 -102.5 c 128,-1,4
 736 -123 736 -123 760 -125 c 1,5,6
 783 -129 783 -129 794 -132 c 128,-1,7
 805 -135 805 -135 820 -142 c 128,-1,8
 835 -149 835 -149 841 -162 c 128,-1,9
 847 -175 847 -175 847 -194 c 0,10,11
 847 -269 847 -269 826.5 -349 c 128,-1,12
 806 -429 806 -429 769 -448 c 1,13,14
 624 -421 624 -421 450 -421 c 0,15,16
 270 -421 270 -421 121 -448 c 1,17,18
 84 -429 84 -429 63.5 -349 c 128,-1,19
 43 -269 43 -269 43 -194 c 0,20,21
 43 -175 43 -175 49 -162 c 128,-1,22
 55 -149 55 -149 70 -142 c 128,-1,23
 85 -135 85 -135 96 -132 c 128,-1,24
 107 -129 107 -129 130 -125 c 1,25,26
 154 -123 154 -123 170 -99 c 128,-1,27
 186 -75 186 -75 193 -34 c 128,-1,28
 200 7 200 7 202 42.5 c 128,-1,29
 204 78 204 78 204 126 c 2,30,-1
 204 553 l 2,31,32
 204 622 204 622 195 669.5 c 128,-1,33
 186 717 186 717 172 740 c 128,-1,34
 158 763 158 763 141 776 c 128,-1,35
 124 789 124 789 106.5 793 c 128,-1,36
 89 797 89 797 75 801 c 128,-1,37
 61 805 61 805 52 816.5 c 128,-1,38
 43 828 43 828 43 851 c 0,39,40
 43 885 43 885 48.5 930.5 c 128,-1,41
 54 976 54 976 72 1028 c 128,-1,42
 90 1080 90 1080 117 1095 c 1,43,44
 200 1067 200 1067 399 1067 c 0,45,46
 455 1067 455 1067 526.5 1074 c 128,-1,47
 598 1081 598 1081 631 1081 c 0,48,49
 654 1081 654 1081 658 1058.5 c 128,-1,50
 662 1036 662 1036 662 933 c 1,51,52
 698 1021 698 1021 783.5 1057.5 c 128,-1,53
 869 1094 869 1094 976 1094 c 0,54,55
 1071 1094 1071 1094 1147 1066.5 c 128,-1,56
 1223 1039 1223 1039 1274 992 c 128,-1,57
 1325 945 1325 945 1358.5 878.5 c 128,-1,58
 1392 812 1392 812 1407 737 c 128,-1,59
 1422 662 1422 662 1422 575 c 0,60,61
 1422 443 1422 443 1382 335.5 c 128,-1,62
 1342 228 1342 228 1272 158 c 128,-1,63
 1202 88 1202 88 1108.5 50.5 c 128,-1,64
 1015 13 1015 13 908 13 c 0,65,66
 766 13 766 13 688 91 c 1,0,1
680 514 m 0,67,68
 680 441 680 441 684.5 387 c 128,-1,69
 689 333 689 333 701 287 c 128,-1,70
 713 241 713 241 735 217 c 128,-1,71
 757 193 757 193 790 193 c 0,72,73
 891 193 891 193 891 538 c 0,74,75
 891 695 891 695 864.5 791 c 128,-1,76
 838 887 838 887 787 887 c 0,77,78
 768 887 768 887 752.5 880 c 128,-1,79
 737 873 737 873 726 857 c 128,-1,80
 715 841 715 841 707 823.5 c 128,-1,81
 699 806 699 806 694 776.5 c 128,-1,82
 689 747 689 747 686 722.5 c 128,-1,83
 683 698 683 698 682 658 c 128,-1,84
 681 618 681 618 680.5 589.5 c 128,-1,85
 680 561 680 561 680 514 c 0,67,68
EndSplineSet
EndChar

StartChar: q
Encoding: 113 113 84
Width: 1431
GlyphClass: 2
Flags: W
LayerCount: 2
Fore
SplineSet
668 193 m 0,0,1
 757 193 757 193 757 510 c 2,2,-1
 757 542 l 2,3,4
 757 586 757 586 756.5 613 c 128,-1,5
 756 640 756 640 753.5 684.5 c 128,-1,6
 751 729 751 729 745 757 c 128,-1,7
 739 785 739 785 729 814.5 c 128,-1,8
 719 844 719 844 702.5 858 c 128,-1,9
 686 872 686 872 664 872 c 0,10,11
 571 872 571 872 571 515 c 0,12,13
 571 450 571 450 574 402.5 c 128,-1,14
 577 355 577 355 586 302.5 c 128,-1,15
 595 250 595 250 615.5 221.5 c 128,-1,16
 636 193 636 193 668 193 c 0,0,1
1022 -421 m 0,17,18
 842 -421 842 -421 650 -451 c 1,19,20
 620 -432 620 -432 603 -360.5 c 128,-1,21
 586 -289 586 -289 586 -220 c 0,22,23
 586 -188 586 -188 595 -175.5 c 128,-1,24
 604 -163 604 -163 636 -160 c 0,25,26
 681 -157 681 -157 713 -142 c 128,-1,27
 745 -127 745 -127 761 -110.5 c 128,-1,28
 777 -94 777 -94 785 -65 c 128,-1,29
 793 -36 793 -36 794.5 -18 c 128,-1,30
 796 0 796 0 796 31 c 1,31,32
 671 -27 671 -27 535 -27 c 0,33,34
 437 -27 437 -27 347 14 c 128,-1,35
 257 55 257 55 188 128.5 c 128,-1,36
 119 202 119 202 77.5 314 c 128,-1,37
 36 426 36 426 36 560 c 0,38,39
 36 662 36 662 66.5 749 c 128,-1,40
 97 836 97 836 150 898.5 c 128,-1,41
 203 961 203 961 274.5 1005.5 c 128,-1,42
 346 1050 346 1050 428 1072 c 128,-1,43
 510 1094 510 1094 598 1094 c 0,44,45
 833 1094 833 1094 1029 1002 c 1,46,47
 1147 1081 1147 1081 1228 1081 c 0,48,49
 1341 1081 1341 1081 1341 978 c 0,50,51
 1341 951 1341 951 1317.5 916 c 128,-1,52
 1294 881 1294 881 1271 860 c 2,53,-1
 1248 838 l 1,54,55
 1242 717 1242 717 1242 48 c 0,56,57
 1242 20 1242 20 1242.5 4 c 128,-1,58
 1243 -12 1243 -12 1246.5 -38.5 c 128,-1,59
 1250 -65 1250 -65 1257.5 -81.5 c 128,-1,60
 1265 -98 1265 -98 1277.5 -116 c 128,-1,61
 1290 -134 1290 -134 1311.5 -144 c 128,-1,62
 1333 -154 1333 -154 1361 -157 c 0,63,64
 1393 -161 1393 -161 1402 -172.5 c 128,-1,65
 1411 -184 1411 -184 1411 -217 c 0,66,67
 1411 -286 1411 -286 1394 -357.5 c 128,-1,68
 1377 -429 1377 -429 1347 -448 c 1,69,70
 1196 -421 1196 -421 1022 -421 c 0,17,18
EndSplineSet
EndChar

StartChar: r
Encoding: 114 114 85
Width: 1131
GlyphClass: 2
Flags: W
LayerCount: 2
Fore
SplineSet
702 537 m 2,0,1
 702 489 702 489 704 456.5 c 128,-1,2
 706 424 706 424 713.5 383.5 c 128,-1,3
 721 343 721 343 739 320 c 128,-1,4
 757 297 757 297 785 294 c 1,5,6
 803 291 803 291 812.5 288.5 c 128,-1,7
 822 286 822 286 835.5 279 c 128,-1,8
 849 272 849 272 855 259 c 128,-1,9
 861 246 861 246 861 227 c 0,10,11
 861 152 861 152 840.5 72 c 128,-1,12
 820 -8 820 -8 783 -27 c 1,13,14
 638 0 638 0 464 0 c 0,15,16
 284 0 284 0 135 -27 c 1,17,18
 98 -8 98 -8 77.5 72 c 128,-1,19
 57 152 57 152 57 227 c 0,20,21
 57 246 57 246 63 259 c 128,-1,22
 69 272 69 272 82.5 279 c 128,-1,23
 96 286 96 286 105.5 288.5 c 128,-1,24
 115 291 115 291 133 294 c 1,25,26
 161 297 161 297 179 318 c 128,-1,27
 197 339 197 339 204.5 376 c 128,-1,28
 212 413 212 413 214.5 443.5 c 128,-1,29
 217 474 217 474 217 517 c 2,30,-1
 217 599 l 2,31,32
 217 632 217 632 215.5 652 c 128,-1,33
 214 672 214 672 206.5 702 c 128,-1,34
 199 732 199 732 185 750 c 128,-1,35
 171 768 171 768 143.5 783.5 c 128,-1,36
 116 799 116 799 76 803 c 0,37,38
 44 806 44 806 35 818 c 128,-1,39
 26 830 26 830 26 863 c 0,40,41
 26 932 26 932 43 1004 c 128,-1,42
 60 1076 60 1076 90 1095 c 1,43,44
 247 1067 247 1067 415 1067 c 0,45,46
 456 1067 456 1067 510 1074 c 128,-1,47
 564 1081 564 1081 578 1081 c 0,48,49
 623 1081 623 1081 637 1064 c 128,-1,50
 651 1047 651 1047 651 993 c 0,51,52
 651 979 651 979 648 916 c 1,53,54
 769 1094 769 1094 914 1094 c 0,55,56
 1007 1094 1007 1094 1056 1043.5 c 128,-1,57
 1105 993 1105 993 1105 920 c 0,58,59
 1105 835 1105 835 1045 767.5 c 128,-1,60
 985 700 985 700 887 700 c 1,61,-1
 827 814 l 1,62,63
 782 814 782 814 747 780.5 c 128,-1,64
 712 747 712 747 702 669 c 1,65,-1
 702 537 l 2,0,1
EndSplineSet
EndChar

StartChar: s
Encoding: 115 115 86
Width: 1137
GlyphClass: 2
Flags: W
LayerCount: 2
Fore
SplineSet
1101 325 m 0,0,1
 1101 234 1101 234 1061.5 165 c 128,-1,2
 1022 96 1022 96 949.5 54.5 c 128,-1,3
 877 13 877 13 781.5 -7 c 128,-1,4
 686 -27 686 -27 568 -27 c 0,5,6
 323 -27 323 -27 200.5 36 c 128,-1,7
 78 99 78 99 78 185 c 0,8,9
 78 249 78 249 143.5 296 c 128,-1,10
 209 343 209 343 312 343 c 1,11,-1
 390 199 l 1,12,13
 447 184 447 184 505 184 c 0,14,15
 552 184 552 184 586 203 c 128,-1,16
 620 222 620 222 620 249 c 128,-1,17
 620 276 620 276 594 301 c 128,-1,18
 568 326 568 326 525.5 346 c 128,-1,19
 483 366 483 366 440.5 381.5 c 128,-1,20
 398 397 398 397 352.5 412.5 c 128,-1,21
 307 428 307 428 288 437 c 0,22,23
 166 495 166 495 101 575 c 128,-1,24
 36 655 36 655 36 768 c 0,25,26
 36 848 36 848 84 912 c 128,-1,27
 132 976 132 976 212 1014.5 c 128,-1,28
 292 1053 292 1053 388.5 1073.5 c 128,-1,29
 485 1094 485 1094 588 1094 c 0,30,31
 797 1094 797 1094 919.5 1025 c 128,-1,32
 1042 956 1042 956 1042 873 c 0,33,34
 1042 819 1042 819 985.5 784 c 128,-1,35
 929 749 929 749 825 749 c 1,36,-1
 760 872 l 1,37,38
 749 884 749 884 701.5 894.5 c 128,-1,39
 654 905 654 905 606 905 c 0,40,41
 497 905 497 905 497 846 c 0,42,43
 497 815 497 815 543.5 781 c 128,-1,44
 590 747 590 747 666 726 c 0,45,46
 717 712 717 712 751.5 701.5 c 128,-1,47
 786 691 786 691 835.5 671.5 c 128,-1,48
 885 652 885 652 918.5 632 c 128,-1,49
 952 612 952 612 989.5 581 c 128,-1,50
 1027 550 1027 550 1049 514.5 c 128,-1,51
 1071 479 1071 479 1086 430.5 c 128,-1,52
 1101 382 1101 382 1101 325 c 0,0,1
EndSplineSet
EndChar

StartChar: t
Encoding: 116 116 87
Width: 920
GlyphClass: 2
Flags: W
LayerCount: 2
Fore
SplineSet
770 188 m 0,0,1
 803 188 803 188 880 234 c 1,2,3
 917 218 917 218 917 141 c 0,4,5
 917 114 917 114 905 95 c 1,6,7
 851 34 851 34 749 3 c 128,-1,8
 647 -28 647 -28 542 -28 c 0,9,10
 472 -28 472 -28 416 -17 c 128,-1,11
 360 -6 360 -6 320.5 21 c 128,-1,12
 281 48 281 48 252.5 74.5 c 128,-1,13
 224 101 224 101 206.5 151.5 c 128,-1,14
 189 202 189 202 178.5 238.5 c 128,-1,15
 168 275 168 275 164 343.5 c 128,-1,16
 160 412 160 412 159 453 c 128,-1,17
 158 494 158 494 158 575 c 2,18,-1
 158 844 l 1,19,-1
 106 844 l 2,20,21
 3 844 3 844 3 881 c 0,22,23
 3 946 3 946 29 1020 c 0,24,25
 40 1053 40 1053 62.5 1060 c 128,-1,26
 85 1067 85 1067 160 1067 c 0,27,28
 193 1067 193 1067 212.5 1095.5 c 128,-1,29
 232 1124 232 1124 260 1213 c 1,30,31
 349 1442 349 1442 483 1442 c 0,32,33
 576 1442 576 1442 643 1378 c 1,34,-1
 643 1118 l 2,35,36
 643 1081 643 1081 644.5 1074 c 128,-1,37
 646 1067 646 1067 656 1067 c 2,38,-1
 833 1067 l 2,39,40
 859 1067 859 1067 867.5 1040 c 128,-1,41
 876 1013 876 1013 876 964 c 0,42,43
 876 887 876 887 845 865.5 c 128,-1,44
 814 844 814 844 735 844 c 2,45,-1
 643 844 l 1,46,-1
 643 528 l 2,47,48
 643 467 643 467 644.5 425 c 128,-1,49
 646 383 646 383 650.5 341.5 c 128,-1,50
 655 300 655 300 664 274 c 128,-1,51
 673 248 673 248 687 227 c 128,-1,52
 701 206 701 206 721.5 197 c 128,-1,53
 742 188 742 188 770 188 c 0,0,1
EndSplineSet
EndChar

StartChar: u
Encoding: 117 117 88
Width: 1639
GlyphClass: 2
Flags: W
LayerCount: 2
Fore
SplineSet
967 599 m 0,0,1
 967 633 967 633 966 652 c 128,-1,2
 965 671 965 671 957.5 702 c 128,-1,3
 950 733 950 733 936.5 750.5 c 128,-1,4
 923 768 923 768 895.5 783.5 c 128,-1,5
 868 799 868 799 828 803 c 0,6,7
 796 806 796 806 787 818 c 128,-1,8
 778 830 778 830 778 863 c 0,9,10
 778 932 778 932 795 1003.5 c 128,-1,11
 812 1075 812 1075 842 1094 c 1,12,13
 999 1067 999 1067 1177 1067 c 0,14,15
 1232 1067 1232 1067 1302.5 1074 c 128,-1,16
 1373 1081 1373 1081 1391 1081 c 0,17,18
 1435 1081 1435 1081 1446.5 1065 c 128,-1,19
 1458 1049 1458 1049 1458 993 c 0,20,21
 1458 990 1458 990 1456.5 920 c 128,-1,22
 1455 850 1455 850 1453.5 754 c 128,-1,23
 1452 658 1452 658 1452 591 c 0,24,25
 1452 531 1452 531 1452.5 499.5 c 128,-1,26
 1453 468 1453 468 1457.5 424.5 c 128,-1,27
 1462 381 1462 381 1470.5 358 c 128,-1,28
 1479 335 1479 335 1495.5 315.5 c 128,-1,29
 1512 296 1512 296 1536 290 c 0,30,31
 1538 290 1538 290 1548.5 289 c 128,-1,32
 1559 288 1559 288 1566 285.5 c 128,-1,33
 1573 283 1573 283 1582 276.5 c 128,-1,34
 1591 270 1591 270 1595.5 254 c 128,-1,35
 1600 238 1600 238 1600 215 c 0,36,37
 1600 194 1600 194 1595 148.5 c 128,-1,38
 1590 103 1590 103 1569.5 43.5 c 128,-1,39
 1549 -16 1549 -16 1518 -26 c 1,40,41
 1512 -25 1512 -25 1490 -20 c 128,-1,42
 1468 -15 1468 -15 1460 -13.5 c 128,-1,43
 1452 -12 1452 -12 1428.5 -8.5 c 128,-1,44
 1405 -5 1405 -5 1384 -3.5 c 128,-1,45
 1363 -2 1363 -2 1328 -1 c 128,-1,46
 1293 0 1293 0 1251 0 c 0,47,48
 1185 0 1185 0 1118 -5 c 128,-1,49
 1051 -10 1051 -10 1034 -10 c 0,50,51
 950 -10 950 -10 950 125 c 1,52,53
 895 40 895 40 808.5 6.5 c 128,-1,54
 722 -27 722 -27 597 -27 c 0,55,56
 534 -27 534 -27 482.5 -15.5 c 128,-1,57
 431 -4 431 -4 392.5 20.5 c 128,-1,58
 354 45 354 45 324.5 76 c 128,-1,59
 295 107 295 107 275 151.5 c 128,-1,60
 255 196 255 196 242 242.5 c 128,-1,61
 229 289 229 289 222 350 c 128,-1,62
 215 411 215 411 212.5 468.5 c 128,-1,63
 210 526 210 526 210 599 c 0,64,65
 210 641 210 641 207.5 666 c 128,-1,66
 205 691 205 691 194.5 725 c 128,-1,67
 184 759 184 759 158 778 c 128,-1,68
 132 797 132 797 90 802 c 0,69,70
 58 806 58 806 49 818 c 128,-1,71
 40 830 40 830 40 863 c 0,72,73
 40 932 40 932 57 1003.5 c 128,-1,74
 74 1075 74 1075 104 1094 c 1,75,76
 244 1067 244 1067 410 1067 c 0,77,78
 467 1067 467 1067 540.5 1074 c 128,-1,79
 614 1081 614 1081 633 1081 c 0,80,81
 678 1081 678 1081 692 1064 c 128,-1,82
 706 1047 706 1047 706 993 c 0,83,84
 706 989 706 989 703 920.5 c 128,-1,85
 700 852 700 852 697.5 761 c 128,-1,86
 695 670 695 670 695 614 c 0,87,88
 695 530 695 530 695.5 490.5 c 128,-1,89
 696 451 696 451 700 396.5 c 128,-1,90
 704 342 704 342 712.5 318.5 c 128,-1,91
 721 295 721 295 735.5 269.5 c 128,-1,92
 750 244 750 244 773.5 235.5 c 128,-1,93
 797 227 797 227 830 227 c 0,94,95
 857 227 857 227 878 236 c 128,-1,96
 899 245 899 245 913.5 259.5 c 128,-1,97
 928 274 928 274 938 301 c 128,-1,98
 948 328 948 328 953.5 355 c 128,-1,99
 959 382 959 382 962 425 c 128,-1,100
 965 468 965 468 966 505.5 c 128,-1,101
 967 543 967 543 967 599 c 0,0,1
EndSplineSet
EndChar

StartChar: v
Encoding: 118 118 89
Width: 1299
GlyphClass: 2
Flags: W
LayerCount: 2
Fore
SplineSet
430 87 m 1,0,1
 412 128 412 128 318 351.5 c 128,-1,2
 224 575 224 575 176 679 c 0,3,4
 150 734 150 734 122.5 764 c 128,-1,5
 95 794 95 794 74.5 799.5 c 128,-1,6
 54 805 54 805 37 808 c 128,-1,7
 20 811 20 811 11 823 c 128,-1,8
 2 835 2 835 2 868 c 0,9,10
 2 990 2 990 10 1032 c 128,-1,11
 18 1074 18 1074 43 1094 c 1,12,13
 232 1067 232 1067 360 1067 c 0,14,15
 556 1067 556 1067 685 1095 c 1,16,17
 708 1087 708 1087 717.5 1038.5 c 128,-1,18
 727 990 727 990 727 871 c 0,19,20
 727 846 727 846 712.5 834 c 128,-1,21
 698 822 698 822 681 820.5 c 128,-1,22
 664 819 664 819 649.5 808.5 c 128,-1,23
 635 798 635 798 635 775 c 0,24,25
 635 770 635 770 684 638.5 c 128,-1,26
 733 507 733 507 745 475 c 0,27,28
 766 418 766 418 777 418 c 0,29,30
 789 418 789 418 804 463 c 1,31,32
 828 518 828 518 879 647.5 c 128,-1,33
 930 777 930 777 930 786 c 0,34,35
 930 803 930 803 916 812.5 c 128,-1,36
 902 822 902 822 885.5 825.5 c 128,-1,37
 869 829 869 829 855 842 c 128,-1,38
 841 855 841 855 841 878 c 0,39,40
 841 1081 841 1081 896 1095 c 1,41,42
 1012 1067 1012 1067 1091 1067 c 0,43,44
 1173 1067 1173 1067 1249 1094 c 0,45,46
 1251 1095 1251 1095 1255 1095 c 0,47,48
 1266 1095 1266 1095 1272.5 1078.5 c 128,-1,49
 1279 1062 1279 1062 1281.5 1026 c 128,-1,50
 1284 990 1284 990 1284.5 964.5 c 128,-1,51
 1285 939 1285 939 1285 891 c 0,52,53
 1285 851 1285 851 1273 833.5 c 128,-1,54
 1261 816 1261 816 1241.5 813.5 c 128,-1,55
 1222 811 1222 811 1200.5 809.5 c 128,-1,56
 1179 808 1179 808 1156.5 792 c 128,-1,57
 1134 776 1134 776 1120 740 c 0,58,59
 1079 632 1079 632 1004.5 444 c 128,-1,60
 930 256 930 256 876 122 c 2,61,-1
 822 -12 l 1,62,63
 822 -28 822 -28 581 -28 c 0,64,65
 520 -28 520 -28 489.5 -7.5 c 128,-1,66
 459 13 459 13 430 87 c 1,0,1
EndSplineSet
EndChar

StartChar: w
Encoding: 119 119 90
Width: 2031
GlyphClass: 2
Flags: W
LayerCount: 2
Fore
SplineSet
380 87 m 1,0,1
 360 141 360 141 314 267.5 c 128,-1,2
 268 394 268 394 228 501 c 128,-1,3
 188 608 188 608 155 688 c 1,4,5
 133 744 133 744 108 774 c 128,-1,6
 83 804 83 804 65.5 809.5 c 128,-1,7
 48 815 48 815 32.5 818 c 128,-1,8
 17 821 17 821 9.5 833 c 128,-1,9
 2 845 2 845 2 878 c 0,10,11
 2 995 2 995 9 1035.5 c 128,-1,12
 16 1076 16 1076 38 1095 c 1,13,14
 240 1067 240 1067 360 1067 c 0,15,16
 556 1067 556 1067 685 1095 c 1,17,18
 708 1087 708 1087 717.5 1038.5 c 128,-1,19
 727 990 727 990 727 871 c 0,20,21
 727 848 727 848 715.5 837.5 c 128,-1,22
 704 827 704 827 691 826 c 128,-1,23
 678 825 678 825 666.5 815.5 c 128,-1,24
 655 806 655 806 655 785 c 0,25,26
 655 781 655 781 676.5 717.5 c 128,-1,27
 698 654 698 654 720.5 587 c 128,-1,28
 743 520 743 520 745 515 c 0,29,30
 755 482 755 482 762 482 c 0,31,32
 765 482 765 482 769 490 c 128,-1,33
 773 498 773 498 776 506 c 2,34,-1
 779 515 l 1,35,-1
 881 793 l 1,36,37
 869 809 869 809 852.5 814 c 128,-1,38
 836 819 836 819 830 829.5 c 128,-1,39
 824 840 824 840 824 878 c 0,40,41
 824 995 824 995 831 1035 c 128,-1,42
 838 1075 838 1075 860 1094 c 1,43,44
 1017 1067 1017 1067 1112 1067 c 0,45,46
 1314 1067 1314 1067 1447 1095 c 1,47,48
 1470 1087 1470 1087 1479.5 1038.5 c 128,-1,49
 1489 990 1489 990 1489 871 c 0,50,51
 1489 848 1489 848 1477.5 837.5 c 128,-1,52
 1466 827 1466 827 1453 826 c 128,-1,53
 1440 825 1440 825 1428.5 815.5 c 128,-1,54
 1417 806 1417 806 1417 785 c 0,55,56
 1417 781 1417 781 1438.5 717.5 c 128,-1,57
 1460 654 1460 654 1482.5 587 c 128,-1,58
 1505 520 1505 520 1507 515 c 0,59,60
 1517 482 1517 482 1524 482 c 0,61,62
 1528 482 1528 482 1534 498.5 c 128,-1,63
 1540 515 1540 515 1541 515 c 2,64,-1
 1557 556 l 2,65,66
 1573 598 1573 598 1592 646.5 c 128,-1,67
 1611 695 1611 695 1626.5 738.5 c 128,-1,68
 1642 782 1642 782 1642 786 c 0,69,70
 1642 803 1642 803 1631 812.5 c 128,-1,71
 1620 822 1620 822 1607.5 825.5 c 128,-1,72
 1595 829 1595 829 1584 842 c 128,-1,73
 1573 855 1573 855 1573 878 c 0,74,75
 1573 1081 1573 1081 1628 1095 c 1,76,77
 1744 1067 1744 1067 1823 1067 c 0,78,79
 1905 1067 1905 1067 1981 1094 c 0,80,81
 1982 1095 1982 1095 1987 1095 c 0,82,83
 1998 1095 1998 1095 2004.5 1078.5 c 128,-1,84
 2011 1062 2011 1062 2013.5 1026 c 128,-1,85
 2016 990 2016 990 2016.5 964.5 c 128,-1,86
 2017 939 2017 939 2017 891 c 0,87,88
 2017 851 2017 851 2005 833.5 c 128,-1,89
 1993 816 1993 816 1973.5 813.5 c 128,-1,90
 1954 811 1954 811 1933 809.5 c 128,-1,91
 1912 808 1912 808 1889 792 c 128,-1,92
 1866 776 1866 776 1852 740 c 0,93,94
 1810 628 1810 628 1554 -12 c 1,95,96
 1554 -28 1554 -28 1303 -28 c 0,97,98
 1242 -28 1242 -28 1211 -7.5 c 128,-1,99
 1180 13 1180 13 1152 87 c 0,100,101
 1128 149 1128 149 1075 294.5 c 128,-1,102
 1022 440 1022 440 996 508 c 1,103,-1
 802 -12 l 1,104,105
 802 -28 802 -28 531 -28 c 0,106,107
 470 -28 470 -28 439.5 -7.5 c 128,-1,108
 409 13 409 13 380 87 c 1,0,1
EndSplineSet
EndChar

StartChar: x
Encoding: 120 120 91
Width: 1513
GlyphClass: 2
Flags: W
LayerCount: 2
Fore
SplineSet
790 296 m 1,0,-1
 670 419 l 1,1,2
 543 285 543 285 543 281 c 0,3,4
 543 264 543 264 558.5 254.5 c 128,-1,5
 574 245 574 245 592.5 241.5 c 128,-1,6
 611 238 611 238 626.5 225 c 128,-1,7
 642 212 642 212 642 189 c 0,8,9
 642 -14 642 -14 587 -28 c 1,10,11
 421 0 421 0 302 0 c 0,12,13
 197 0 197 0 94 -27 c 0,14,15
 92 -28 92 -28 88 -28 c 0,16,17
 77 -28 77 -28 70.5 -11.5 c 128,-1,18
 64 5 64 5 61.5 41 c 128,-1,19
 59 77 59 77 58.5 102.5 c 128,-1,20
 58 128 58 128 58 176 c 0,21,22
 58 210 58 210 74 227 c 128,-1,23
 90 244 90 244 111 248 c 128,-1,24
 132 252 132 252 161 264 c 128,-1,25
 190 276 190 276 209 297 c 1,26,27
 235 321 235 321 337 417 c 128,-1,28
 439 513 439 513 500 569 c 1,29,30
 476 591 476 591 438 626.5 c 128,-1,31
 400 662 400 662 376.5 683 c 128,-1,32
 353 704 353 704 341 712 c 1,33,34
 279 760 279 760 229 784.5 c 128,-1,35
 179 809 179 809 160.5 811 c 128,-1,36
 142 813 142 813 133.5 824 c 128,-1,37
 125 835 125 835 125 868 c 0,38,39
 125 990 125 990 133 1032 c 128,-1,40
 141 1074 141 1074 166 1094 c 1,41,42
 382 1067 382 1067 533 1067 c 0,43,44
 710 1067 710 1067 825 1095 c 1,45,46
 848 1088 848 1088 857.5 1043.5 c 128,-1,47
 867 999 867 999 867 891 c 0,48,49
 867 866 867 866 855.5 854 c 128,-1,50
 844 842 844 842 831 840.5 c 128,-1,51
 818 839 818 839 806.5 828.5 c 128,-1,52
 795 818 795 818 795 795 c 0,53,54
 795 794 795 794 802 785 c 2,55,-1
 908 667 l 1,56,57
 1040 810 1040 810 1040 816 c 0,58,59
 1040 833 1040 833 1027.5 837.5 c 128,-1,60
 1015 842 1015 842 1000.5 840 c 128,-1,61
 986 838 986 838 973.5 846.5 c 128,-1,62
 961 855 961 855 961 878 c 0,63,64
 961 1081 961 1081 1016 1095 c 1,65,66
 1149 1067 1149 1067 1241 1067 c 0,67,68
 1320 1067 1320 1067 1389 1094 c 0,69,70
 1390 1095 1390 1095 1395 1095 c 0,71,72
 1406 1095 1406 1095 1412.5 1078.5 c 128,-1,73
 1419 1062 1419 1062 1421.5 1026 c 128,-1,74
 1424 990 1424 990 1424.5 964.5 c 128,-1,75
 1425 939 1425 939 1425 891 c 0,76,77
 1425 857 1425 857 1409 840 c 128,-1,78
 1393 823 1393 823 1372 819 c 128,-1,79
 1351 815 1351 815 1322 803 c 128,-1,80
 1293 791 1293 791 1274 770 c 1,81,82
 1172 668 1172 668 1067 558 c 1,83,84
 1269 369 1269 369 1284 356 c 0,85,86
 1325 321 1325 321 1360.5 298 c 128,-1,87
 1396 275 1396 275 1411 270 c 128,-1,88
 1426 265 1426 265 1437.5 257 c 128,-1,89
 1449 249 1449 249 1451 238.5 c 128,-1,90
 1453 228 1453 228 1453 199 c 0,91,92
 1453 77 1453 77 1445 35 c 128,-1,93
 1437 -7 1437 -7 1412 -27 c 1,94,95
 1223 0 1223 0 1095 0 c 0,96,97
 899 0 899 0 770 -28 c 1,98,99
 747 -20 747 -20 737.5 28.5 c 128,-1,100
 728 77 728 77 728 196 c 0,101,102
 728 221 728 221 737.5 233.5 c 128,-1,103
 747 246 747 246 759 248 c 128,-1,104
 771 250 771 250 780.5 261.5 c 128,-1,105
 790 273 790 273 790 296 c 1,0,-1
EndSplineSet
EndChar

StartChar: y
Encoding: 121 121 92
Width: 1422
GlyphClass: 2
Flags: W
LayerCount: 2
Fore
SplineSet
974 221 m 1,0,1
 832 -28 832 -28 771 -113 c 0,2,3
 655 -277 655 -277 540 -319 c 0,4,5
 490 -338 490 -338 434 -338 c 0,6,7
 375 -338 375 -338 309.5 -316.5 c 128,-1,8
 244 -295 244 -295 192.5 -248.5 c 128,-1,9
 141 -202 141 -202 141 -143 c 0,10,11
 141 -99 141 -99 156.5 -61.5 c 128,-1,12
 172 -24 172 -24 206 -24 c 1,13,14
 332 -48 332 -48 371 -48 c 0,15,16
 408 -48 408 -48 423 -48 c 128,-1,17
 438 -48 438 -48 461 -40 c 128,-1,18
 484 -32 484 -32 493.5 -23.5 c 128,-1,19
 503 -15 503 -15 524.5 13 c 128,-1,20
 546 41 546 41 562.5 69 c 128,-1,21
 579 97 579 97 612 156 c 1,22,-1
 521 157 l 1,23,24
 296 546 296 546 194 717 c 0,25,26
 168 760 168 760 140.5 783.5 c 128,-1,27
 113 807 113 807 93 811.5 c 128,-1,28
 73 816 73 816 56.5 819 c 128,-1,29
 40 822 40 822 31.5 832 c 128,-1,30
 23 842 23 842 23 868 c 0,31,32
 23 990 23 990 31 1032 c 128,-1,33
 39 1074 39 1074 64 1094 c 1,34,35
 253 1067 253 1067 381 1067 c 0,36,37
 563 1067 563 1067 686 1095 c 1,38,39
 709 1087 709 1087 718.5 1038.5 c 128,-1,40
 728 990 728 990 728 871 c 0,41,42
 728 846 728 846 717 834 c 128,-1,43
 706 822 706 822 692 820.5 c 128,-1,44
 678 819 678 819 667 808.5 c 128,-1,45
 656 798 656 798 656 775 c 0,46,47
 656 773 656 773 669 747 c 128,-1,48
 682 721 682 721 700.5 684 c 128,-1,49
 719 647 719 647 737.5 610.5 c 128,-1,50
 756 574 756 574 771 545 c 128,-1,51
 786 516 786 516 788 512 c 0,52,53
 807 475 807 475 819 475 c 128,-1,54
 831 475 831 475 847 512 c 0,55,56
 850 519 850 519 885 596.5 c 128,-1,57
 920 674 920 674 940.5 722 c 128,-1,58
 961 770 961 770 961 776 c 0,59,60
 961 792 961 792 945.5 801.5 c 128,-1,61
 930 811 930 811 911.5 814.5 c 128,-1,62
 893 818 893 818 877.5 831 c 128,-1,63
 862 844 862 844 862 868 c 0,64,65
 862 1080 862 1080 927 1095 c 1,66,67
 1076 1067 1076 1067 1182 1067 c 0,68,69
 1269 1067 1269 1067 1350 1094 c 0,70,71
 1351 1095 1351 1095 1356 1095 c 0,72,73
 1367 1095 1367 1095 1373.5 1078.5 c 128,-1,74
 1380 1062 1380 1062 1382.5 1026 c 128,-1,75
 1385 990 1385 990 1385.5 964.5 c 128,-1,76
 1386 939 1386 939 1386 891 c 0,77,78
 1386 857 1386 857 1379 837 c 128,-1,79
 1372 817 1372 817 1361.5 810.5 c 128,-1,80
 1351 804 1351 804 1336 799.5 c 128,-1,81
 1321 795 1321 795 1305.5 792 c 128,-1,82
 1290 789 1290 789 1273 775.5 c 128,-1,83
 1256 762 1256 762 1243 739 c 0,84,85
 1200 663 1200 663 1155.5 578 c 128,-1,86
 1111 493 1111 493 1054.5 380.5 c 128,-1,87
 998 268 998 268 974 221 c 1,0,1
EndSplineSet
EndChar

StartChar: z
Encoding: 122 122 93
Width: 1163
GlyphClass: 2
Flags: W
LayerCount: 2
Fore
SplineSet
153 -12 m 0,0,1
 149 -13 149 -13 141 -13 c 0,2,3
 63 -13 63 -13 63 126 c 0,4,5
 63 184 63 184 118 265 c 0,6,7
 162 330 162 330 257.5 465 c 128,-1,8
 353 600 353 600 424 705 c 128,-1,9
 495 810 495 810 539 889 c 1,10,-1
 477 889 l 2,11,12
 429 889 429 889 376 852.5 c 128,-1,13
 323 816 323 816 290 780 c 128,-1,14
 257 744 257 744 256 744 c 0,15,16
 90 744 90 744 90 767 c 0,17,18
 90 904 90 904 139 1081 c 1,19,20
 510 1067 510 1067 599 1067 c 0,21,22
 839 1067 839 1067 1027 1082 c 1,23,24
 1065 1078 1065 1078 1077.5 1054 c 128,-1,25
 1090 1030 1090 1030 1090 976 c 0,26,27
 1090 914 1090 914 983 754 c 2,28,-1
 720 361 l 1,29,-1
 629 223 l 1,30,-1
 712 223 l 2,31,32
 782 223 782 223 834 274.5 c 128,-1,33
 886 326 886 326 934 436 c 1,34,35
 938 436 938 436 948 436.5 c 128,-1,36
 958 437 958 437 963 437 c 0,37,38
 1108 437 1108 437 1108 346 c 0,39,40
 1108 285 1108 285 1073 161 c 128,-1,41
 1038 37 1038 37 1015 -15 c 1,42,43
 670 0 670 0 469 0 c 0,44,45
 307 0 307 0 153 -12 c 0,0,1
EndSplineSet
EndChar

StartChar: braceleft
Encoding: 123 123 94
Width: 966
GlyphClass: 2
Flags: W
LayerCount: 2
Fore
SplineSet
101 583 m 128,-1,1
 75 583 75 583 59.5 613.5 c 128,-1,2
 44 644 44 644 44 685 c 0,3,4
 44 725 44 725 59.5 755 c 128,-1,5
 75 785 75 785 101 785 c 128,-1,6
 127 785 127 785 146 789.5 c 128,-1,7
 165 794 165 794 178.5 799.5 c 128,-1,8
 192 805 192 805 200.5 819.5 c 128,-1,9
 209 834 209 834 213.5 845 c 128,-1,10
 218 856 218 856 220 882 c 128,-1,11
 222 908 222 908 222.5 925 c 128,-1,12
 223 942 223 942 223 979 c 0,13,14
 223 1107 223 1107 252 1211.5 c 128,-1,15
 281 1316 281 1316 328 1384.5 c 128,-1,16
 375 1453 375 1453 437.5 1499.5 c 128,-1,17
 500 1546 500 1546 565.5 1566 c 128,-1,18
 631 1586 631 1586 698 1586 c 0,19,20
 793 1586 793 1586 860 1554.5 c 128,-1,21
 927 1523 927 1523 927 1476 c 0,22,23
 927 1362 927 1362 811 1362 c 0,24,25
 796 1362 796 1362 767 1369 c 128,-1,26
 738 1376 738 1376 728 1376 c 0,27,28
 695 1376 695 1376 678.5 1351.5 c 128,-1,29
 662 1327 662 1327 654 1253 c 128,-1,30
 646 1179 646 1179 646 1029 c 0,31,32
 646 790 646 790 427 684 c 1,33,34
 646 577 646 577 646 339 c 0,35,36
 646 189 646 189 654 115 c 128,-1,37
 662 41 662 41 678.5 16.5 c 128,-1,38
 695 -8 695 -8 728 -8 c 0,39,40
 737 -8 737 -8 766 -1.5 c 128,-1,41
 795 5 795 5 811 5 c 0,42,43
 865 5 865 5 896 -19.5 c 128,-1,44
 927 -44 927 -44 927 -108 c 0,45,46
 927 -155 927 -155 860.5 -186.5 c 128,-1,47
 794 -218 794 -218 698 -218 c 0,48,49
 631 -218 631 -218 565.5 -198 c 128,-1,50
 500 -178 500 -178 437.5 -131.5 c 128,-1,51
 375 -85 375 -85 328 -16.5 c 128,-1,52
 281 52 281 52 252 156.5 c 128,-1,53
 223 261 223 261 223 389 c 0,54,55
 223 426 223 426 222.5 443 c 128,-1,56
 222 460 222 460 220 486 c 128,-1,57
 218 512 218 512 213.5 523 c 128,-1,58
 209 534 209 534 200.5 548.5 c 128,-1,59
 192 563 192 563 178.5 568.5 c 128,-1,60
 165 574 165 574 146 578.5 c 128,-1,0
 127 583 127 583 101 583 c 128,-1,1
EndSplineSet
EndChar

StartChar: bar
Encoding: 124 124 95
Width: 542
GlyphClass: 2
Flags: W
LayerCount: 2
Fore
SplineSet
102 709 m 0,0,1
 102 731 102 731 97.5 1138.5 c 128,-1,2
 93 1546 93 1546 93 1568 c 0,3,4
 93 1608 93 1608 137.5 1622 c 128,-1,5
 182 1636 182 1636 289 1636 c 0,6,7
 372 1636 372 1636 409 1626.5 c 128,-1,8
 446 1617 446 1617 446 1585 c 0,9,10
 446 1567 446 1567 445 1520 c 128,-1,11
 444 1473 444 1473 442.5 1365 c 128,-1,12
 441 1257 441 1257 441 1089 c 0,13,14
 441 848 441 848 441 645.5 c 128,-1,15
 441 443 441 443 441.5 321.5 c 128,-1,16
 442 200 442 200 442 116 c 128,-1,17
 442 32 442 32 442 -11.5 c 128,-1,18
 442 -55 442 -55 442 -63 c 0,19,20
 442 -90 442 -90 431.5 -109 c 128,-1,21
 421 -128 421 -128 406.5 -137.5 c 128,-1,22
 392 -147 392 -147 366.5 -152.5 c 128,-1,23
 341 -158 341 -158 321 -159 c 128,-1,24
 301 -160 301 -160 269 -160 c 0,25,26
 231 -160 231 -160 209 -158.5 c 128,-1,27
 187 -157 187 -157 160 -150.5 c 128,-1,28
 133 -144 133 -144 120 -127.5 c 128,-1,29
 107 -111 107 -111 107 -85 c 0,30,31
 107 -34 107 -34 104.5 248.5 c 128,-1,32
 102 531 102 531 102 709 c 0,0,1
EndSplineSet
EndChar

StartChar: braceright
Encoding: 125 125 96
Width: 968
GlyphClass: 2
Flags: W
LayerCount: 2
Fore
SplineSet
866 583 m 128,-1,1
 840 583 840 583 821 578.5 c 128,-1,2
 802 574 802 574 788.5 568.5 c 128,-1,3
 775 563 775 563 766.5 548.5 c 128,-1,4
 758 534 758 534 753.5 523 c 128,-1,5
 749 512 749 512 747 486 c 128,-1,6
 745 460 745 460 744.5 443 c 128,-1,7
 744 426 744 426 744 389 c 0,8,9
 744 261 744 261 715 156.5 c 128,-1,10
 686 52 686 52 639 -16.5 c 128,-1,11
 592 -85 592 -85 529.5 -131.5 c 128,-1,12
 467 -178 467 -178 401.5 -198 c 128,-1,13
 336 -218 336 -218 269 -218 c 0,14,15
 173 -218 173 -218 106.5 -186.5 c 128,-1,16
 40 -155 40 -155 40 -108 c 0,17,18
 40 -44 40 -44 71 -19.5 c 128,-1,19
 102 5 102 5 156 5 c 0,20,21
 172 5 172 5 201 -1.5 c 128,-1,22
 230 -8 230 -8 239 -8 c 0,23,24
 272 -8 272 -8 288.5 16.5 c 128,-1,25
 305 41 305 41 313 115 c 128,-1,26
 321 189 321 189 321 339 c 0,27,28
 321 577 321 577 540 684 c 1,29,30
 321 790 321 790 321 1029 c 0,31,32
 321 1179 321 1179 313 1253 c 128,-1,33
 305 1327 305 1327 288.5 1351.5 c 128,-1,34
 272 1376 272 1376 239 1376 c 0,35,36
 230 1376 230 1376 201 1369 c 128,-1,37
 172 1362 172 1362 156 1362 c 0,38,39
 40 1362 40 1362 40 1476 c 0,40,41
 40 1523 40 1523 107 1554.5 c 128,-1,42
 174 1586 174 1586 269 1586 c 0,43,44
 336 1586 336 1586 401.5 1566 c 128,-1,45
 467 1546 467 1546 529.5 1499.5 c 128,-1,46
 592 1453 592 1453 639 1384.5 c 128,-1,47
 686 1316 686 1316 715 1211.5 c 128,-1,48
 744 1107 744 1107 744 979 c 0,49,50
 744 942 744 942 744.5 925 c 128,-1,51
 745 908 745 908 747 882 c 128,-1,52
 749 856 749 856 753.5 845 c 128,-1,53
 758 834 758 834 766.5 819.5 c 128,-1,54
 775 805 775 805 788.5 799.5 c 128,-1,55
 802 794 802 794 821 789.5 c 128,-1,56
 840 785 840 785 866 785 c 128,-1,57
 892 785 892 785 907.5 755 c 128,-1,58
 923 725 923 725 923 685 c 0,59,60
 923 644 923 644 907.5 613.5 c 128,-1,0
 892 583 892 583 866 583 c 128,-1,1
EndSplineSet
EndChar

StartChar: asciitilde
Encoding: 126 126 97
Width: 1024
GlyphClass: 2
Flags: W
LayerCount: 2
Fore
SplineSet
920 1026 m 1,0,1
 951 928 951 928 951 851 c 0,2,3
 951 751 951 751 900.5 690 c 128,-1,4
 850 629 850 629 743 629 c 0,5,6
 679 629 679 629 594 653.5 c 128,-1,7
 509 678 509 678 440.5 702.5 c 128,-1,8
 372 727 372 727 348 727 c 0,9,10
 314 727 314 727 303.5 703 c 128,-1,11
 293 679 293 679 293 637 c 1,12,13
 287 622 287 622 204 622 c 0,14,15
 91 622 91 622 88 637 c 0,16,17
 73 705 73 705 73 765 c 0,18,19
 73 817 73 817 84.5 861 c 128,-1,20
 96 905 96 905 120.5 942.5 c 128,-1,21
 145 980 145 980 190 1001 c 128,-1,22
 235 1022 235 1022 296 1022 c 0,23,24
 353 1022 353 1022 433 998 c 128,-1,25
 513 974 513 974 579 950.5 c 128,-1,26
 645 927 645 927 667 927 c 0,27,28
 695 927 695 927 710.5 947 c 128,-1,29
 726 967 726 967 726 1024 c 0,30,31
 726 1025 726 1025 740 1026.5 c 128,-1,32
 754 1028 754 1028 778 1030 c 128,-1,33
 802 1032 802 1032 823 1032 c 0,34,35
 883 1032 883 1032 920 1026 c 1,0,1
EndSplineSet
EndChar

StartChar: exclamdown
Encoding: 161 161 99
Width: 657
GlyphClass: 2
Flags: W
LayerCount: 2
Fore
SplineSet
340 1516 m 128,-1,1
 376 1516 376 1516 413.5 1508 c 128,-1,2
 451 1500 451 1500 490 1483 c 128,-1,3
 529 1466 529 1466 554 1431.5 c 128,-1,4
 579 1397 579 1397 579 1350 c 0,5,6
 579 1318 579 1318 569 1290 c 128,-1,7
 559 1262 559 1262 535 1233.5 c 128,-1,8
 511 1205 511 1205 459 1188 c 128,-1,9
 407 1171 407 1171 333 1171 c 0,10,11
 78 1171 78 1171 78 1347 c 0,12,13
 78 1396 78 1396 107 1432 c 128,-1,14
 136 1468 136 1468 180.5 1485 c 128,-1,15
 225 1502 225 1502 264.5 1509 c 128,-1,0
 304 1516 304 1516 340 1516 c 128,-1,1
331 1071 m 0,16,17
 371 1071 371 1071 393 1070 c 128,-1,18
 415 1069 415 1069 432 1063.5 c 128,-1,19
 449 1058 449 1058 454.5 1052.5 c 128,-1,20
 460 1047 460 1047 464.5 1031 c 128,-1,21
 469 1015 469 1015 468.5 1000 c 128,-1,22
 468 985 468 985 470.5 954.5 c 128,-1,23
 473 924 473 924 477 895 c 0,24,25
 493 777 493 777 529 571.5 c 128,-1,26
 565 366 565 366 591.5 217 c 128,-1,27
 618 68 618 68 618 49 c 0,28,29
 618 7 618 7 596.5 -11 c 128,-1,30
 575 -29 575 -29 528 -29 c 2,31,-1
 132 -29 l 2,32,33
 85 -29 85 -29 63.5 -11 c 128,-1,34
 42 7 42 7 42 49 c 0,35,36
 42 68 42 68 68 216.5 c 128,-1,37
 94 365 94 365 130 571.5 c 128,-1,38
 166 778 166 778 183 895 c 0,39,40
 187 924 187 924 189 955 c 128,-1,41
 191 986 191 986 191 1000.5 c 128,-1,42
 191 1015 191 1015 195 1031 c 128,-1,43
 199 1047 199 1047 205 1052.5 c 128,-1,44
 211 1058 211 1058 228.5 1063.5 c 128,-1,45
 246 1069 246 1069 268 1070 c 128,-1,46
 290 1071 290 1071 331 1071 c 0,16,17
EndSplineSet
EndChar

StartChar: cent
Encoding: 162 162 100
Width: 1181
GlyphClass: 2
Flags: W
LayerCount: 2
Fore
SplineSet
1112 480 m 1,0,-1
 1143 430 l 1,1,2
 1143 149 1143 149 870 83 c 1,3,-1
 870 -261 l 1,4,5
 869 -264 869 -264 867.5 -277 c 128,-1,6
 866 -290 866 -290 864 -291 c 128,-1,7
 862 -292 862 -292 853.5 -297.5 c 128,-1,8
 845 -303 845 -303 828.5 -303.5 c 128,-1,9
 812 -304 812 -304 783 -304 c 0,10,11
 762 -304 762 -304 751.5 -295.5 c 128,-1,12
 741 -287 741 -287 741 -262 c 0,13,14
 741 -219 741 -219 739.5 -103.5 c 128,-1,15
 738 12 738 12 738 64 c 1,16,17
 720 63 720 63 683 63 c 2,18,-1
 650 63 l 1,19,-1
 650 -261 l 1,20,21
 649 -264 649 -264 647.5 -277 c 128,-1,22
 646 -290 646 -290 644 -291 c 128,-1,23
 642 -292 642 -292 633.5 -297.5 c 128,-1,24
 625 -303 625 -303 608.5 -303.5 c 128,-1,25
 592 -304 592 -304 563 -304 c 0,26,27
 542 -304 542 -304 531.5 -295.5 c 128,-1,28
 521 -287 521 -287 521 -262 c 0,29,30
 521 -217 521 -217 519.5 -96.5 c 128,-1,31
 518 24 518 24 518 79 c 1,32,33
 371 108 371 108 265.5 190.5 c 128,-1,34
 160 273 160 273 110.5 380.5 c 128,-1,35
 61 488 61 488 61 609 c 0,36,37
 61 708 61 708 90 798 c 128,-1,38
 119 888 119 888 175.5 963.5 c 128,-1,39
 232 1039 232 1039 322 1093.5 c 128,-1,40
 412 1148 412 1148 526 1170 c 1,41,42
 524 1465 524 1465 521 1483 c 1,43,44
 521 1516 521 1516 600 1516 c 0,45,46
 651 1516 651 1516 658 1495 c 1,47,48
 650 1391 650 1391 650 1350 c 2,49,-1
 650 1184 l 1,50,51
 660 1185 660 1185 682 1185 c 128,-1,52
 704 1185 704 1185 746 1183 c 1,53,54
 744 1464 744 1464 741 1483 c 1,55,56
 741 1516 741 1516 820 1516 c 0,57,58
 871 1516 871 1516 878 1495 c 1,59,60
 870 1391 870 1391 870 1350 c 2,61,-1
 870 1167 l 1,62,63
 985 1145 985 1145 1045.5 1082.5 c 128,-1,64
 1106 1020 1106 1020 1106 945 c 128,-1,65
 1106 870 1106 870 1047.5 816 c 128,-1,66
 989 762 989 762 889 762 c 1,67,-1
 788 970 l 1,68,69
 765 983 765 983 716 983 c 0,70,71
 630 983 630 983 587 906.5 c 128,-1,72
 544 830 544 830 544 719 c 0,73,74
 544 567 544 567 619.5 482 c 128,-1,75
 695 397 695 397 809 397 c 0,76,77
 970 397 970 397 1112 480 c 1,0,-1
EndSplineSet
EndChar

